<?xml version="1.0" encoding="UTF-8"?>
<svg id="Livello_2" data-name="Livello 2" xmlns="http://www.w3.org/2000/svg" viewBox="0 0 2492.14 1026.32">
  <defs>
    <style>
      .cls-1 {
        fill: #bf282d;
      }
    </style>
  </defs>
  <g id="Livello_1-2" data-name="Livello 1">
    <g>
      <g>
        <path class="cls-1" d="M1845.13,428.32c-9.07,6.96-14.88,17.63-25.01,22.53-10.88,5.27-22.82,8.32-34.28,12.42-7.57,2.7-12.7-2.08-18.32-5.64-3.61-2.29-5.99-9.97-11.61-4.54-3.97,3.84-5.68,10.51-2.21,15.32,14.11,19.54,16.37,43.97,28.13,64.7,18.32,32.27,35.83,64.86,55.99,96.17,13.53,21.02,12.1,50.1,32.42,68.7,1.17,1.07,2.2,3.58,1.77,4.93-9.82,30.42,11,56.73,11.4,85.73.02,1.8.2,4,1.2,5.33,22.81,30.31,12.62,65.18,13.9,98.49.35,9.09,1.74,18.14,2.49,27.23.34,4.19,1.45,8.79.2,12.55-9.06,27.43-4.2,37.31,24.09,44.75,6.78,1.78,12.38,4.48,12.41,11.14.04,8.58-8.07,7.58-13.83,8.12-7.97.75-17.76-3.11-18.61,10.86-.38,6.32-6.61,3.62-10.45,3.4-44.55-2.53-88.97,2.8-133.62,1.76-26.48-.62-53.58,1.97-80.42,2.26-14.89.16-20.99-7.44-13.77-20.45,23.09-41.61,21.15-87.56,24.08-132.34,2.63-40.14,3.22-80.93-3.37-120.63-3.29-19.81-15.24-37.58-15.9-59.58-.23-7.78-18.57-16.1-29.74-22.15-11.65-6.32-12.88-13.77-8.27-24.95,5.44-13.2,14.29-26.95-1.93-39.46-3.89-3-.5-6.3.74-9.7,8.74-24.04,17.99-47.95,25.3-72.44,3.9-13.06,9.73-23.94,21.26-30.58,14.9-8.59,20.16-25.83,34.71-35.39"/>
        <path class="cls-1" d="M2418.73,987.58c-25.92,3.48-48.19-.19-72.56-5-28.93-5.72-66.21-18.63-86.94-6.44-49.6,29.17-97.56-24.12-143.1,6.28-.63.42-2.61-.07-3.15-.76-22.17-28.53-51.28.23-76.76-8.88-11-3.93-558.47,7.24-590.7-21.2-4.49-3.96-18.49,22.09-20.64,23.59l14.08,35.58c201.14.68,650.01.32,851.15.37,67.34.02,134.69,0,202.03,0-24.26-12.81-49.97-26.67-73.41-23.53Z"/>
        <path class="cls-1" d="M1848.72,623.6c-.08,14.09-11.83,16.86-21.54,4.65-2.21-2.78-4.23-6.04-5.9-9.67l-29.13-63.2c-6.62-14.37-12.17-43.97-3.94-47.77h0c8.24-3.8,20.28,4.78,26.91,19.15l29.13,63.2c3.8,8.25,4.54,22.76,4.47,33.63Z"/>
        <path class="cls-1" d="M1799.66,526.02l-71.35-97.99c-6.35-8.72-18.33-11.12-27.57-5.54-9.23,5.59-12.64,17.32-7.85,27l26.52,53.53c1.01,2.05,2.37,3.92,3.99,5.53l44.84,44.46c4.04,4,9.33,6.02,14.64,6.02,4.8,0,9.63-1.66,13.53-5.02,8.22-7.06,9.64-19.24,3.26-28Z"/>
        <path class="cls-1" d="M1627.25,207.71c-3.84,24.43-15.64,44.79-32.2,62.66-1.81,1.96-4.69,5.21-6.23,4.79-12.86-3.52-10.42,5.69-10.82,12.46-.25,4.23-.35,8.49-.16,12.73.17,3.73-.78,5.57-5.01,5.47-9.37-.24-8.23,4.19-4.33,10.08,8.03,12.13,15.87,24.38,23.69,36.64,1.43,2.24,4.37,4.63,3.18,7.22-5.43,11.87,3.85,17.28,10.28,23.48,7.06,6.81,16.38,11.15,19.94,21.55,1.45,4.22,6.39,6.21,11.14,6.99,4.85.8,9.38,2.46,13.38,5.39,2.73,2,4.95,4.16.89,6.98-6.97,4.84-4.03,8.98.89,12.89,10.25,8.15,22.21,10.57,34.98,10.38,6.65-.1,13.36-.33,19.66,2.46-1.22.7-2.38.75-3.55.87-18.35,1.86-23.49,6.44-23.93,22.93l127.47,87.54c5.53-4.14,11.11-8.22,16.53-12.5,5.77-4.55,7.2-8.38,2.22-15.02-13.05-17.42-28.33-32.34-46.09-44.82-4.41-3.1-9.53-5.6-5.6-12.88,3.89-7.21,8.26-4.46,13.57-2.32,12.63,5.09,25.38,9.94,38.9,12.34,4.07.72,8.56,1.4,10.74-2.54,7.12-12.92,26.99-17.22,24.7-36.51-.11-.9,1.17-2.08,1.98-2.97,6.27-6.89,4.35-12.19-2.76-17.12-8.85-6.13-11.54-13.76-8.97-25.12,4.54-20.03,8.35-40.47,4.35-61.24-.43-2.25-.18-4.12,1.19-5.96,10.32-13.87,18.5-29.16,29.05-42.91,7.77-10.12,15.94-18.69,29.42-20.79,4.92-.77,9.61-3.59,14.18-5.92,6.75-3.45,7.51-10.47.91-12.94-8.41-3.15-7.64-7.06-3.67-12.94,1.31-1.94,2.9-4.35,1.38-6.74-1.93-3.04-4.95-1.33-7.48-.9-10.29,1.72-20.56,3.59-32.93,5.78,9.29-9.46,6.18-21.63,13.35-30.12,2.92-3.46-.83-5.11-4.45-4.81-5.43.45-10.86.91-16.29,1.45-4.57.45-7.65-1.2-8.82-5.84-2.06-8.2-6.05-12.91-15.6-10.02-4.19,1.26-8.4-1.73-6.31-5.83,4.02-7.85-.96-16.25,2.93-23.9,1.44-2.83-.04-6.18-2.93-7.87-3.35-1.96-4.99,1.15-6.52,3.19-7.58,10.12-19.05,15.63-28.11,23.99-1.77,1.63-4.03,3.74-6.32,1.79-2.76-2.34-1.93-5.58,0-8.2,3.43-4.63,7.2-9,10.58-13.66,1.15-1.58,3.51-3.43,2.16-5.52-1.94-3.01-4.4-.27-6.37.47-14.17,5.26-28.14,11.1-42.43,16.01-16.63,5.72-29.07,4.46-35.77-15.7-2.93-8.82-5.44-8.89-11.41-1.89-4.01,4.71-6.66,6.44-8.49-1.6-1.33-5.84-3.95-8.01-10.08-3.14-12.67,10.08-20.17,24.04-29.55,36.6-8.2,10.99-18.72,20.01-26.71,34.41-1.38-9.57-6.33-13.74-10.35-18.54-2.02-2.41-2.68-6.83-7.08-5.85-3.97.88-4.07,4.85-4.91,8-.62,2.34-1.06,4.73-1.44,7.13Z"/>
        <path class="cls-1" d="M2480.64,1011.59c-5.32-.7-57.98-30.2-94.37-50.13-4.92-2.69-26.27,2.47-32.44,0-27.07-10.82-46.11-26.9-48.52-30.12.67-5.8,11.3-7.51,11.39-17.34-14.05,6.47-26.59,12.42-39.28,18.01-5.97,2.63-15.14,5.63-17.6-.67-7.18-18.42-15.79-10.38-26.19-4.28-4.04,2.37-10.15,1.31-15.33,1.54-6.95.31-12.61,3.82-18.79,6.16-21.16,8.01-32.3,27.92-50.65,38.93-12.53,7.52-29.17,14.3-39.42,12.11-30.18-6.42-32.93-26.31-9.77-46.99,1.15-1.03,2.5-2.74-.38-4.86-16.53,5.65-28.57,18.95-42.88,28.68-4.7,3.2-8.97,8.99-15.02,2.81-9.68-9.9-16.33-2.17-17.98,5.44-2.98,13.74-8.84,7.57-14.48,3.77-4.33-2.92-7.45-7.77-11.92-10.3-5.9-3.34-18.03-3.58-17.47.89,2.75,22.16-8.51,17.91-21.47,14.34-2.72-.75-6.46,2.23-9.72,3.51-6.53,2.54-14.44,6.52-19.08-.59-5.73-8.79,3.57-13.42,8.66-18.53,4.34-4.35,10.37-4.78,16.14-5.97,9.89-2.04,20.43-2.98,29.74-12.66-20.06-3.7-36.36-2.76-51.23,10.22-9.51,8.3-19.79,16.22-34.6,12.8-8.92-2.06-11.4-4.74-5.98-12.65,2.09-3.05,7-6.45,1.14-9.99-5.06-3.07-10.32-2.26-13.89,2.97-4.96,7.28-9.42,14.89-14.48,22.1-2.94,4.19-7.76,11.16-12.14,6.76-9.59-9.62-14.14-.97-20.34,3.25-8.87,6.03-15.22,3.58-19.6-5.86-6.31-13.62-2.44-26.17,3.29-38.85,3.99-8.83,11.15-16.9,9.18-29.65-10.14,7.87-14.33,22.95-29.21,18.12-10.78-3.5-14.29-17.47-27.62-21.47,3.07,16.14,20.25,30.52-1.83,44.54-10.3,6.54-16.27,5.5-23.7-3.81-.77,25.99-17.33,35.57-38.36,24.14-2.71-1.47-4.24-1.03-5.62,1.16-7.09,11.2-12.8,4.78-16.81-2.12-8.49-14.62-22.11-23.71-34.63-33.86-10.07-8.17-17.16-16.74-17.38-30.73-.15-9.97-3.08-19.89-5.52-34.26-7.99,12.9-3.14,24.89-9.09,32-5.71,6.81-6.2,10.45-.11,16.49,4.98,4.94,6.81,12.25,1.82,17.54-5.69,6.03-10.61-1-15-3.99-10.61-7.24-17.99-8.35-23.25,6.51-2.7,7.64-8.3,24-17.28,2.56-1.81-4.32-5.83-3.08-9.16-2.33-5.33,1.2-9.59-.57-11.84-5.21-6.92-14.28-16.55-10.73-25.76-3.66-10.58,8.13-92.86,41.45-92.71,70.2.06,12.1,2.36,14.47,14.38,14.47,318.8-.08,574.95,4.83,893.75,4.79l150.4-5.9Z"/>
      </g>
      <path d="M308.08,955.09h-.04c-1.75-.37-3.81-.73-6.1-1.07-1.42-.21-3.06-1.42-4.79-3.52-3.6-4.28-5.71-10.3-6.29-17.9-.63-8.24-1.08-21.86-1.34-40.45l-4.34-456.6v-25.03c-.01-13.72.3-23.22.91-28.26.55-4.56,2.04-8.37,4.4-11.3,2.17-2.63,3.72-3.36,4.61-3.51,2.36-.38,4.58-.96,6.62-1.75,2.43-.94,4.45-2.61,5.99-4.95,1.57-2.39,2.27-6.34,2.27-12.81,0-11.23-2.94-16.92-8.73-16.92h-49.28c-2.1.01-5.88.95-7.64,7.19-.96,3.38-1.68,7.87-2.2,13.64l-49.37,412.12-50.51-420.5c-.63-5.12-1.49-8.01-2.89-9.65-1.54-1.81-3.55-2.76-5.82-2.76l-50.05.02c-8.72,0-8.72,12.81-8.72,17.02,0,6.4.53,10.27,1.71,12.55,1.69,3.35,4.14,4.52,5.86,4.91,1.53.36,3.36.72,5.54,1.09,1.38.25,3.04,1.23,4.73,2.77,3.02,2.94,5,7.22,5.91,12.72.99,6.08,1.49,17.12,1.49,32.8,0,5.46-.06,9.98-.18,13.43-.13,3.54-.19,6.01-.19,7.35l-6.39,356.44c-.51,31.85-1.01,57.58-1.5,78.66-.5,21.05-1.27,38.35-2.27,51.42-.99,12.87-2.48,22.23-4.4,27.83-1.44,4.18-3.21,6.58-4.83,6.58-.26,0-.83-.05-1.9-.38-1.48-.44-3.15-.66-4.98-.66s-5.37.81-7.21,6.23c-1.02,3-1.51,7.22-1.51,12.9,0,16.67,6.83,20.17,12.55,20.17,3.2,0,6.99-.78,11.25-2.3,3.57-1.26,7.75-1.91,12.43-1.91,5.47,0,10.33.65,14.45,1.94,4.72,1.49,8.72,2.25,11.89,2.25h.02c4.41,0,7.9-2.04,10.1-5.91,1.9-3.35,2.83-8.01,2.83-14.27,0-12.69-3.59-19.12-10.64-19.12-1.49,0-2.86.28-4.11.85-.29.14-.56.2-.86.2h0c-5.39,0-9.02-6.56-10.79-19.49-2.01-14.68-3.04-38.56-3.04-70.97,0-7.8.06-16.55.18-26.01.12-9.72.31-20.48.57-32.3l6.25-311.53,55.43,460.84c.35,3.87,1.43,15.65,9.48,15.65,6.33,0,8.33-9.44,9.46-18.69l53.63-452.18,2.65,366.27v23.98c0,12.34-.12,22.83-.36,31.19-.24,8.02-1.04,14.6-2.36,19.55-1.2,4.47-2.86,7.56-4.92,9.17-2.05,1.6-5.14,2.41-9.19,2.41-1.95,0-5.52.8-7.47,6.16-1.1,3.03-1.63,7.27-1.63,12.96,0,6.15.73,10.72,2.21,14,1.81,3.98,4.94,6.17,8.81,6.17h0c4.06,0,9.27-1.28,15.93-3.91,5.83-2.28,12.81-3.44,20.74-3.45h.02c7.12,0,13.42,1.14,18.7,3.39,6.11,2.62,11.5,3.94,16.04,3.94,2.74,0,6.53-1.17,9.01-6.74,1.58-3.58,2.39-7.75,2.39-12.39,0-6.96-.6-11.43-1.87-14.07-1.85-3.8-4.47-5.09-6.33-5.49Z"/>
      <path d="M508.91,428.34h0c-9.54-29.75-20.87-53.5-33.7-70.61-13.28-17.71-27.72-26.69-42.94-26.69h0c-15.46,0-30.09,8.99-43.49,26.7-12.95,17.12-24.34,40.88-33.85,70.64-9.44,29.54-17.06,65.05-22.65,105.55-5.58,40.45-8.39,84.8-8.38,131.83.01,47.05,2.86,91.41,8.46,131.82,5.61,40.48,13.25,76.16,22.71,106.02,9.51,30.05,20.85,53.98,33.7,71.11,13.28,17.71,27.72,26.69,42.94,26.69h.01c15.46,0,30.09-8.99,43.48-26.7,12.95-17.13,24.4-41.06,34.04-71.14,9.57-29.91,17.19-65.59,22.65-106.06,5.45-40.45,8.2-84.8,8.19-131.82-.02-47.04-2.86-91.39-8.46-131.82-5.61-40.46-13.25-75.96-22.71-105.53ZM433.58,967.12h0c-8.13,0-16.14-6.66-23.8-19.8-8.13-13.94-15.36-34.61-21.49-61.43-6.17-26.98-11.05-60.55-14.51-99.77-3.47-39.24-5.23-84.27-5.25-133.83-.02-46.22,1.66-87.72,4.99-123.35,3.31-35.58,7.92-65.97,13.7-90.31,5.73-24.15,12.56-42.8,20.3-55.42,7.28-11.87,14.86-17.88,22.52-17.89h0c8.12,0,16.13,6.67,23.8,19.82,8.13,13.95,15.36,34.61,21.49,61.42,6.16,27,11.11,60.41,14.7,99.29,3.59,38.99,5.42,83.85,5.43,133.32.01,46.23-1.67,87.74-4.99,123.36-3.31,35.58-7.99,66.13-13.88,90.79-5.85,24.49-12.74,43.3-20.49,55.92-7.28,11.87-14.86,17.88-22.52,17.89Z"/>
      <path d="M788.26,955.09h-.04c-1.77-.37-3.83-.73-6.11-1.07-1.41-.21-3.06-1.42-4.79-3.52-3.6-4.28-5.72-10.3-6.29-17.9-.64-8.27-1.09-21.88-1.34-40.45l-4.34-456.6v-25.03c-.01-13.7.3-23.21.91-28.26.55-4.55,2.04-8.36,4.41-11.3,2.17-2.63,3.72-3.36,4.61-3.51,2.36-.38,4.59-.96,6.61-1.75,2.43-.94,4.45-2.61,5.99-4.95,1.55-2.36,2.27-6.43,2.27-12.81,0-4.99-.52-8.71-1.58-11.4-1.9-4.81-5.3-5.53-7.15-5.53h-49.28c-2.1.02-5.87.95-7.64,7.19-.95,3.37-1.68,7.86-2.2,13.64l-49.37,412.11-50.51-420.49c-.63-5.12-1.49-8-2.89-9.65-1.54-1.8-3.55-2.76-5.82-2.76h-50.04c-8.72.02-8.72,12.83-8.72,17.04,0,6.39.53,10.27,1.71,12.55,1.7,3.35,4.15,4.52,5.87,4.9,1.54.36,3.36.72,5.54,1.09,1.38.24,3.04,1.22,4.72,2.76,3.02,2.94,5.01,7.22,5.91,12.72.99,6.09,1.49,17.13,1.49,32.8,0,5.52-.06,10.04-.18,13.44-.13,3.54-.19,6.01-.19,7.35l-6.39,356.44c-.51,31.84-1,57.56-1.5,78.66-.5,21.01-1.26,38.31-2.27,51.42-.99,12.86-2.47,22.22-4.4,27.82-1.44,4.19-3.21,6.58-4.83,6.58-.26,0-.83-.05-1.89-.38-1.47-.44-3.15-.67-4.98-.67s-5.37.81-7.21,6.23c-1.02,3-1.51,7.22-1.51,12.89,0,6.23.89,10.88,2.71,14.22,2.13,3.89,5.53,5.95,9.84,5.95h0c3.2,0,6.99-.78,11.25-2.3,3.58-1.26,7.76-1.91,12.43-1.91,5.47,0,10.34.65,14.45,1.94,4.72,1.49,8.73,2.25,11.91,2.25,4.41,0,7.9-2.04,10.1-5.91,1.91-3.35,2.83-8.02,2.83-14.27,0-12.68-3.59-19.12-10.64-19.12-1.49,0-2.86.28-4.11.85-.29.14-.56.2-.85.2-5.4,0-9.03-6.56-10.79-19.5-2.01-14.69-3.04-38.57-3.05-70.96,0-8.01.06-16.76.18-26.02.12-9.72.31-20.48.57-32.3l6.25-311.52,55.43,460.83c.35,3.87,1.43,15.65,9.48,15.65,6.33,0,8.34-9.45,9.46-18.69l53.63-452.18,2.65,366.27v23.97c.01,12.27-.11,22.76-.36,31.19-.25,8.03-1.04,14.61-2.37,19.55-1.2,4.47-2.85,7.56-4.92,9.17-2.05,1.59-5.14,2.4-9.19,2.41-1.95,0-5.52.8-7.47,6.16-1.1,3.03-1.64,7.27-1.63,12.96,0,6.14.73,10.72,2.22,13.99,1.81,3.98,4.94,6.17,8.8,6.17h0c4.06,0,9.27-1.28,15.94-3.91,5.83-2.28,12.81-3.44,20.73-3.45h.04c7.11,0,13.4,1.14,18.69,3.39,6.1,2.62,11.49,3.94,16.03,3.94h.01c2.74,0,6.53-1.17,9-6.73,1.59-3.58,2.39-7.75,2.39-12.39,0-6.96-.59-11.44-1.87-14.07-1.85-3.8-4.47-5.09-6.33-5.49Z"/>
      <path d="M956.54,830.64h0c-5.37,0-8.55,6.83-11.35,24.36-2.26,14.2-5.71,31.25-10.25,50.64-3.02,12.44-6.05,22.73-9.03,30.56-2.88,7.6-6.13,13.42-9.65,17.3-3.39,3.72-7.18,6.23-11.26,7.44-4.34,1.3-9.35,1.96-14.89,1.96h-.02c-5.07,0-9.18-.77-12.24-2.29-2.86-1.41-5.09-3.97-6.82-7.86-1.87-4.2-3.19-10.58-3.93-18.99-.75-8.66-1.14-20.48-1.14-35.11l-.06-217.72c0-9.61.71-13,1.13-14.17.35-.98.82-1.48,2.36-1.48h16.81s0,0,.02,0c7.4,0,13.44,1.57,17.94,4.65,2.97,2.04,7.25,8.43,10.83,27.25,2.01,10.38,3.55,20,4.55,28.61,1.05,8.99,1.86,16.52,2.48,23.02.65,6.78,1.44,12.23,2.37,16.18.48,2.08,1.93,8.39,6.92,8.39,7,0,7.96-10.71,7.95-22.27,0-4.9-.19-14.72-.58-30-.38-14.97-.58-34.89-.59-59.22,0-20.95.31-40.33.94-57.6.63-17.64.95-33.22.94-46.3,0-5.41,0-18.07-7.97-18.07h0c-2.72,0-6.21,1.59-7.35,9.17-.65,4.26-1.23,9.63-1.74,15.98-.5,6.22-1.27,13.04-2.26,20.28-.98,7.08-2.72,14.08-5.17,20.83-1.52,4.19-4.93,8.04-10.14,11.46-5.27,3.46-11.58,5.22-18.77,5.22h-17.19s0,0,0,0c-2.6,0-2.74-.71-2.8-.99-.32-1.5-.69-5.61-.7-16.62l-.05-173.18c0-12.51.19-22.87.56-30.8.37-7.75,1.22-14.03,2.54-18.65,1.18-4.15,2.89-7.09,5.08-8.72,2.19-1.64,5.49-2.48,9.81-2.48h.02c19.26,0,33.48,12.34,43.46,37.73,3.22,8.17,5.74,16.97,7.47,26.15,1.77,9.41,3.18,18,4.18,25.53,1.05,7.9,1.99,14.13,2.9,19.05.5,2.77,1.84,10.12,7.33,10.12h0c5.67,0,7.58-7.48,7.57-29.62l-.03-94.46c0-11.52-.53-19.64-1.61-24.83-1.35-6.47-5.78-10.03-12.47-10.03h0c-2.68,0-9.97.68-22.92,2.13-12.2,1.38-29.68,2.09-51.96,2.09h-.2c-17.3,0-30.69-.69-39.79-2.05-12.79-1.89-15.76-2.13-16.92-2.13-2.04,0-5.78.74-7.96,5.69-1.28,2.91-1.91,6.96-1.9,12.38,0,6.39.53,10.27,1.71,12.55,1.24,2.46,3.01,4.21,5.23,5.21,1.95.9,4.23,1.36,6.75,1.36,1.04.02,2.33.71,3.76,2.18,3.01,2.97,4.75,7.1,5.32,12.62.62,6.19.94,17.38.95,33.25l.14,480.7c0,20.05-.5,35.48-1.5,45.85-.88,9.06-3.49,14.46-7.91,16.13-4.39,1.9-7.93,2.87-10.5,2.87-7.96,0-7.96,12.37-7.96,17.02,0,16.67,6.42,20.17,11.79,20.17,1.2,0,3.77-.27,12.16-2.57,5.66-1.55,14.16-2.34,25.28-2.35h.23c24.28,0,44.64,1.33,60.53,3.97,16.53,2.73,28.52,4.05,36.65,4.05,3.32,0,5.87-.46,7.83-1.42,2.3-1.17,3.92-3.48,4.96-7.07.84-2.89,1.38-6.51,1.65-11.06.26-4.35.51-10.52.76-18.33l4.17-101.8c.25-5.6.51-11.91.76-19.05,0-1.8-.51-4.06-1.55-6.93-.7-1.91-2.16-5.89-5.65-5.89Z"/>
      <path d="M1170.31,331.04h0c-3.14,0-6.67.56-10.83,1.7-3.52.97-7.83,1.45-12.89,1.46-5.28,0-9.94-.49-13.85-1.47-4.45-1.11-8.64-1.67-12.46-1.67h-.01c-6.07,0-13.31,3.32-13.31,19.13,0,4.69.75,8.69,2.21,11.89,2.32,5.1,5.65,6.18,8.04,6.18h.01c4.68,0,8.28.72,10.67,2.14,2.07,1.24,3.78,4.5,4.95,9.42,1.35,5.74,2.22,14.17,2.59,25.06.38,11.09.58,26.24.59,45.02,0,3.52.06,9.65.19,18.42.13,8.9.2,20.72.2,35.11l.08,277.8-98.15-437.11c-1.81-6.91-2.65-8.83-3.25-9.82-.89-1.46-2.74-3.19-6.51-3.19h-48.9c-8.72.02-8.72,13.62-8.72,18.09,0,8.49,1.23,13.38,3.99,15.87,1.42,1.28,3.18,1.85,5.07,1.66,2.62-.26,5.89,1.06,9.68,3.92,2.9,2.92,4.71,7.13,5.36,12.51.75,6.15,1.13,17.29,1.13,33.13l.13,435.85c0,19.94-.12,37.37-.36,51.81-.25,14.14-.94,25.64-2.06,34.19-1.08,8.24-2.66,14.15-4.7,17.57-2.2,3.68-4.63,4.11-6.27,4.11h-3.44c-7.05,0-10.63,6.79-10.63,20.18,0,15.8,6.82,19.12,12.54,19.12h0c3.96,0,8.14-.77,12.39-2.3,3.59-1.27,7.64-1.91,12.06-1.91h.02c4.95,0,9.48.65,13.45,1.93,4.61,1.5,8.95,2.26,12.89,2.26,6.07,0,13.31-3.33,13.3-19.12,0-6-.49-10.45-1.5-13.62-1.82-5.7-5.3-6.55-7.22-6.55h0c-1.63,0-3.15.24-4.56.72-.62.22-1.4.33-2.31.33-2.75,0-4.79-1.05-6.44-3.32-1.34-1.84-3.22-5.99-4.55-15.27-1.13-7.88-1.83-18.32-2.08-31.02-.26-12.73-.39-29.1-.4-48.66l-.12-397.76,121.46,542.1c3.22,14.16,6.08,19.42,10.55,19.42h0c4.42,0,6.17-5.32,7.31-10.53,1.19-5.46,1.79-11.88,1.79-19.09l-.15-522.92c-.01-38.13.75-66.23,2.25-83.52,1.28-14.7,4.51-23.13,8.86-23.13h3.82c5.11,0,7.31-2.79,8.16-4.45,1.18-2.31,1.71-6.18,1.71-12.56,0-15.78-6.42-19.09-11.79-19.08Z"/>
      <path d="M1192.85,331.04c-.33,4.22-.68,8.7-1.07,13.52l-9.51,105.48c-.51,4.21-.9,8.15-1.16,11.71-.39,5.33-.39,6.24-.39,6.54,0,9.88.61,12.57,1.26,13.98,1.6,3.56,4.17,4.09,5.56,4.09h.77c5.21,0,8.55-5.96,11.51-20.55,2.38-11.71,5.9-28.29,10.43-49.07,4.73-16.43,9.61-28.87,14.53-36.97,4.47-7.38,9.9-10.97,16.59-10.97h9.81c.27.54.73,1.73,1.2,4.12.85,4.33,1.28,8.54,1.28,12.51l.15,512.95c0,22.22-.5,37.31-1.49,44.87-.91,6.94-3.41,12.11-7.65,15.78l-.21.2c-1.37,1.41-2.61,2.13-3.69,2.13-2.49,0-4.75.46-6.76,1.36-2.26,1.04-4.09,2.99-5.44,5.79-1.26,2.59-1.87,6.51-1.86,11.97,0,13.38,3.84,20.17,11.4,20.17,4.51,0,10.08-1.32,16.53-3.92,5.69-2.28,12.34-3.44,19.76-3.44h.02c7.65,0,14.35,1.15,19.9,3.42,6.33,2.6,11.83,3.92,16.36,3.92h.01c3.94,0,7.04-1.88,8.98-5.43,1.63-2.98,2.42-7.12,2.41-12.64,0-6.2-.51-10.28-1.61-12.87-1.22-2.88-3.01-4.87-5.35-5.96-1.77-.8-3.84-1.41-6.17-1.82-1.35-.23-3-1.21-4.91-2.95-2.17-1.78-3.86-3.89-5.05-6.27-1.24-2.47-2.15-5.83-2.73-10.01-.62-4.43-1-10.14-1.12-16.98-.13-6.82-.19-15.76-.2-27.34l-.15-516.1c0-3.25.42-6.72,1.25-10.31.42-1.83.83-2.75,1.06-3.17h5.39s.01,0,.02,0c10.73,0,18.93,2.68,24.37,7.96,3.81,3.71,9.26,13.77,13.52,40.41,1.02,10.49,1.91,19.93,2.68,28.32.77,8.41,1.47,15.77,2.11,22.07.66,6.54,1.44,11.51,2.38,15.19,1.64,6.44,4.87,7.79,7.29,7.79,2.7,0,6.16-1.49,7.34-8.6.66-4.06,1.11-11.94,1.37-24.11l2.09-126.76h-172.82Z"/>
      <path d="M1379.46,825.52c0,24.29-.06,44.46.02,64.62.09,23.15,5.56,44.66,20.94,62.59,18.26,21.29,41.45,19.7,56.81-3.76,16.48-25.18,21.02-53.88,23.82-83.05,3.62-37.75,3.65-75.39-4.8-112.58-5.48-24.14-17.22-41.46-44.29-47.02-32.89-6.75-52.45-28.49-58.54-61.98-15.24-83.83-15.07-167.22,8.18-249.65,6.27-22.21,14.78-44.05,36.45-56.97,14.98-8.93,30.07-9,44.59.31,16.68,10.69,34.87,21.49,33.59,44.87-1.88,34.38-3.72,68.73-3.51,103.18.03,4.7,2.14,12.66-5.34,12.58-6.6-.07-5.87-7.64-5.97-12.74-.32-16.54-.3-33.09-.58-49.63-.09-5.28-.31-10.63-1.2-15.82-3.86-22.41-24.33-46.21-40.93-45.61-23.85.86-31.16,19.88-36.82,38.41-15.78,51.68-16.01,104.05-6.88,157.11,5.54,32.19,24.19,50.25,54.46,57.8,25.75,6.42,41.03,22.69,47.64,47.8,25.88,98.32,15.65,194.15-20.73,287.91-3.97,10.23-10.93,19.63-17.91,28.28-13.89,17.21-35.36,23.07-53.17,15.82-24.36-9.92-40.01-30.01-39.61-51.22.71-37.71,1.48-75.41,2.41-113.11.12-4.83-1.86-10.61,11.36-18.14Z"/>
      <path class="cls-1" d="M28.48,45.69c-2.87.56-5.4.9-7.58,1.04-2.19.14-4.03,1.03-5.53,2.68-1.5,1.65-2.66,4.27-3.48,7.84-.82,3.58-1.23,8.95-1.23,16.1,0,2.75.48,4.61,1.43,5.58.95.96,2.36,1.65,4.2,2.06s4.1.82,6.76,1.23c2.66.42,5.63,1.31,8.91,2.68,24.86,10.22,37.29,38.74,37.29,85.55,0,16.68-2.36,32.75-7.07,48.22-4.71,15.47-11.37,28.71-19.98,39.74-3.69,4.84-7.55,8.94-11.58,12.31-4.03,3.35-7.86,6.18-11.47,8.47-3.62,2.28-6.83,3.97-9.63,5.05-2.8,1.08-4.81,1.61-6.04,1.61-2.32,0-3.48-2.02-3.48-6.05,0-2.42.48-4.03,1.43-4.84.95-.81,2.42-1.55,4.4-2.22,1.98-.68,4.41-1.62,7.27-2.82,2.87-1.22,6.15-3.43,9.83-6.65,9.29-8.06,16.36-18.95,21.21-32.65,4.85-13.71,7.27-29.29,7.27-46.76s-2.43-29.83-7.27-39.51c-4.85-9.67-12.26-16.53-22.23-20.56-3.69-1.63-6.9-2.58-9.63-2.85-2.73-.27-4.99-.61-6.76-1.02-1.78-.41-3.11-1.15-4-2.24-.89-1.09-1.33-3.26-1.33-6.53,0-5.17,1.09-14.81,3.28-28.95,2.18-14.14,4.85-34.12,7.99-59.95.41-2.99.78-5.36,1.13-7.13.34-1.77.95-3.13,1.84-4.08.89-.95,2.15-1.7,3.79-2.24,1.64-.54,3.89-1.09,6.76-1.63L58.6.65h1.84c1.36,0,2.05,1.62,2.05,4.86,0,9.46-.31,16.61-.92,21.47-.61,4.86-1.4,8.37-2.36,10.53-.96,2.16-2.02,3.31-3.18,3.44-1.16.14-2.29.34-3.38.61l-24.18,4.13Z"/>
      <path d="M106.26,241.37c0,4.81.03,8.71.09,11.71.06,3,.24,5.48.55,7.43.3,1.96.79,3.53,1.47,4.73.67,1.2,1.62,2.25,2.84,3.15,1.1.9,2.14,1.35,3.12,1.35s1.83.15,2.57.45c.73.3,1.31.98,1.74,2.03.43,1.06.64,2.78.64,5.18,0,4.21-1.28,6.3-3.85,6.3-1.1,0-3.09-.45-5.96-1.35-2.87-.9-6.69-1.35-11.46-1.35s-8.59.45-11.46,1.35c-2.87.9-4.86,1.35-5.96,1.35-2.57,0-3.85-2.4-3.85-7.21,0-2.1.21-3.6.64-4.5.43-.9.98-1.5,1.65-1.8.67-.3,1.44-.45,2.29-.45s1.71-.3,2.57-.9c1.47-.9,2.6-1.95,3.39-3.15.79-1.2,1.38-2.77,1.74-4.73.37-1.95.58-4.5.64-7.66.06-3.15.09-7.13.09-11.93V35.13c0-7.21-.21-12.08-.64-14.64-.43-2.55-1.56-4.57-3.39-6.08-1.22-.9-2.38-1.35-3.48-1.35-.98,0-1.87-.15-2.66-.45-.8-.3-1.41-.82-1.83-1.58-.43-.75-.64-2.32-.64-4.73,0-4.2.92-6.3,2.75-6.3.98,0,2.93.6,5.87,1.8,2.93,1.2,7.03,1.8,12.29,1.8s9.35-.6,12.29-1.8c2.93-1.2,4.89-1.8,5.87-1.8,1.83,0,2.75,2.1,2.75,6.3,0,2.1-.18,3.53-.55,4.28-.37.75-.92,1.28-1.65,1.58-.73.3-1.59.53-2.57.68-.98.15-2.02.53-3.12,1.13-2.32,1.2-3.7,3.23-4.13,6.08-.43,2.86-.64,7.88-.64,15.09v206.25Z"/>
      <path d="M174.83,279.23c-.73,5.38-1.53,8.08-2.38,8.08s-1.53-2.02-2.02-6.06c-.49-4.04-1.16-8.9-2.02-14.59l-29.52-210.05c-1.59-11.37-2.93-20.42-4.03-27.15-1.1-6.73-2.57-11.3-4.4-13.69-.61-.9-1.35-1.42-2.2-1.58-.85-.15-1.65-.37-2.38-.68-.73-.3-1.38-.75-1.93-1.35-.55-.6-.83-1.8-.83-3.6,0-4.5.98-6.76,2.93-6.76.61,0,2.75.45,6.42,1.35s9.17,1.34,16.5,1.34c2.81,0,5.25-.37,7.33-1.12,2.08-.75,3.6-1.13,4.58-1.13,1.71,0,2.57,1.79,2.57,5.38,0,3.29-.49,5.24-1.47,5.84-.98.6-2.05,1.2-3.21,1.79-1.16.6-2.23,1.58-3.21,2.92-.98,1.35-1.47,4.26-1.47,8.75s.55,10.77,1.65,18.85l20.35,144.1c.85,6.59,1.59,9.87,2.2,9.87.73,0,1.47-3.29,2.2-9.87l15.77-131.09c1.59-13.47,2.38-23.19,2.38-29.17s-.55-9.51-1.65-11.45-2.35-3.22-3.76-3.81c-1.41-.6-2.66-1.2-3.76-1.79-1.1-.6-1.65-2.55-1.65-5.84,0-4.19,1.16-6.29,3.48-6.29.98,0,2.5.45,4.58,1.35,2.08.9,4.83,1.34,8.25,1.34,3.79,0,6.72-.3,8.8-.89,2.08-.6,3.36-.9,3.85-.9,2.32,0,3.48,1.95,3.48,5.84,0,2.39-.25,3.97-.73,4.71-.49.75-1.1,1.2-1.83,1.34-.73.15-1.53.3-2.38.45-.86.15-1.65.68-2.38,1.57-1.47,1.8-2.63,4.71-3.48,8.75-.86,4.04-1.71,9.06-2.57,15.04l-32.09,240.17Z"/>
      <path d="M296.4,54.04c0,7.51-.67,11.26-2.02,11.26-.86,0-1.5-1.05-1.93-3.15-.43-2.1-.89-4.8-1.38-8.11-.49-3.3-1.16-6.98-2.02-11.03-.86-4.05-2.08-7.88-3.67-11.48-5.01-11.41-12.47-17.11-22.37-17.11-2.45,0-4.34.45-5.68,1.35-1.35.9-2.35,2.41-3.03,4.5-.67,2.1-1.1,4.88-1.28,8.33-.18,3.45-.28,7.88-.28,13.28v74.3c0,3.91.12,6.38.37,7.43.24,1.06,1.22,1.58,2.93,1.58h8.25c3.79,0,7.09-.82,9.9-2.48,2.81-1.65,4.64-3.53,5.5-5.63,1.22-3,2.08-6.08,2.57-9.23.49-3.15.85-6.08,1.1-8.78.24-2.7.52-4.95.83-6.75.3-1.8.95-2.7,1.93-2.7,1.47,0,2.2,2.1,2.2,6.3,0,5.71-.15,12.31-.46,19.81-.31,7.51-.46,15.76-.46,24.77,0,10.51.09,18.99.28,25.44.18,6.46.28,10.74.28,12.83,0,5.4-.73,8.11-2.2,8.11-.73,0-1.31-.82-1.74-2.48-.43-1.65-.8-3.9-1.1-6.76-.31-2.85-.7-6.15-1.19-9.91-.49-3.75-1.22-7.88-2.2-12.38-1.47-6.9-3.42-11.1-5.87-12.61-2.45-1.5-5.62-2.25-9.53-2.25h-8.07c-1.35,0-2.23.53-2.66,1.59-.43,1.06-.64,3.25-.64,6.57v93.41c0,6.35.18,11.41.55,15.19.37,3.78,1.04,6.65,2.02,8.61.98,1.97,2.32,3.33,4.03,4.08,1.71.76,3.91,1.13,6.6,1.13s5.35-.3,7.61-.9c2.26-.6,4.31-1.8,6.14-3.6,1.83-1.8,3.48-4.43,4.95-7.88,1.47-3.45,2.93-7.88,4.4-13.28,2.2-8.4,3.85-15.68,4.95-21.84,1.1-6.15,2.38-9.23,3.85-9.23.37,0,.76.53,1.19,1.58.43,1.06.64,1.88.64,2.48-.12,3-.25,5.71-.37,8.11l-2.02,43.68c-.12,3.41-.25,6.02-.37,7.84-.12,1.82-.37,3.3-.73,4.43-.37,1.13-.89,1.84-1.56,2.15-.67.3-1.68.45-3.03.45-3.79,0-9.57-.58-17.33-1.72-7.76-1.15-17.57-1.73-29.43-1.73-5.5,0-9.69.35-12.56,1.06-2.87.7-4.68,1.05-5.41,1.05-2.69,0-4.03-2.4-4.03-7.21,0-3.9.73-5.85,2.2-5.85s3.36-.45,5.68-1.35c2.69-.9,4.28-3.6,4.77-8.11.49-4.5.73-11.1.73-19.81V35.13c0-6.9-.15-11.71-.46-14.41-.31-2.7-1.31-4.8-3.03-6.3-.98-.9-1.96-1.35-2.93-1.35s-1.83-.15-2.57-.45c-.73-.3-1.32-.82-1.74-1.58-.43-.75-.64-2.32-.64-4.73,0-4.2,1.04-6.3,3.12-6.3.73,0,3.36.3,7.88.9,4.52.6,11,.9,19.44.9,10.76,0,19.13-.3,25.12-.9,5.99-.6,9.59-.9,10.82-.9,2.44,0,3.91,1.06,4.4,3.15.49,2.1.73,5.56.73,10.36v40.53Z"/>
    </g>
  </g>
</svg>