<?xml version="1.0" encoding="UTF-8"?>
<svg id="Livello_2" xmlns="http://www.w3.org/2000/svg" version="1.1" viewBox="0 0 1565.8 918">
  <!-- Generator: Adobe Illustrator 29.1.0, SVG Export Plug-In . SVG Version: 2.1.0 Build 142)  -->
  <defs>
    <style>
      .st0 {
        fill: #c1272d;
      }
    </style>
  </defs>
  <g id="Livello_1-2">
    <g>
      <g>
        <g>
          <path class="st0" d="M1488.7,427.9c5.6-2.2,8.6,3.1,11.6,8.3,2.8,4.7,3.4,3.3,2.1-.4,1.3-1,2.3,3.1,3.9,2.1-4.1-10.8,1.4-1.2,6,2.3-4.5-13.6-16.4-13-25.3-19.5-2,.6,2.5,2.9.3,3.6-3.7-2.4-1.2,4.1,1.4,3.6h0Z"/>
          <path class="st0" d="M1491.4,442.6c0,5.5,5.9,2.8,7.2,7.5,9.2-1.3-4.8-11.9-7.2-7.5Z"/>
          <path class="st0" d="M1467.7,407.3c-5.8-2.9-10.6-9.3-17-11.1,4.5,8.3,10.6,10.4,17,11.1Z"/>
          <path class="st0" d="M1323.1,715.8c3.9,4.8,6.9,8.5,10.4,12.8-.8-6.2-3.4-10-10.4-12.8Z"/>
          <path class="st0" d="M1502.4,500.7c-29.5-32.7-40.8-38.1-65.8-55.6,0,3,.9,7.8-3.2,1.5-13.2-11.1-33.9-19.1-50.7-20.6-28.4-9.9-60.2,36.1-18.1,49.3,37.1-24,103.8,27,139.7,70.1,12.7,8,0,12.3,22.8,16.3,1.9-7.2,13.5-3.1,17.8-8.5,2.3-3.4,8.3,6.1,10.4-1.5,2.6,10.7,7,4.3,10.6,5.9M1395.3,459.1c9.4-5.4,31.4,9,44.3,16.4,9.5,12.6-38.3-13-44.3-16.4Z"/>
          <path class="st0" d="M1535.5,469.7c11.3,20-10.7-12.5-33.2-13.8-72.8-41.6-128.1-90.8-194.9-63-117.7,92.1,130.8,207.9,169.6,318.5,6.8,40.1,5.3,70.7-30.9,81-10.9.7-27.7-7-33.5,1.7-4.4-10.8-8.6-3.3-12.1-7.1-2.7-2.8-7.7-4.8-8-3.4-.9,3.8-1.7,1.9-3.7-.5-1.8-2.1-4.6.3-6.4-3.5,5.7,16.7-1.2.5-9-4.5-32.8-12.9-62.6-37.9-92-63.5-6.6,61.8,89.3,87.2,135.6,109.2,15.1,4.5,32.9,11.4,41.8,5.8,7.1,7.7,8.5-4.7,15.9,2.8,4.2,2.5,3.2-3.9,7.6-.4,21.1,4.1-2.4-19.3,14.5-2.9,85.1-32,26.6-165.8-73.6-238.5-32.3-35.2-94.5-76.2-86-118.1-14.7-66.6,45.7-52.9,93.1-36,25.8,19.7,56.2,35,78.7,66.7,8,12.8,15.8,2.1,24.1,4.3M1317.7,517.9c4.8,5.2,8,9.1,8.2,14-2.9-4.2-7.1-7.7-8.2-14Z"/>
          <path class="st0" d="M1364.4,488.3c-2.7-.4-5.5-1.8-7.8-1.2-7.2,4.7,8.9,10.4,7.8,1.2Z"/>
          <path class="st0" d="M1342.3,736.6c3.8,10.3,32.4,20.1,44.7,26.4,17,7.4,28.3,7.8,36-3.4-18.9-.2-38.9-7.2-58.8-17.8-11.6-4.2-42.1-29.2-21.9-5.2h0Z"/>
          <path class="st0" d="M1381.8,367.5c1.3-2.3,5.2,4.1,5.7,4.5,2.6-3.1,3.8,1.7,5.3,3,9.7,7.9,12.2-5.8,17.9,10.2-2.6-11.5,8.2-.4,12.2,3.6,6-2.4,15.6,13.9,17.9,5.9,2.4,2,3.4,5.7,6.7,7.2-5.7-9-3-9.7,3.1-.4-2.6-15.7-73.2-46-72.7-34.1-4.9-3.5-2.2,2.4-3.9,2.8,3.5-1.2,11.7,8,7.8-2.8h0Z"/>
          <path class="st0" d="M1348,752.7c20.1,17.7,39.6,22.4,59.8,27.6,7.3-3.7-49-21.8-59.8-27.6Z"/>
          <path class="st0" d="M1271.3,384.8c0,1.5,2.3,3,1.5,4.3-2,1.1-6-6.8-4-.7.5,5.9-2.8-3.4-4.4-.7-16.2,15.3,23.6,10.5,6.9-3h0Z"/>
          <path class="st0" d="M1457.6,729.6c8.8,2.4,6.2-4.5,5.5-10.4,14.6,12.7,3.9-21-.6-28.4-50.5-80.7-147-125.9-186.6-214.8-28.5-59.8-21.5,5-2.7,35.9,18,50.2,71.8,99,113.9,136.9,26.1,24.2,54.6,51.5,70.4,80.8Z"/>
          <path class="st0" d="M1452,749.9c8.1,12.2,13.3-2.4,1.7-6.9-5.2-1.5,2,6.4-1.7,6.9Z"/>
          <path class="st0" d="M1375.7,380.1c14.5,8.8,35.7,10.7,52.9,22.9-7.2-9.4-42.3-25.1-52.9-22.9Z"/>
          <path class="st0" d="M1365.3,369c1.1-2.2-3.3-4.7-1.6-6.5,10.4,16.5,9.7-7-5-5-36.6-3.3-21.6-2.5,6.6,11.5h0Z"/>
          <path class="st0" d="M1269.3,664c-3.9-5.6,1.7-1.5,2.3-2.9-2.7-3-6.1-6.4-8.6-4.5-3.3,1.4,9.6,16.6,6.3,7.3Z"/>
          <path class="st0" d="M1376.8,809c-77.4-43.6-112.6-40.2-114.9-130.2-11.4-12.5-1.3,23-4.7,29.5,3.6,26.9-.8,57.3,24.9,80.7-5.7-3.6-10.2-4.9-4.4,3.4.9-.5,2.1-2.4,3.1.2,3.8,9.5,13.8,8.5,18.3,16.5,2.8-1,5.4-.9,6.6,3.2,24.6,25.1,108.6,54.5,38.7,15.4-36.4-17.7-37.8-29.4-.7-5.8,4.3,4.9,1.4-5.8,5.1-.6,5.3,7.6,23.2,16.7,26.9,12.9,3.1,4.6,8.6,8.4,10.3,4.2,2.2-.7,2.8,3.8,4.9,5.8,3.3,3,.7-5.2,4.4-.4,4.9,7,10.4,6.1,15.2,5.8,3.4,4.5,19.4,12.2,13.5,2.5,9.9,12.9,21.8,8.1,33.1,15.7,1.4,1.1,5.3-.3,5.6,3.8-21.8-1.4-58.7-13.5-87-26.5,11.1,23.2,34.3,17,53,28.9,9.2,5.1,6-8.7,11.1.3,6,6.8,6.7,4,7.5-.3,16.9,13.3,39.9,8.1,55.2,6,26.2-8.5,74.9-49.3,52.6-102.9-32.1,76.7-101,71.1-178.5,31.8h0Z"/>
        </g>
        <g>
          <path class="st0" d="M287,511.2c1.1-4.6.2.9,6.1,0-16.7-13.2-74.1-8-83,4,2.7.5,4.6-2.9,7.8-1,1.9,1.1,5.2-4.6,6.9.9,2.2-1.8,7.3,1,7.2-4.6,1.7,4.5,17.4,1.6,21.3-1.2,4.4-7.6,7,6.5,8.8-.2.9-.3,1.8-.4,2,1,.8,4.1,5.1-4.1,8,0-1.4-7.8,9.5,5.9,14.8,1.1h0Z"/>
          <path class="st0" d="M19.9,857.5c1.7,6.2-3.8,19.4,1.1,22.3,50.5-10.4,103.5-27,147-54,3.9-1,10.8-2.4,10.4-7.1,5.2.4,7.5,0,5.7-4.8,7.6,4.7,8.8-6.1,15.4-5.3,23.1-18.6,44-34.9,64-56.2,40.6-43.6,72.9-113.7,62.3-164.4,6.8-7.5,3.3-18.6.4-3.8-2.1-9-6.2-17.4-9.4-26.3-3.8-10.2-28.6-32.4-35.6-26.8-2.8-3-2.1-4.1-6.3-3.7-4.8-3.4-1.3.4-.8,3-2.1,0-2.6-1.5-3.4-2.8-27.4-9.4-79.3,8.3-98.7,28-3.6-3.5-18.8,5.9-18.2,12.2-2.1.6-2.9-2.1-2.9-1.9-1.3,4-5.4,2.4-7.9,3.8-5.6,4.1-7.8,1.3-13.4,0-3.4-2.6-2.4-12.3,1.6-13.3-7.1-6.2,2.4-20.3-.2-28.3,3.4-4.6,4.3-11.9,3.7-16.2,4-2,2-4.9,1.5-7.5,1.4-4.5,2.4-7.6,1.3-12,10.1-1.6,3.5-40.4,17.1-49.4,39.1-16.8,78.9-31.9,119.5-44.8,26-11.2,55.5,15.4,51.3-20.9.3-11.4,7.3-24.7-3.6-32.3-1.8,1.1.2,2.5,1,3.6-.5,4-4.4-6.6-9-1.3-1,.8-1.3,5.8-4.7,1.9-.1-.1-.4.4-.2.9,1.2,2.5-8.3,1.6-10.7,2.3-2.2-.6-4.4,5.9-7.7,2.2-1.3,1.1,1.4,2.2-.7,3.5-1.4-2.9-3.6-1.5-5.9-.7.5,1.5,2.7,2.6,1.2,4.7-6.5-6.8.3,1.6-1.6,3.2-2.5-5.9-6.6-6.2-11.6-3.3-.8,3.2,5.2,3.5,4.7,6.7-2.6,2.8-4.1-2.6-5.3-3.9-2.7-5.1-10.9,4.1-15.6,3.2-9.8-1.7,1.7,12.3-8.8,2.7-2.5-.2-1.9,4.9-5.8,2.3,4,5.4.7,3.4-2.5.4-.2,1.6-.2,1.5-1.8,1.5-4.1.4.8,2.3-.7,4.3-1.8-.8-2.2-2.8-3.6-4-2.3,3.2-6.4,1.7-5.6,6.6-5.1-.9-9.3,0-14,1.6-13.9,7.6-29.6,9.5-45.3,19.9-.3-.2-.4-1.9-2.1-1.4-1.4,1.7,2.6,2.3.3,4.5-1.5-6.3-6.1-2.8-9.4-.8-3.9,3.1-14.5,4.1-9.5,10.3-13.4-7.3-33,10.2-48.3,14.5-13.6,13.5-12.3,55.6-20.9,78.1-10.5,48.9-21.7,99.1-31.2,140.7-14.7,26.4,39.3,8.7,46.3-5.7,15-19.2,24.7-27.7,45.3-39.8,9.4-9.9,33.9-10.6,36-20.8,2.4,6,11.8,1.8,8.7-3,3.2,4.2,13.1,4.7,11.4-1.3,22,4.8,51.8,3.6,55.6,32.6,11.5,34-3.2,65.9-7,87.7-3.4,10.9-8.3,19.2-15.3,29.6-3,16,.2-1.1-11.1,15.5-22.1,23.7-9.3,9.9-3.5,31.7-4.3-5.9-16.4-22.9-8.5-7.1-3.2-1.7-3.6-4.9-6-6.7-4.1,3.8-3.4,14-7.2,6.7-1.3,7.8-16.3,8.3-14.9,16.8-1.6.6-1.8-1.9-3.4-.9.3,1.3,2.9,2.9.7,3.9-2.6-4.7-16.2,4.5-14,7.2,2.1,4.3-3.6,0-4.2-2.1-1.2,2.3,2.3,2.8.9,4.8-.3,2.1-3.2-4.3-2.8.8,0,1.1-.9.8-1.6-.2-.2-.4-2.6-2.2-2.7-.5-.1,2.8-4.3.7-3.7,3.5-4.7.6,2.3,3.5.8,7.1-2.4-2.3-3.7-7.6-6.5-6-3.4,4.8-15.8,2.3-14.3,10.4-3.4-1.6-4-5.8-4.1-.1-8.4-3.6,2.3,3.9-.8,6-6.7-6.6-5.5-3.6-14.9-3.6-23,9-48,4.9-71.6,4.7-22.6-22.1-11.1,22.6-14.3,36.8h0ZM281.6,636c3.5,2.1,4.7,5.9,6.8,9-1.8,1.3-8.7-7.7-6.8-9ZM229.5,762.4c1,2.9,4.7,4.3,5.1,8.7-3.1-2.9-5.4-5-5.1-8.7ZM179.6,796.6c-2.6.5-3.6-4.5-5.4-6.8,3.1.7,6.8,5,5.4,6.8ZM36.8,827.3c1.9,2.5,3.7,5,5.6,7.6-3.7-1.3-6-3.6-5.6-7.6Z"/>
          <path class="st0" d="M246,518.2c2,4.2,9.7-.3,14.4,1.5-2-4.9-11.8-3.5-14.4-1.5Z"/>
          <path class="st0" d="M57.9,805.7c3.2-11.9,4.9,6.1,6.4-2.5-8.2-8.6-21-3.3-6.4,2.5Z"/>
          <path class="st0" d="M55.3,814.1c-11.1,2,14.3,4.3,19.9.6-9.9-2.7-12.5,0-19.9-.6Z"/>
          <path class="st0" d="M234.9,519.7c2.6,1.2,5.2,1.6,7.7.1.7-.4,2.6,1.7,2.3-.9-2.1-4.5-6.4,1.6-10,.8h0Z"/>
          <path class="st0" d="M43.4,799.9c2,2.9,6.7,9.8,7.9,4.5,1.3-3.8-12.5-10.1-6.2-6.6,3.1,2.2.8,2.8-1.7,2h0Z"/>
          <path class="st0" d="M18.1,786.1c-.8.5-3-.4-2.1,1.6,3.4,11.7,18.6-6.3,2.1-1.6Z"/>
          <path class="st0" d="M337.4,562c2.3-.4,2.5,9.3,5.4,5.8-11.7-43.1-22.3-7.8-5.4-5.8Z"/>
          <path class="st0" d="M9.3,827.8c-3.3-7.8,4.4-12.8-2.6-17.6,1.6-2.3,5.6,2.7,2.5-4.3-2.4-2.5-2.2,4-4.8,1.4-2.2,3.7,1.7,9.2,2.8,12.9-5.5-.3-.5,4.3,2.2,7.6h0Z"/>
          <path class="st0" d="M7.7,842.1c0-1.6-3.4-2.3-1.2-4.2,1.4-1.2.9,2.4,2.7,1.3-1.1-7.2-3.2-12.2-6.3-14.9,6.5,7.2-5.8,13.6,4.9,17.8Z"/>
          <path class="st0" d="M294.5,721.6c-2.6,11.1-22.3,21.6-18.4,31.9-6.8-3.8-13.8,10.5-22.1,16.5-63.8,62.4-152.6,100.5-241.2,114.6-13.6-2.5,4.2-41.7-6.4-39.8-5.2-11.4-8.7,36.4-2.2,34.2-5.3,7-5.2,18-.8,26.8,5.4,8.5,48.7-9.3,29.4,2.3.5,4.6-1.1,2.2-2.4.8-19.6-1.9-35.1,13.6-4.4,7.9,5.2-5.2,22.2-1.3,21-7.8-3.1-8.2,2.8,2.9,4.8,1.7,6.4-5.6,20.1-2.5,23.7-11.3,2.1,0,1.2,2.8,3.1,2.8.3-4.7,15.5-.9,17.5-9.3,5.2,4.7,13.6-4.9,19.9-3.4-.6-2.6,2.3-3.4,3.2-5.6,2,.2.2,2.5,1.6,2.9,2.6-.2-.3-4.5,3.2-3.7,7.6.9,16.5-3.7,20.7-9.2,2.5,3.9,2.7,1.1,3.2-1,1.4-1.7,2.3,2.3,4.1,0,52-29.2,117.5-67.1,139-118.9,20.5-14.5,45.1-70,47.8-102,3.1-38.5-33.9,61.2-44.4,69.7h0ZM274.6,766.5c-.6-1.9-5.9-6.8-2.7-6.9,1.8,1.6,5.5,4.8,2.7,6.9Z"/>
          <path class="st0" d="M81.8,808c.3-2.3-2.3-6.3,1.4-3.6.9,5.4,4.8,1.5,5.4-1.8,1.7-.4,3.1-1,1.7-2.9-5.1-4.4-12.8,2.1-18.9,0-3.3-2-2.2,5.1-4.2,2.8.7-3.3-2.6-1.3-3.3-2.8.4,4.2,3.5,5,6,9-3.1-8.1,9.6-5.9,11.8-.6h0Z"/>
          <path class="st0" d="M228.4,710.8c-.1-2.2-4.6,0-2.1-3.5,2.9-6-2.4-9.5,0-16.8-4.1,10.4-9.6,17.7-13.4,27.5,0,13.6,10-9,15.5-7.2h0Z"/>
          <path class="st0" d="M337.1,324.1c-1.4-3.4,3.1,0,3.5-2.9-10-7.6-10.2,14.1-3.5,2.9Z"/>
          <path class="st0" d="M98.9,800.8c-3-1.2-2.9-5.8-6.3-3.2-2.4,1.6.3,2.9.8,3.9,2,3.4.9-1.7,5.5-.7Z"/>
          <path class="st0" d="M337.4,416.4c-4.1-1.6-11.9-.8-14.9-6.1-8.9-34.2-151.4,24.6-168.5,42.5,0,12-.1,25.3-2.5,37.4-1.5,2,2.5,5.3-1.8,7.5-.5,3.6-3.2,12.3-.3,15.9.3.2.4,1.5-.5,1.9-3.1,0-8,17.5-6.5,24.7,5.6-5.5,8.4-11.7,7.3-19.3.2-4.4,7.8-7.9-.6-9.8,7.9-2.9-.1-14.2,7.4-12.2-2.6-2-1.2-7.1-.9-8.9,5.7,2.5-1.1-8,5.2-7.5,1.3-12.5,15.2-13.8,22.6-19.7,1.1,2,11.2-.3,8.5-2.7.3-2.3,4.4,2.1,6.5-1.6,5.7-3.8,14-2.9,18.2-8.4.6-.3,5.4,1.7,5.6-1.1.8-4.3,31.7-3.4,27.2-14.5,3.8,5.3,2.8,3.6,7.1,2.3,3.6-4.4,10.2-1.3,15.4-4.3,3.4.1,5.3-.1,2.6-3.7,1.9-.7,3.3,4.6,5,0,1,3.5,11.9,1.3,9.7-2.7,2.2,2.1,3.3,4.8,6.4,3,3.6-4.5-7.8-7.1-11-4.7-1.4,2.7-6.8-4.9-1.6-3.6,3.8-.7,10.4-.7,10.5-4.7,1.7.5,2.1,4.1,5.2,2.2.7-.4,3.1.9,3.1,3.1-.1,3.7-3.4-.2-5.4,2,2.1,9.2,14.3,4.3,17.4,13.3,3.5,6.9,9.5,8.8,14.2,5-7.7-5.6,14.6-13.8,9.4-25.2h0Z"/>
          <path class="st0" d="M231.2,631.8c1.6,8.3,13.2,38.8,8.3,12.7,13.9,4.1,7.8-42-5-49-23.2-20.8-52.1-4.7-68.8-.9-3.4,1.7.3,3.7-1.1,5.5-16.2-5.3-46.7,25.8-55.4,31.8-16.2,30.7-47.2,30.5-77.2,40.9-12.4,0-6.9,23.3.5,18,.8-1.2,1.4-.7,1.7.4,12.5,4.8-2.2,1.8-1,8.9,3.4,2.8,5.5,1.8,6-1.7,2.1,1.7,6.7,1.4,6.5-1.8,0-.3.8-.5,1,0,5.1,3,15.1-2.5,21.3-3.9,3.6,2,4.6.2,5.6-3,.7,5,6.3,1.2,5.5-2.5,6.7,4.6,15.6-3.9,17.1-10.4,27.3-28.7,61.5-55.7,104-60.3,12-.4,26.1,4.1,30.8,15.4h0ZM59.9,682.6c4.4,3.7,1.8,4.1,5.8,1.1,7.8,5.7-6.3,5.1-5.8-1.1ZM193.4,607.1c6.3-1.7,12.5-2.8,19,1.2-4.1,2-28,4.8-19-1.2Z"/>
          <path class="st0" d="M103.7,797c0-1.3-.4-2.7-1.8-2.5-7.4.8,2,8.9,1.8,2.5Z"/>
          <path class="st0" d="M315.5,327.5c.4-3.1-3.2-.7-4.7-.6-7.1,2.6,1.8,3.6,4.7.6Z"/>
          <path class="st0" d="M150.6,539.9c-5.3,4.3-18.9,34.1-7.9,19.6-1.5-5.4,8.4-12,7.9-19.6Z"/>
        </g>
        <g>
          <path class="st0" d="M523,312.6c-4.4,2.3-9.1,3.9-14.9,4.8,4.5-5.1,10-4,14.9-4.8Z"/>
          <path class="st0" d="M541.3,310.4c-5.2,4.2-26.6,3.8-10.5,0,3.3,1.7,8.2-2.6,10.5,0Z"/>
          <path class="st0" d="M544.1,298.9c-2.3.2,2-3.4-1.5-1.9-3.8,1.7-8.7,2-11.1,6,1.7-7.7,23.9-11.9,12.6-4.1Z"/>
          <path class="st0" d="M507.2,306.3c2.5-3.8,5.9-5.8,10.2-5.9-1.5,4.7-8.2,2.1-10.2,5.9Z"/>
          <path class="st0" d="M553.3,297.6c2-3.4,4-6.5,9.3-5.4-1,4.8-4.8,5.6-9.3,5.4Z"/>
          <path class="st0" d="M561.3,298.1c4.1-7.8,16.5-11.4,7-.8-2.3.1-4.4-2.8-7,.8Z"/>
          <path class="st0" d="M621.4,286.5c-3.6-2.4-4,1.5-5.9,2.3-.2-3.5,3.9-4.7,5.8-7.3"/>
          <path class="st0" d="M614.8,290.4c-5.6,1.2-8.2,3.2-5.1-3.5-3,3.8-7.6,1.1-9.5,4.9-1.4-2,2.8-2.8,0-5.6-23.4,22.2-6.5-6.6-19.2,9.3-1.4,1.4-2.5,1.8-2.5-.5-6.6,4.7-3.4,1.2-2.1-2.8-2.4,1.2-6.4,7.8-8.3,5.1,3.5-.6,9.8-12.7,10.3-6.7,4-3.2,4.4-2.8,2.5,1.3,5.4-5.9,27.3-10.1,25-4.4,3.4-1.1,4.9-6.5,9.7-4.2-6.5,8.7,2.2,3.6-.9,7.1h0Z"/>
          <path class="st0" d="M606.7,298.8c-.9.8-2.6,2.5-2.8,2-3.5-2.9-14.4,4.6-18.4,1.2.2-2.5,24.8-7.5,21.2-3.2Z"/>
          <path class="st0" d="M622.6,294.5c-2.7,4.3-11,5-13.4,4.3-1.7-6.2,9.6-2.4,13.4-4.3Z"/>
          <g>
            <path class="st0" d="M490,309.9c-7.9-1.6,4.7-7.3,7-5,.4.5-7.5,6.6-7,5Z"/>
            <path class="st0" d="M450,319.1c2.9-8.3-1.8-2-6.4,1.7,3.4-9,17.1-10,6.4-1.7Z"/>
            <path class="st0" d="M480.2,312c-1.3-1.7-5.1,3.5-7.8,2.5-3.6-.8.7-2.9-.4-4.3-2,.1-2.8,2.8-5,2.3-4.9,10,.1-3.2-7.3,5,2.3-10.2,14-6.2,20.8-10.4.9-1.3,2.5-.2,3.3.4,2,.4-2.5,6.6-3.5,4.5h0Z"/>
            <path class="st0" d="M371.9,345c-.6-5.2,19.8-5.4,26.9-7.5-6.3,6-19.8,6.2-26.9,7.5Z"/>
            <path class="st0" d="M420.9,326.4c4.5-9.5-6.1,6.7-4.7-2.1-1.5,3.9-4.8,4.5-8.7,4.8-7.3,3.2-2.2-7.7,2.9-7.3,6,1.2,18-7.5,13.7.9,20-14.3,15.3,1.8-3.2,3.7Z"/>
            <path class="st0" d="M398.9,337.7c7.8-2,14.2-3.7,21.7-5.6-2.9,3.4-15.5,6.9-21.7,5.6Z"/>
            <path class="st0" d="M398.9,329.6c-7.2,7.7-3-7.1-8.3-.7-.6.5-1.3,1.8-2,1.1-5.2-4.2,0,4.3-3.6,3.2-4.3-2.8-3.8,4.6-8.1,3.2-5.2-1.6-9.6-.2-15.4-3.3,12.4-2.5,54.1-14.5,37.4-3.5h0Z"/>
            <path class="st0" d="M424,617.5c3.7-1.2-1.8,4.1,2.2,2.5.5-.2,1-1.7,1.8-.3,3,14.2-15.5,3.5-4-2.2h0Z"/>
            <path class="st0" d="M459.2,364.7c-3.8,18.5-29.1,14.1-43.2,20.6-4,3.1-10.7,1.7-14.4,4.2.8,2.5,4.9,2.3,7.6.9,7.9-1,17.7-3.9,25-4.1,3.2,4,5.6-4.4,9.8-2.1-4.3,4.9,2.5,7.2,3,3.7,4.1-2.8,4.7,5.6,3.1,8-7.1,8.2-10.6-12.4-23-3.8-.2.2-4.4,2.4-5-.8-8,6.2-11.9-.1-16.6,7.7-1.4-6.5-1.3,1.5-7-.7-12,5.6-28.5,13.6-37.8,16.9-4,4.9,3.8,8-10.4,12.6-2.1-2.3,4.3-7.8-1.9-7.6-21.9-14-1.1-9.5,8.8-25.8,19.2-21.3,81.4-46.9,101.9-29.7h0Z"/>
            <path class="st0" d="M519.9,360.4c11.1,14.7,26.1.3,38.5.1,4.2,1.1,7.9-3,11.7-2.3.6,2.5-2.2,4.1-4.7,4-5.8,2.4-13.7,3.9-18.7,6.8-.3,4.8-5.8-1.6-7.6,2.2,5.1,2.5,1.7,7.4-.3,4.5-4-.8-.5,6.9,1.6,8.3,8.5,4.2,1.4-15.3,13.7-12.9.2,0,4.1.3,3-2.8,8.3,2.1,8-5.1,14.7-.1-2.1-6.3,1.6.8,4.4-3.5,10.6,0,25.4.1,33.2-.9,4.9,2.6,1.2,8.6,12.8,6.8.4-2.9-6.5-5-2.2-7.5,8.2-21.4-3.6-8.8-17.8-19-22.7-10.7-76.3-7.3-82.2,16.3h0Z"/>
            <path class="st0" d="M615,330.8c-20.2-5-43.3,5.1-62.3.8-5.6,5.8-13.4,2.6-20.4,6.3-1.1-5.8-4.4,3.3-10.2,2.8-8.7,11.1-3,25.8-11,37-.7.7-1.5,1.6-2.4,2.8.9-.9,1.7-1.9,2.4-2.8,5.8-5.6,6.1,6.1.9,11.2.9,1.7,3-1,2.5.6.9,5.5-1.4,10.1-2.3,14.4,6.2,4.3-4.2,10.6-7.1,15.2,13.8-9.3,5.5-3.1,6.7,6,2.4,20.2-3.3,50.4-4,65.8,6.7,8.2-11.9,21.2-14.1,32.2,5.8-3.3,16.2-29.7,12.9-9-.8,23.8,3.8,44.8-7.4,63.1,7.6-5.7,7.2-6.3,3.8,1.7,7.6-5-.9,12.3,1.9,12.2,1.5-2.7,7.5,9.6,5.4,10-.1-4.6-5.5-1.3-4.3,2,13.7,20.4-46.4,18-64.4,24.5,4.9-11.9-.5-24.4,10.5-35.5,3.1-5.2-3.3.8-2.3-2.1,8.6-31.8-.9-72.4,13.1-101,.7-1.1,3.1-1.8,1.9-3.5-3.1-.2-2.6,3.9-5.5,3.6-5-12,7.2-57.2,2.3-55.7-.2-6.9,1.1-13.4,6.8-19.4-11.4,9.8-4.2.8-2.9-6.2-3.8-7.2-2.1-15.4,0-22.5-1.3-1.3-2.5-12.4,1.1-13.1-5-4.6,2.7-15.8-5-17.3-30.3-.2-67.2,7.6-94.2,23.7-8.3,2.8.7-17.6.2-22.6,4.3-11.4,23.5-5.6,33.4-11.5,8.1-1,19.6-7.4,25.7-3.4,8.2-4.7,20.5-7.9,8.9,2.8,3.9-1.1,5.5-5.3,9-4.1,3.5-1.6-2.6-2.1.2-3.8,4.9-2.5,9.8-3.9,14.6-2.2,7.2-3,26-9.9,27.8-2.2,10.8-11.1,13.1-8.5,5.8.8-.6.7-1.3,1.5-1.9,2.3.7-.8,1.3-1.6,1.9-2.3,8.2-9.2,19.1-10.7,31.6-12.9-4.4,6.2-.5,4,2.8-.3,5.6-3-1.1,3.4,7.5-1.4-6.9,10,1.5-1.4,5.3-1.5-10.2,12.7-6.3,7.7,5.1,1.2,2.9,4.7,4.6-.2,6.8-1.4,6.8-1.2-1.9,6.4-2.4,9.3,2.2-.2,2.9-1.9,4.2-2.6,6.8-11.5,35.4-19.4,25.6-2.3,18.3-10.6-8.5-12,33.5-16M491.9,415.8c-3.6,2.4-6.5,5.2-8.8,8.6,5.2-1.1,6.9-5,8.8-8.6ZM492.8,409.1c-4,4.5-7.9,7.7-9.4,12.1,2.7-3.8,8.5-6,9.4-12.1ZM482.8,424.5c0,.2,0,.3.2.1.2-.2.1-.2-.2-.1ZM472,571.8c.3,1.2-1.8,2.3-.1,4.1,3-4.2,14.3-13.9,2.4-7.2,1.3-3.1,5.3-5.2,5.4-8.8-4.8,5.1-24,23.9-7.7,11.8ZM472,436.3c4.3-3.4,9.7-6.2,10.7-11.6-5,3-6.6,8.1-10.7,11.6ZM482.4,417.2c-2.7,2.5-6.4,4.5-8.6,9.1,5.7-2.3,6.1-6.4,8.6-9.1ZM474.7,494.9c2.2-5.3,5.9,2.8,6.4-4.3-8.1-4.4-16.7,15.8-6.4,4.3ZM466,425c4.8-2,7-5.8,9.4-9.4-3.9,2.6-7,5.7-9.4,9.4ZM464.1,396c4.9-2.5,6.5-7.1,10-10.5-4.4,2.8-7.8,6.2-10,10.5ZM479,409c1,7.2,16.1-13.9,7.2-8-1.3,2.1-2,4.5-4.8,5.8-2.5-4.5.8-3.9,2-10-8.3,5.3-13.3,21.9-4.4,12.2h0ZM488.1,380.6c4.9-2.3-.4-5.3,2.3-7.5-4.5-.7-3.9,5.3-2.3,7.5ZM483.9,393.5c3.2-4.2,10.6-8.5,11.6-12.8-5.2.9-9,8.5-11.6,12.8ZM499.5,484.1c-2.3.4-3.7,2.6-4.4,4.3,1.9,4.1,11.5-1.2,4.4-4.3ZM503.7,398.2c-2.1,1.1-10.7,6.2-4.9,6.9.8-1.7,8.4-5.2,4.9-6.9Z"/>
            <path class="st0" d="M423.2,639.5c39.1-17.4,84.2-22.8,123.7-19.2,18.2,14.3-136.1,41.5-148.5,35.3-12.2-10.8,19.2-8.5,24.8-16.1h0Z"/>
            <path class="st0" d="M525.1,648.6c-37.6,5-71.6,13.2-109,21.1-1.4-10.6,130.9-34.9,109-21.1Z"/>
          </g>
        </g>
        <g>
          <path class="st0" d="M531,602.6c1.3-3.2,7.4-3.7,7.1-8.5-.3,1.9,3.6,2.1.8,4.7-2.6,1-5.9,6.1-7.9,3.7h0Z"/>
          <path class="st0" d="M845.2,487.3c.7-5.7-2.3-8.3-5.1-12,.6,5.1,3.5,7.8,5.1,12Z"/>
          <path class="st0" d="M834.1,462.9c-.2-5.1-4-8-4.7-12.5-1.9,4,1.1,10,4.7,12.5Z"/>
          <path class="st0" d="M812.3,419.4c.2-4.6-4.2-11.4-8.3-16.3,3.5,5.9,3.2,14,8.3,16.3Z"/>
          <path class="st0" d="M823,443c8.9,19.1.3-9.6-6.5-16.6-.9,7.3,4.3,10.9,6.5,16.6Z"/>
          <path class="st0" d="M796.7,365.3c-3,.6-1.7,1.1-.9,2,8.3,5.6-7.2,6.1,7.3,10.7,3.6,2.1,4.7,8.9-1.7,7.7,2.5,4.4,7.8,7.3,9.5,11-1.4,3.1-1.5,3.3.9,4.8,5.4,2.3.9,8.7,7.1,10.8,1.6,2.5-5.6,3.2,0,5.4,5.8,4.4,4.5,11.6,8.2,17.3,4.4,4.5,3.8,11.1,8.1,14.2,2.5,4.5,9.9,5.7,6.5,14.3,22,23.1-30.9-84.1-40.6-93,0-8.6-4.6-12.5-10.2-11.8,1.1,1.9,8.7,4.5,5.8,6.9h0Z"/>
          <path class="st0" d="M853.1,478.3c-1.8-5.1,3.4-2.1,2.4,2.2-4.4,11.2,7.4,15.5,11.5,22.8,6-3.6-8.6-20.4-9.4-26.4-.2-6.1-11.2-13.4-6.4-2.4-1.6,3.1-1.6,3.1,1.9,3.8h0Z"/>
          <path class="st0" d="M869.3,534.5c.8-5.5-5.5-14.1-7.8-16.8-2.5,5.4,6.4,10.7,7.8,16.8Z"/>
          <path class="st0" d="M798.8,392.7c2-4.4-3.2-4.3-2.8-7.5-1.8,4.1-.4,6.3,2.8,7.5Z"/>
          <path class="st0" d="M726.2,482.5c-2.2-1-3.5-1.5-7.1-.3,3.1,2.9,5.6,5.4,8.8,8.5.3-3.8-6.7-3.5-1.7-8.2Z"/>
          <path class="st0" d="M752.4,302c3.1-3-2.4-5.9-4.1-7.7-.3,3.1,2.6,7.9,4.1,7.7Z"/>
          <path class="st0" d="M740.7,482.3c-1,3.9-1.9,2.4-2.3.5-.8-2.7-5.4-2.1-6.1.9.3,3.5,6.8,7.1,2.4-.6,10.3,8.6,2.8-1.5,10.3,2.6,9.7-3.4.4-6.2-4.4-3.4Z"/>
          <path class="st0" d="M767.8,333.4c.8-5.8-3.4-8.6-5-13-3.2,3,4.2,9.1,5,13Z"/>
          <path class="st0" d="M757.6,290.9c3.1,1.6-4.2,2.9-1.5,4.3,17.1,16.6,17.1,49.8,40.7,62.4-14.7-25.5-24-48.3-38.2-75.1-2.9,3.2-3.5-.1-5.2-.8.2,4.1,0,8,4.3,9.2h0Z"/>
          <path class="st0" d="M867.9,513.1c4.6.8-1.9,7,2.9,8,.8,8.7,13.1,10.5,10.8,19.3-3,5.7,7,4.3,3,10.1,3.8,1.9,6.7,19.4,8.6,9.8,8.5,2.2-3.8,6.4,2,9.6,5,2.6,5.8,8.7,10.9,11-1.4,1.8-3.3.2-3.1.7,1.1,2.1-2.1,5.7,1,6.8,1.9.2.4,4-1.1,2.9-.5-1.1-1-1.9-2.4-.2,37.1,36.1-19.8-65.1-25.9-80.1-.7-11.8-16.5-3.5-6.7,2.2h0Z"/>
          <path class="st0" d="M683.5,371.2c-1.6-3.4,4.9-4.5,2.6-5.9-2-5.1-12.1,6.9-6.4,11.2-12.7-7.7,3.9,12.1,3.8-5.3h0Z"/>
          <path class="st0" d="M659,608.7c-4.5-1.7-5.6-4.9-3.3-9.6-12.4,3.7-7,11.4,3.3,9.6Z"/>
          <path class="st0" d="M918.7,654.3c11.6-4.8-6.8-9-9.2-13-5.8-4.1,11.7-3.2,15-5.4,15.4-6.1,5.8-16.8-5-15,5.6,11.1-11.7-9.3-21.4-6.7-14.2-6.3-131.4-3.2-74.7,16.1,14.4,1.7,15.8,6.2-.7,10.9,20.8,5,46.9,3,70,5.8,9.5.9,23-2.4,26,7.2h0Z"/>
          <path class="st0" d="M830.3,587.4c-8.8-17.3-8.7-51.4-31.7-57.7-28.2,5.7-134.8-20.1-139.7,16.1-5.1,12.2-24,34.6-15,47.1,7.9,5.4,19.3-5.3,12.3-12.1,4.2,1.1,3.8.9,7.2-3.9,2.8-4.5,2-11.4,7.1-12.6.4-.2,3-.9,2-2.8,7.4-2.7,22.3-2.3,31-1.1,21.2,3.4,36.9-3,55.5,1.5,2.9,1-1.3-2,1.2-2.8,2-1.1,1.6,1.2,2.6,1.6,5.8,3.2,40.4-5.6,45.1,14.6,3.1,7.7,11.6,32,22.3,12h0ZM765.5,556.3c-12.3-4-34.9-1.3-47.6-1.4-9.9,1.7-5.8-3.5-11.8,1.2-1.1-4.8-5.7.4-7.8-2.7-4.3,5.5-4.5-2.4-8.2-.2-3.6,1.2-12.4,3.5-13-.8,3-4.3,6.4-.6,4.8-7.4,21.6,11.6,53.2,2,77.3,7.7,5.4-2.4,19.5-.5,6.3,3.6h0Z"/>
          <path class="st0" d="M635.5,469c-1.8-2.6,2.9-6.5,0-8.6,1.5-.9,1.6,1.9,3.4.1-3.8-3.8-2.1-4.3,2.6-.9-1.8-3,3.1-5.9-.4-7.2,1.5-1.7,2.5,1.2,3.6-.9,1.5-3.3-4.7-1.6-3.1-5.1,4.8,2.4,5.8-1.5,4-5.4,3.2,1.2,7.1-2.2,4-5-.8-1.1-4.3-1.7-2.9-3.5,3.1-2.3,2.4,4.3,5.9,2.5,4.5-13.6,17.9-31.5,22.7-46,3.3-7.6,3.5-8.6-2.3-11.8-4.1,5,3.2,7.8-4,9.4-8.4,12.5-13.5,31.4-24.1,45.4-1,.8-.3,2.9.7,3.4,3.5,6.2-5.3-3.9-4.2,4.9-3,4.8-2.9,10.3-8.2,14.5-1.9.8,0,2.6.9,3.6.7,2.7-4.3-1.2-2.1,2.5.6,4.1-1.7.9-4,2.1,3.7,1.4,4.5,4.6,7.5,6h0Z"/>
          <path class="st0" d="M739.8,269.1c-1.8-1.5-3.5-3-7-1,.5,4,9.2,7.7,7,1Z"/>
          <path class="st0" d="M699.5,334.2c8.6,0,4.8-9.5,11-13.2,3.9-13,23.3-31.9,12.5-40.2-2,3.1,2.1,3.9-.8,4.9-4,1.4-1,1.7-.6,2.3-7.1,4.1-17.4,31.3-26.4,45.6-4.9,7.4,10.6,9.4,4.3.6h0Z"/>
          <path class="st0" d="M735.2,297.9c-2.1.3-.6,1.1-.2,1.6,2.7,1.4.3,3.8-1.1,1.9-4.7,12.8-19.2,32.4-15,38-1.6,2.2-8,.4-4.8,5.5,1.2,4.1-5-1.6,0,6.2-2.2.4-5.1-4.9-4.1.8-7-1.1,2,4.2,3.4,6.4,2.5.7,2.7,5.5-.6,3.1-3.3-5.1-8.1-8.7-6.4.5.5.7,1.6,1.1.7,2.1-6.4-3.8-12,11.6-10.5,18.5-7-1.6-4,4.2-8.3,10.3-8,14.1-20.4,30.1-19.1,45.1-5.1-4.3-15,16.7-10.1,17.7,4.7-6,12,8.1,3.7,3.5-.8,3.5,5.3,3.6,5.3,8.2-6.4-6.7-19.8-18.2-13.7,1.8-3.5-6.2-12.4,7.1-10.9,12.3-1.1,5.9-7.4,8.1-7.1,15-13.5,17.7-24.7,47.6-35.8,69.4-37.7,48.6-3.5,38.1,35.5,36.3-2.9-5.7-4.3-14.1-1-20.9,4.6-4.2-2.2-3.9-1.2-7.5,3.6,6.9,15.5-18.2,8.1-21.6.4-2.6,2.9,1.4,4.2,1.6,1.6-1.4-1.3-2,.3-3.3,5.9,2.5,8.5-13.4,12.2-18.3,19.4-15.3,135.5-9.8,157.3-1.8,4.1,22.6,34.9,48.2,17.1,71.8,1.6,6.3,11.2,2.5,17.3,4.4,56.5,3.3,45.7,6.4,27.6-36-15.2-31.7-34.4-64.5-46.7-92.4-3.1-11-13.6-18.3-14.6-30.3-6.2-19.9-21.7-36-27.2-54.6-11.2-10.4-13.5-35.6-26.4-48.5-6.4-15.9-15.4-34.4-24.9-48.5-2-2-1.5,1.6-3,1.8h0ZM633.9,558.6c3.5-1.8,4,4.3,5.9,5.8-3-.3-7.4-2.7-5.9-5.8ZM670.8,456.3c-3.6,1.9-3.4-4-4.7-5.8,3-.3,8.2,2.4,4.7,5.8ZM758.3,516.2c-2.7.5-3.3-2.3-5.5-4.9,4.6-1,10.4.6,5.5,4.9ZM745.8,377.6c-6-23.3,27.8,58.2,34,70.6,2.4,7,6.7,13.5,9.4,20,6.8-1.9,2.5,3.5,3,5.7,2.2,8.3-2.3,17.1,4.6,22.9-14.2,11.3-36.2,5.4-55.5,8.3-11.8.8-35.8-7.5-41.7,1.5-11.4-8.3-20.8,3.5-17.1-18.7-5.1-23.3,32.5-68.9,40-98.4.3-1-.8-2.1-1.5-3.8,4.5,2.1,4.4-5.1,8.4-4.6.2,0-2.2-1.3-1.1-3.6,2.6,3.3,6.8-.2,10.3-1,2.7,3.7,3.6-2.2,7.3,1.1h0Z"/>
          <path class="st0" d="M549.4,618.1c-33.1,16.1,112.1,16.6,102.3,3.7,2-3.6,3.9,5.4,7.5,0,16.7-21.5-93.1-17.3-109.9-3.8h0Z"/>
          <path class="st0" d="M688.9,479.4c1.2,3,3.6-.8,5.3-.3,3.8,6,5.2-6.4,7.6-2.6,14-1.5,18.9-35,31.2-51.5,17.5-11,20.8,60.3,47.7,55.6,10.2-14.2-16.6-37.4-18.8-54.3-9.9-9.1-10.6-57.5-33.4-35.7-13.6,30.1-31.7,66.1-39.7,88.7h0Z"/>
          <path class="st0" d="M760.2,481.1c2.8,3,5.4,6.3,9.4,8.6,1.1-7.6-5.1-7.1-9.4-8.6Z"/>
          <path class="st0" d="M572.2,589.2c4.1-4.1-4.1-3.4,2.2-8.5,7.9-3.2,16.6-19.1,14.4-26.3,1.6-1.7,2.9,1.4,3.2-.4.5-3.3,5.4-6.1,3.2-9.4-.3-.4-.4-1.3.7-1.6,5.8-3.3,8-12.2,5-15.6,3.3,2,3.4,2.7,4.7-2,4.8-13.8,35.9-51.9,20.5-56.2-8.5,20.4-21.8,38.6-28.5,58.8-3.9,4.6-17.6,22.1-9.2,29.4-9.2-5.5-16.2,16.5-18.3,28.6-5.9,3.8-1.9,11.8,2,3.1h0Z"/>
          <path class="st0" d="M561.2,640.4c2,5,10.7,1,14.8-.2,11.7,2.9,26.8-1.5,38.9.6,67.9-3.7-31.8-16.2-53.7-.5h0Z"/>
          <path class="st0" d="M750.4,482.1c3.2,6.4,6.4-3.8,8.8,3.6,8.9,8.4.1-8.2-8.8-3.6Z"/>
          <path class="st0" d="M691.2,354.7c9-3.3-3.8-15-2.5-5,3.6,1.8-2.7,3.9-1.1,5.5-9.7-3,4,20.6,3.5-.5h0Z"/>
        </g>
        <g>
          <path class="st0" d="M994.6,368.9c-.1-.2-1.2-1.1-1.3.2-.4,2.8-1.7-.5-2.5.7,1.1,3.4.3,16.1,4.9,8.8,2.7,2.9,2.8-.6,3-1.3,1.8-4.7,4.4-2.2,7.1-3.4,5.6,5.4,14-3.2,19.2,2.1,31.6,16.2,76.1,24.6,92,58.5,13.9,25.5,12.8-31.4-21.9-49.9-24.6-13.5-52.8-31.5-82.7-31-17.2-13.7-45.8,1.3-13.5,13.5,0,.5-3.2,3.3-4.4,1.6h0Z"/>
          <path class="st0" d="M1117.9,457.5c-2.6,3.5.4,9.3,4.7,7.1,3.1-4.2-2.6-5.2-4.7-7.1Z"/>
          <path class="st0" d="M947.9,555.5c7.4,11.5,2.2,28.7,1.5,42.4.2,2.3-6.2,6.2-1.3,6.7,3.3-1.4.5-7.2,3.1-1.7,3.2,1.2-2.5,5.7-1.7,9,.6,8.8,1.8,3.6-4.6,9.6,19.7,9.2,47.6,10.8,68.5,17.6,3.4-4.3-12-19.8-2.2-16.8-21.4-87.1-23.8-181.2-30.8-275.3,21.2-5.9,45.8,4.9,64.3,8.2.6-2.1,1.6-.6,1.4,0,3.7,4.3,13.8,6.1,20.3,5.4,9.7-2.9,1.1,6,14.9,11.3,12.9.9,37.9,24.2,45.4,41.6,7.4,8.9,3.6,24.9,12,32.8-2,.4-2.3-1.5-3.8-1.3,1.1,4.4-3,9.2-2.3,12.5.6.4.7-.1.8-.4-.4-2.8,4.1.3,1.8,1.4-2.2,5.9-.7,15.3-6.5,20.3-2.9,1.7-5,3.6-3.8,7.4-95.2,26.4-96.9-45.8-7.8,106.6,29.8,41.3.9,6.2,37.6,50.8,18.5,22,43.8,30.1,69,39.5-4-16.7-29.6-45.5-41.1-68.8-28.5-40.6,2.5,9.3-26.2-34-9.6-14.7-21.6-27.6-25.9-42.7,9.2,3.5-4-6.1-2.8-9,1.3-1.8,1.6-1.8,0-3-9.9-11,12.6.7,12-8.1,1.4,8,52.4-8.5,42.2-13.4-1.9-4,3.9,2,4.6-1,1.5-2.7,5.9-5.6.8-8.5,5.6,2.7,8.8-4.7,2.7-8,11.7,3,4.3-21.4,5.1-30.1-5.8-25.2-21.2-52.2-42.5-66.2,2.1-3.3-1.8-3.7-2.7-5.5-1.4-2.7-2.6,1.2-4.1.3-2.2-1.2,2.6-2.7-.2-4.1-6.1,0-47.6-38.4-43.4-25.2-1,.7-4.6-2.7-3.1-4.1,0-.1-1.2-1.5-1.6-1.4-5.3,1.2-5.6-6.3-11.2-4.6-1.2.5-2-4-4.4-.5-26.2-14.3-63.6-23.2-95.2-26.8-16-9.1-42-9.6-58-14.9-16.1-1.3,3.3,22.8,1.5,34.8,7.5,68.9,19.9,170.7,17.6,217.4h0ZM1090.4,517.5c2.4,2.3,4.4,4.2,7.2,6.8-3.9-1.1-6.4-3.7-7.2-6.8ZM1160.6,609.5c-2.1-2.4-4.3-3.4-5.8-6.6,3.5,1.4,5.6,2.7,5.8,6.6ZM1157.9,609.4c-3.1-.9-6.2-3.5-6.7-5.7,2.1.5,2.2.6,6.7,5.7ZM1151.2,603.6s0,0,0,0c0,0,0,0,0,0,0,.1,0,.2-.1.1h0c0-.2-.1-.3.1-.1ZM1151,603.4c-3.9-2.4-7.2-5.5-9.5-9.4,3.3,3,7.9,4.9,9.5,9.4ZM1139.8,603.8c-1.6-.5-7.6-4-6.5-6.8,2.1,1.7,7.7,4.2,6.5,6.8ZM1138.4,598.9c-2-2.5-5.8-3.2-6.7-6.7,3.6,1.1,4.7,4.3,6.7,6.7ZM1131.2,553.9c-3.5-2.6-6.5-5.1-8.2-8.7,2.6,2.9,7.8,3.6,8.2,8.7ZM1184.5,485.8c.6.6.8,1.4,2.2.1,6.3.5-.2,4.4-3.8,1.7-2.1-1.1,0-3.9,1.5-1.8h0ZM1165.3,498.5c-3.3-1.5-5.9-3.8-6.9-6.1,1,1.5,9.4,3.8,6.9,6.1ZM1147.7,409.1c2.7,1.5,4.8,3.3,6.1,6-2.7-1.3-6.3-2-6.1-6ZM1148.4,395.6c8.5,3.9,3.3,9.2-.5,1-5.8-3.5-1.7-6.4.5-1ZM1142.9,429.5c-2.9-2.6-7.2-3.9-8.4-8.1,2.7,2.8,6.4,4.7,8.4,8.1ZM1109.9,366.2c-3.6-1.5-6.2-3.7-6.7-7.5.8,3.7,6.4,3.5,6.7,7.5ZM1104.2,369.4c7.2-1.7-8.5-9.8-11.7-14.6,11.6,2.5,28.5,29.7,11.7,14.6ZM1092.4,353.7c-3.1-1.3-5.9-2.9-6.9-6.1,2.4.6,4.9,2.7,6.9,6.1ZM1089.8,363.8c-5,.3-6.1-2.5-8.2-5.4,4.2.6,5.3,3.6,8.2,5.4ZM1077.9,364.6c-2.5-1.5-4.9-2.8-6.7-4.6,0,0-.2,0-.1,0,0,0,0,0,0,0-1.1-1.1-1.9-2.3-2.4-3.9,3.5,2.6,7.2,4.4,9.1,8.6h0Z"/>
          <path class="st0" d="M913.7,305.6c1.3-9.1-16.2-14.5-26.3-15.9,1.3,5.2-1.6-1.8-4.2.5.3,5,6.7,10.7,12.8,12.1,3,.7,5.9,5.6,4.1,6.8-3.5,2.3-.9,3.5.4,4.5,11.2,9.7,14,24.4,17.8,37.7,4.9,18.6,6.1-43.8-4.5-45.9h0Z"/>
          <path class="st0" d="M1193.8,306c1.2-2.4,3.8-2.9-.2-4.5-7.6-2.9-3.2,4.2.2,4.5Z"/>
          <path class="st0" d="M938.4,552.5c1.5-3.3-1.3-4.4-2.6-6.6-.5,3-.2,5.2,2.6,6.6Z"/>
          <path class="st0" d="M1088.7,475.8c-10.3,1.5-20.8-3.4-30.9-2.5-.8,5.6,2,1.6,4.9,2,7.3,4.4,21.7,10.4,31.1,5.6.8-2.5,4.1,2.2,4-2,.7,1,.1,3.2,2.6,2.4,4.2-1.1-2.5-3,1.8-4.2,12.2-9.1-7.5,0-13.4-1.1h0Z"/>
          <path class="st0" d="M898.7,501.1c2.9,5.2,5.9,10.3,8.8,15.5-2.6-4.5-3.9-14.4-8.8-15.5h0Z"/>
          <path class="st0" d="M1065.2,485.5c10.2,6.6,29.1,3.9,41.9-.1-13.3-.8-29.8,3.5-41.9.1Z"/>
          <path class="st0" d="M896.4,495.4c-1-4.7-4.7-8-6-12.6-1,5.5,4,8.3,6,12.6Z"/>
          <path class="st0" d="M929.3,627.7c-2.2,2.4-2.8,1.7-3.9.1-.8,7.1-2.9-3.1-8.6,0,2,5-.5,2.4-3.5,0,2.3,4.9,1.9,4.3-2.4,1.1,1.4,11.5,44.7,14.3,18.8,20.2,28.3,10.8,67.7,14.1,99.2,24.9,5.4,1.1,0-7.6-3.5-7.4,4.9-1.3,9.7-1.8,14.1-.2,6.7,4.1,21-6.4,10.9-9.9-11.9.4-20.3-8.8-30.5-10.4-16.4-6-42.6-14.9-61.3-13.9-6.3-3.6-20.6-9.3-29.4-4.7h0Z"/>
          <path class="st0" d="M934.2,602.5c-5,5.3,3.3,10.1,8.8,6.3-4.5-.7-5.5-4.6-8.8-6.3Z"/>
          <path class="st0" d="M1031.5,632.2c-5.7-8.7-1.6-10.5-5.7-.4-6.8,5.6,7.1,4.8,5.7.4Z"/>
          <path class="st0" d="M1263.3,705.8c3.2-.6-.8-1.8.4-3.3,2.4-4.1-1.5-13.9-6.6-13.1-3.6,1.5-1.2-4.9-5.3-2.6-4.2.9,3.8,8-1.7,6.3-.9-.5-1.2-2.4-3.1-.5.9,8-2.9-.2-8.6.6,2.5,2.7,5.9,3,5.9,7.2-5.8,2-10,7.9-.1,3,4.1.8,2.1,6.3-1.2,8.9,9.5,2.5,4.8-9.4,11.1.8-1.6-3.2,2.7-1.4,3-3.3,2.1-5.3,3.5,7.1,8,3.2,3.3-2.7-5.2-5.8-1.9-7.2h0Z"/>
          <path class="st0" d="M1240.8,713.2c-.8-12-10.5.3-4.4-14.5-5.7-1.7,1.7-2.7.2-4.9-8.3-7.8-22.1-8.5-34.3-13.2-49.2-8.3-33.5-4.2-69.3-49.9,2.6-2.5-.7-3-1.4-4.4-.4-4.4-4.2-5.9-6.2-8.7-2.2-5.3-5.6-15.5-11.3-14.9-17.4-37.1-48.4-80.9-73-114.5-40-35.6,5.8,36.2,15.6,48.3,36.2,57.6,26,36.2,62.1,94.1,10.3,18.1,27.2,36.5,38.4,50,1.3,1.4,1.2,0,1.4-.8,1.9-.4,7.2,5.3,7.9,8,0,3.2,2-2,3.1.8,4.1,6.3,13.3,7,18.8,11.5,15.2,11.1,37.3,14.7,57.3,19.1,4.2,2,3.8,2.6,8.3,1.5-4.1-3.4-13.2-1.6-13.2-7.4h0ZM1111.4,613.8c3.7,1.3,5.2,4.7,7.9,7-3.8-1.2-5.5-4.5-7.9-7ZM1122.3,628.8c-4.3-3.1-2.7-4.8,1.4-1.3,3,1.9.2,4.8-1.4,1.3ZM1123.7,627.4c.1,0,.1,0,.1.1,0,0-.1-.1-.1-.1ZM1117,619.8c-1.1-4.8,5.9,4.1,7.7,5,2.5,6-6-3.5-7.7-5Z"/>
          <path class="st0" d="M1030.6,468.9c3.2-1.2,2.6,1.3,3.4,2.7,7.3-3.8-8.2-8-3.4-2.7Z"/>
          <path class="st0" d="M938.9,292.5c.3-1.8-1.5-2-.6-3.8,2.8,1.9,5.3,4.3,9.5,2.3-9.7-4-26.7-6.3-8.9,1.5h0Z"/>
          <path class="st0" d="M1138.6,527.3c-1.3.9-1.7-1.2-2.9-.4-1.8,8,8.4,6.2,12.9,9.2,7.2,5.8,17.1.4,25.8,2.2-4.4,3.3-11.7,1.8-14.5,6.5-1.5,1.1.8,6.1,2.1,3.9,4.4-6.5,16.4-.6,21.4-8.4,14.4-6.7,21.3-19.2,26-34,1.6-7.7,6.7-18.2,1.1-22.7,2.1.9,3.2-.1,1.6-1.6-2.8-1.6,2.5-4.9-1.2-5.2-2.3-.7-2.2-2,0-1.8-3-7.8-5.3,8.2-9.7,11.4-15.6,48.4-61.7,27.8-62.6,40.9h0ZM1150.3,523.4c4,1.5,4.9,4.8,7.2,6.8-2.1-2.1-6-2.7-7.2-6.8Z"/>
          <path class="st0" d="M1182.7,398.4c.3,3.1-3.7,8.2.1,13,.7-11,2.8,1.7,9.6.3,11.9,20.1.7-7.2-7.7-13.3-6-10.7-14.5-6.4-2,0h0Z"/>
          <path class="st0" d="M1061.1,318.3c-1.6-3.6-11.4-3.4-15.8-5.5,1.2,3.8,11.2,4,15.8,5.5Z"/>
          <path class="st0" d="M961.6,295.6c-2.3-3.1-2.3-3.3-3.8-2.7-9-4.4-2.1,3.5,3.8,2.7Z"/>
          <path class="st0" d="M1030.7,311c12.7,4.1,13.4.9.2-1.6-1.2-.5-1.7,1.6-.2,1.6Z"/>
          <path class="st0" d="M1147,547.8c.3-2.5,1.3-1.1,2.5-.4.9-2.3,10-7,2.1-6.2-2.3,1.6-4.9-2.4-6.2-.5.4,1.9-1.7,7.6,1.6,7.1h0Z"/>
          <path class="st0" d="M1154.4,554.2c-1.1,2.4,3.1,2.7-1.3,5.4,32.2,44.9,7.7,6.4,48.8,70.1,2,1.3,3.9,2.5,3,5.3,2.4,2.2,10.7,2.9,9.5,9-10.5-3.7,18.7,23.7,20.7,28.6,13.6,8.8-9.2-26.8-18.4-30.9,1.6-20.5,3.3,9.8-12.7-22.3-12.9-18-23-38-38.5-53.8,5-1.2-4.4-15.7-11.2-11.6h0ZM1176.8,585.7c2.1,1.9,5.3,3,5.8,6.1-2.8-1.5-5-3.2-5.8-6.1ZM1181.2,582.5c-2.9-1-6.1-3.4-6.2-5.4,2.6-.7,4.7,3.1,6.2,5.4Z"/>
        </g>
      </g>
      <g>
        <path class="st0" d="M862,691.8c.7.5,1.3,1,1.9,1.5s1.2.9,1.9,1.4,1.2.9,1.9,1.4,1.3,1,1.9,1.5,1.4,1,2.1,1.6,1.5,1.1,2.3,1.8c-.7.8-1.3,1.5-1.8,2.2-.6.7-1.1,1.3-1.7,1.9s-1,1.2-1.5,1.8c-.5.6-1,1.2-1.5,1.7-.5.6-1,1.2-1.5,1.7-.5.6-1,1.2-1.5,1.8s-1.1,1.3-1.7,2c-.6.7-1.2,1.4-1.8,2.2,1-.3,2-.7,2.9-1s1.8-.6,2.7-.9c.8-.3,1.7-.5,2.5-.8s1.6-.5,2.4-.8c.8-.2,1.5-.5,2.3-.8.8-.2,1.6-.5,2.4-.8s1.6-.5,2.5-.8c.8-.3,1.7-.6,2.7-.8.9-.3,1.9-.6,2.9-.9.8.6,1.6,1.2,2.3,1.8.7.6,1.4,1.1,2.1,1.6.7.5,1.3,1,1.9,1.5s1.2,1,1.9,1.4,1.2,1,1.9,1.4,1.3,1,1.9,1.5,1.4,1,2.1,1.6c.7.6,1.5,1.2,2.3,1.8-.1-.9-.2-1.7-.3-2.4,0-.8-.2-1.5-.3-2.2,0-.7-.2-1.4-.2-2,0-.7-.2-1.3-.2-1.9s-.2-1.3-.2-1.9c0-.7-.2-1.3-.2-2s-.2-1.4-.3-2.2c0-.8-.2-1.6-.3-2.4,1-.3,2-.6,2.9-.9s1.8-.6,2.7-.8,1.7-.5,2.5-.8,1.6-.5,2.4-.7c.8-.2,1.5-.5,2.3-.7.8-.2,1.6-.5,2.4-.7.8-.2,1.6-.5,2.5-.8s1.7-.5,2.7-.8c.9-.3,1.9-.6,2.9-.9-1.1-.2-2.1-.3-3.1-.5-1-.2-1.9-.3-2.8-.4s-1.8-.3-2.6-.4-1.7-.2-2.5-.4-1.6-.2-2.5-.3c-.8-.1-1.7-.2-2.5-.4-.8-.1-1.7-.2-2.6-.4-.9-.1-1.8-.3-2.8-.4s-2-.3-3.1-.4c-.1-.9-.2-1.7-.3-2.4,0-.8-.2-1.5-.3-2.2s-.2-1.4-.2-2c0-.7-.2-1.3-.2-1.9s-.2-1.3-.2-1.9c0-.7-.2-1.3-.2-2,0-.7-.2-1.4-.3-2.2s-.2-1.6-.3-2.4c-.7.8-1.3,1.5-1.8,2.1s-1.1,1.3-1.7,1.9c-.5.6-1,1.2-1.5,1.8-.5.6-1,1.2-1.5,1.7-.5.6-1,1.1-1.5,1.7-.5.6-1,1.2-1.5,1.8-.5.6-1.1,1.2-1.7,1.9-.6.7-1.2,1.4-1.8,2.1-1.1-.1-2.1-.3-3.1-.4s-1.9-.2-2.8-.4-1.8-.2-2.6-.3c-.8-.1-1.7-.2-2.5-.3s-1.6-.2-2.5-.3c-.8,0-1.7-.2-2.5-.3-.8,0-1.7-.2-2.6-.3s-1.8-.2-2.8-.3c-1-.1-2-.2-3.1-.4.8.6,1.6,1.2,2.3,1.8.7.5,1.4,1.1,2.1,1.6h0Z"/>
        <path class="st0" d="M641.7,793c-.6,0-1.2,0-1.8-.1s-1.2,0-1.8-.1-1.3,0-2-.2c-.7,0-1.4-.1-2.2-.2-.4,0-.9,0-1.3-.1s-.8,0-1.2-.1c-.4,0-.8,0-1.2-.1-.4,0-.8-.1-1.1-.2-.7-.1-1.4-.2-2.1-.4-.7-.1-1.3-.3-1.8-.4-.6-.2-1.1-.3-1.6-.5-.5-.2-1-.4-1.5-.6s-.9-.4-1.3-.6c-.5-.3-1-.6-1.5-.9-.5-.3-.9-.6-1.4-.9-.4-.3-.8-.6-1.2-1-.4-.3-.7-.7-1.1-1-.3-.3-.6-.7-.9-1-.3-.3-.5-.7-.8-1-.2-.3-.4-.7-.6-1-.2-.3-.4-.7-.5-1s-.3-.7-.5-1.1c-.2-.4-.3-.8-.4-1.1s-.2-.8-.3-1.2c0-.4-.2-.8-.2-1.2,0-.4-.1-.8-.2-1.3,0-.4,0-.8,0-1.1s0-.8,0-1.2c0-.4,0-.8,0-1.2,0-.4,0-.8,0-1.2,0-.4,0-.8,0-1.2,0-.4,0-.8,0-1.2,0-.4,0-.8.1-1.2,0-.4.1-.8.2-1.2,0-.4.1-.8.2-1.2,0-.4.2-.8.2-1.2s.2-.8.3-1.2c0-.4.2-.8.3-1.2s.2-.8.3-1.2c.1-.4.2-.8.4-1.2.1-.4.3-.8.4-1.2.1-.4.3-.8.4-1.2.2-.4.3-.8.5-1.2.2-.4.3-.8.5-1.1s.3-.7.5-1.1.3-.7.5-1.1h0c.2-.4.3-.7.5-1.1.2-.3.4-.7.5-1,.2-.3.4-.7.5-1,.2-.3.4-.7.6-1,.2-.4.4-.7.6-1.1.2-.4.4-.7.7-1.1.2-.4.4-.7.7-1.1s.5-.7.7-1.1c.2-.4.5-.8.7-1.1.2-.4.5-.8.7-1.1l.8-1.1c.2-.4.5-.8.8-1.2.3-.4.5-.8.8-1.2.3-.4.5-.8.8-1.2.3-.4.5-.8.8-1.2.3-.4.6-.8.8-1.2.3-.4.6-.8.9-1.2s.6-.8.9-1.2.6-.8.9-1.2.6-.8.9-1.2c.3-.4.6-.7.8-1.1s.6-.7.9-1.1.6-.7.9-1.1c.3-.3.6-.7.9-1.1s.6-.7.9-1,.6-.7,1-1,.6-.7,1-1c.3-.3.7-.7,1-1s.7-.7,1-1c.3-.3.7-.7,1-1s.7-.7,1.1-1c.4-.3.7-.7,1.1-1,.4-.3.7-.7,1.1-1s.8-.7,1.1-1,.8-.7,1.2-1,.8-.7,1.2-1c.4-.3.8-.7,1.2-1s.8-.7,1.2-1c.4-.3.8-.6,1.2-1,.4-.3.8-.6,1.2-.9s.8-.6,1.2-.9c.4-.3.8-.6,1.2-.9s.8-.6,1.2-.9c.4-.3.8-.6,1.3-.9s.9-.6,1.3-.9c.4-.3.9-.6,1.3-.9.4-.3.9-.6,1.3-.9.5-.3.9-.6,1.3-.9.5-.3.9-.6,1.4-.9.5-.3.9-.6,1.4-.9.5-.3.9-.6,1.4-.8.5-.3,1-.6,1.4-.8s1-.6,1.5-.8c.5-.3,1-.5,1.5-.8s1-.5,1.5-.8,1-.5,1.5-.8c.5-.3,1-.5,1.5-.8.5-.3,1-.5,1.6-.8.5-.3,1-.5,1.6-.8s1.1-.5,1.6-.8,1.1-.5,1.6-.7,1.1-.5,1.7-.7,1.1-.5,1.7-.7c.6-.2,1.1-.5,1.7-.7.6-.2,1.2-.5,1.7-.7.6-.2,1.2-.4,1.8-.7s1.2-.4,1.8-.6c.6-.2,1.2-.4,1.8-.6s1.2-.4,1.8-.6c.6-.2,1.2-.4,1.9-.6l1.9-.6c.6-.2,1.3-.4,1.9-.5.6-.2,1.3-.4,1.9-.5.7-.2,1.3-.3,2-.5.7-.2,1.3-.3,2-.5s1.3-.3,2-.5c-.5-.4-.9-.8-1.2-1.1-.4-.3-.7-.6-1.1-1-.4-.3-.8-.7-1.2-1.1-.4,0-.8.1-1.1.2s-.8.1-1.1.2c-.4,0-.8.1-1.1.2s-.8.1-1.1.2c-.4,0-.7.1-1.1.2l-1.1.2c-.4,0-.7.1-1.1.2-.4,0-.7.1-1.1.2-.7.2-1.5.3-2.2.5s-1.5.3-2.2.5-1.4.3-2.2.5c-.7.2-1.4.3-2.1.5s-1.4.4-2.1.5c-.7.2-1.4.4-2.1.6-.7.2-1.4.4-2.1.6-.7.2-1.4.4-2.1.6-.7.2-1.4.4-2,.6-.7.2-1.4.4-2,.7-.7.2-1.3.4-2,.7-.7.2-1.3.5-2,.7s-1.3.5-2,.7c-.6.2-1.2.5-1.8.7s-1.2.5-1.8.7c-.6.2-1.2.5-1.8.7s-1.2.5-1.8.7c-.6.2-1.2.5-1.8.7s-1.2.5-1.8.8c-.6.2-1.2.5-1.7.8s-1.2.5-1.7.8c-.6.3-1.1.5-1.7.8-.6.3-1.1.5-1.7.8-.6.3-1.1.5-1.7.8-.5.3-1.1.5-1.6.8-.5.3-1.1.6-1.6.8-.5.3-1.1.6-1.6.9-.5.3-1,.6-1.6.9-.5.3-1,.6-1.6.9-.5.3-1,.6-1.5.9-.5.3-1,.6-1.5.9-.5.3-1,.6-1.5.9s-1,.6-1.5.9-1,.6-1.5.9c-.5.3-1,.6-1.4.9-.5.3-1,.6-1.4,1s-.9.6-1.4,1c-.5.3-.9.7-1.4,1-.5.3-.9.7-1.4,1-.5.3-.9.7-1.3,1-.5.3-.9.7-1.3,1-.4.3-.9.7-1.3,1s-.9.7-1.3,1-.9.7-1.3,1c-.4.3-.8.7-1.3,1s-.8.7-1.2,1-.8.7-1.2,1c-.4.3-.8.7-1.2,1s-.8.7-1.2,1.1-.8.7-1.2,1.1c-.4.4-.8.7-1.2,1.1s-.8.7-1.1,1.1c-.4.4-.7.7-1.1,1.1s-.7.7-1.1,1.1c-.4.4-.7.7-1.1,1.1s-.7.7-1,1.1c-.3.4-.7.7-1,1.1-.3.4-.7.7-1,1.1-.3.4-.7.7-1,1.1-.3.4-.6.7-1,1.1-.3.4-.6.7-.9,1.1-.3.4-.6.7-.9,1.1-.3.4-.6.7-.9,1.1-.3.4-.6.7-.9,1.1-.3.4-.6.7-.8,1.1-.3.4-.6.7-.8,1.1-.3.4-.5.7-.8,1.1-.3.4-.6.8-.9,1.2-.3.4-.6.8-.9,1.2-.3.4-.6.8-.8,1.2s-.5.8-.8,1.2-.5.8-.8,1.2c-.2.4-.5.8-.7,1.2s-.5.8-.7,1.2c-.2.4-.5.8-.7,1.2-.2.4-.4.8-.7,1.2-.2.4-.4.8-.6,1.2-.2.4-.4.8-.6,1.2-.2.4-.4.8-.6,1.2-.2.4-.4.8-.5,1.2-.2.4-.3.8-.5,1.2-.2.4-.3.8-.5,1.2-.2.4-.3.8-.5,1.2-.2.4-.3.9-.5,1.3s-.3.9-.5,1.3c-.2.4-.3.9-.4,1.3-.1.4-.3.8-.4,1.3-.1.4-.2.8-.3,1.3-.1.4-.2.8-.3,1.2s-.2.8-.3,1.2-.2.8-.2,1.2-.1.8-.2,1.2c0,.4,0,.7-.2,1.1-.2-.2-.4-.5-.5-.7-.2-.4-.5-.7-.7-1.1-.2-.4-.5-.8-.7-1.1-.2-.4-.5-.8-.7-1.1-.2-.4-.4-.8-.7-1.2-.2-.4-.4-.8-.6-1.2-.2-.4-.4-.8-.6-1.2-.2-.4-.4-.8-.5-1.2-.2-.4-.3-.8-.5-1.2-.2-.4-.3-.8-.5-1.3-.2-.4-.3-.8-.4-1.3-.1-.4-.3-.9-.4-1.3s-.2-.9-.3-1.3c-.1-.5-.2-.9-.3-1.3,0-.5-.2-.9-.3-1.4,0-.4-.1-.8-.2-1.2s-.1-.8-.2-1.2,0-.8-.1-1.2,0-.8-.1-1.2c0-.4,0-.8,0-1.2s0-.8,0-1.2c0-.4,0-.8,0-1.2s0-.8,0-1.2c0-.4,0-.8,0-1.2,0-.4,0-.8,0-1.2s0-.8.1-1.2,0-.8.1-1.2.1-.8.2-1.2.1-.8.2-1.2.2-.8.2-1.2c0-.4.2-.8.2-1.2,0-.4.2-.8.3-1.2,0-.4.2-.8.3-1.2,0-.4.2-.8.3-1.2.1-.4.2-.8.3-1.2.1-.4.2-.8.4-1.2.1-.4.3-.8.4-1.2.1-.4.3-.8.4-1.2.2-.4.3-.8.5-1.2.2-.4.3-.8.5-1.2.2-.4.3-.8.5-1.2.2-.4.3-.8.5-1.2.2-.4.4-.8.6-1.2s.4-.8.6-1.2.4-.8.6-1.2c.2-.4.4-.8.6-1.2.2-.4.5-.8.7-1.2.2-.4.5-.8.7-1.2s.5-.8.8-1.2c.3-.4.5-.8.8-1.2.3-.4.5-.8.8-1.2.3-.4.6-.8.9-1.2.3-.4.6-.8.9-1.1s.6-.8.9-1.1l1-1.1c.3-.4.7-.7,1-1.1s.7-.7,1-1.1c.3-.4.7-.7,1.1-1.1.4-.4.7-.7,1.1-1.1.4-.3.8-.7,1.1-1,.4-.3.8-.7,1.1-1,.4-.3.8-.6,1.2-1,.4-.3.8-.6,1.2-1,.4-.3.8-.6,1.2-.9s.8-.6,1.3-.9.8-.6,1.3-.9c.4-.3.9-.6,1.3-.9s.9-.6,1.3-.9c.5-.3.9-.6,1.4-.9.5-.3,1-.6,1.4-.9.5-.3,1-.6,1.5-.9s1-.6,1.5-.9c.5-.3,1-.6,1.6-.9.7-.4,1.3-.7,1.9-1,.6-.3,1.1-.6,1.7-.9.5-.3,1-.6,1.5-.8s1-.5,1.5-.8c.5-.3,1.1-.6,1.7-.9s1.2-.7,1.9-1c-.8.2-1.6.3-2.3.4-.7.1-1.4.3-2,.4-.7.1-1.3.2-1.9.4s-1.2.2-1.8.3c-.6.1-1.2.2-1.9.4-.7.1-1.3.3-2,.4s-1.5.3-2.3.5c-.4,0-.8.2-1.2.2s-.8.2-1.1.2-.8.2-1.1.2c-.4,0-.8.2-1.1.3s-.8.2-1.1.3-.7.2-1.1.3-.7.2-1.1.3-.7.2-1.1.3c-.4,0-.7.2-1.1.3-.4,0-.7.2-1.1.3s-.7.2-1.1.3c-.3.1-.7.2-1.1.3-.7.2-1.4.5-2.1.7s-1.4.5-2,.7c-.7.2-1.3.5-2,.7-.7.2-1.3.5-2,.8-.7.3-1.3.5-2,.8-.7.3-1.3.6-1.9.8-.6.3-1.3.6-1.9.9-.6.3-1.2.6-1.8.9s-1.2.6-1.8.9c-.5.3-1,.6-1.6.8s-1,.6-1.5.9c-.5.3-1,.6-1.5.9-.5.3-1,.6-1.5.9-.5.3-1,.6-1.5.9s-1,.6-1.5.9-1,.6-1.5,1c-.5.3-1,.7-1.5,1-.5.3-1,.7-1.5,1-.5.3-1,.7-1.5,1-.5.3-1,.7-1.4,1-.5.3-1,.7-1.4,1s-.9.7-1.4,1.1c-.5.4-.9.7-1.4,1.1-.5.4-.9.7-1.4,1.1-.5.4-.9.8-1.4,1.1-.5.4-.9.8-1.3,1.1-.4.3-.8.7-1.2,1s-.8.7-1.2,1c-.4.3-.8.7-1.2,1.1-.4.4-.8.7-1.2,1.1s-.8.7-1.2,1.1c-.4.4-.8.7-1.2,1.1-.4.4-.8.7-1.1,1.1-.4.4-.8.7-1.1,1.1s-.8.8-1.1,1.1c-.4.4-.7.8-1.1,1.1-.3.3-.7.7-1,1-.3.3-.7.7-1,1-.3.3-.7.7-1,1-.3.3-.7.7-1,1.1-.3.3-.7.7-1,1.1-.3.4-.7.7-1,1.1-.3.4-.7.7-1,1.1-.3.4-.6.7-1,1.1-.3.4-.6.7-1,1.1s-.6.7-1,1.1c0,0-.1.2-.2.3-.2.3-.5.6-.7.9-.2.2-.4.5-.6.8-.5.6-.7.9-1.2,1.5-.5.6-.9,1.1-1.3,1.6s-.8,1-1.2,1.5-.7.9-1.1,1.3c-.3.4-.7.9-1,1.3s-.7.9-1.1,1.3c-.4.5-.8.9-1.2,1.5s-.8,1-1.3,1.6c-.3.4-.6.8-.9,1.2-.3.4-.6.8-.9,1.2-.3.4-.6.8-.9,1.2-.4.5-.5.7-.9,1.2-.3.4-.6.8-.9,1.2-.3.4-.6.8-.9,1.2-.3.4-.6.8-.9,1.2-.3.4-.6.8-.9,1.2-.3.4-.6.8-.9,1.2-.3.4-.6.8-.9,1.2-.3.4-.6.8-.8,1.2-.5.6-1,1.3-1.4,1.9-.5.6-.9,1.2-1.3,1.8-.4.6-.9,1.1-1.3,1.7-.4.5-.8,1.1-1.2,1.6s-.8,1-1.2,1.5-.8,1-1.1,1.5c-.4.5-.7,1-1.1,1.5s-.7,1-1.1,1.5c-.4.5-.7,1-1.1,1.5-.4.5-.7,1-1.1,1.5-.4.5-.8,1-1.1,1.5s-.8,1-1.2,1.5c-.4.5-.8,1.1-1.2,1.6-.4.5-.8,1.1-1.3,1.7-.4.6-.9,1.2-1.3,1.8-.5.6-.9,1.2-1.4,1.9-.3.4-.6.8-.9,1.2s-.6.8-.9,1.2-.6.8-1,1.2-.6.8-1,1.2c-.3.4-.6.8-1,1.2-.3.4-.6.8-1,1.2-.3.4-.6.8-1,1.2-.3.4-.7.8-1,1.2-.3.4-.7.8-1,1.2-.3.4-.7.8-1,1.2-.3.4-.7.8-1,1.2-.3.4-.7.8-1,1.2s-.7.8-1,1.2c-.3.4-.7.8-1,1.1s-.7.8-1,1.1c-.4.4-.7.8-1,1.1-.4.4-.7.8-1.1,1.1-.4.4-.7.8-1.1,1.1-.4.4-.7.7-1.1,1.1-.4.4-.7.7-1.1,1.1s-.7.7-1.1,1.1c-.4.4-.8.8-1.2,1.2-.4.4-.8.8-1.2,1.2s-.8.8-1.2,1.2c-.4.4-.8.8-1.2,1.2s-.8.8-1.3,1.2c-.4.4-.9.8-1.3,1.2-.4.4-.9.8-1.3,1.2-.4.4-.9.8-1.3,1.1-.4.4-.9.8-1.3,1.1-.4.4-.9.8-1.3,1.1s-.9.7-1.3,1.1c-.4.4-.9.7-1.3,1.1-.5.4-.9.7-1.4,1.1-.5.4-.9.7-1.4,1.1-.5.4-.9.7-1.4,1.1-.5.3-.9.7-1.4,1.1-.5.3-.9.7-1.4,1s-.9.7-1.4,1c-.5.3-.9.7-1.4,1-.5.4-1,.7-1.5,1.1s-1,.7-1.5,1c-.5.3-1,.7-1.5,1s-1,.7-1.6,1-1.1.7-1.6,1-1.1.7-1.6,1c-.5.3-1.1.6-1.6,1-.5.3-1.1.6-1.6.9s-1.1.6-1.7.9c-.6.3-1.1.6-1.7.9-.6.3-1.1.6-1.7.9-.6.3-1.2.6-1.7.9s-1.2.6-1.8.8c-.6.3-1.2.6-1.8.8s-1.2.5-1.8.8c-.6.3-1.2.5-1.8.8-.6.3-1.2.5-1.8.8s-1.2.5-1.9.8c-.4.2-.9.3-1.3.5-.4.2-.9.3-1.3.5-.4.2-.8.3-1.3.5s-.8.3-1.2.5c-.4.2-.8.3-1.2.4s-.8.3-1.2.4c-.4.1-.8.3-1.2.4-.4.1-.8.3-1.2.4s-.8.2-1.1.3c-.4.1-.8.2-1.1.3-.4.1-.7.2-1.1.3s-.7.2-1.1.3c-.7.2-1.4.4-2.1.5-.7.2-1.3.3-2,.4-.6.1-1.3.2-1.9.4-.6,0-1.2.2-1.8.3-.6,0-1.1.1-1.7.2-.5,0-1.1,0-1.6.1-.7,0-1.4,0-2,0-.6,0-1.2,0-1.8,0-.6,0-1.1-.1-1.6-.2-.5,0-1-.2-1.5-.3-.5-.1-.9-.3-1.4-.5-.4-.2-.9-.4-1.2-.6-.4-.2-.8-.5-1.1-.8-.4-.3-.7-.6-1-1-.3-.3-.6-.7-.9-1.1-.2-.3-.4-.6-.6-.9-.2-.3-.4-.7-.5-1s-.3-.7-.4-1-.2-.7-.3-1.1c-.1-.4-.2-.8-.2-1.2,0-.4-.1-.8-.2-1.2s0-.9,0-1.3v-1.2c0-.4,0-.8,0-1.2,0-.4,0-.8.1-1.2s0-.8.1-1.2.1-.8.2-1.3c0-.4.2-.8.2-1.3,0-.4.2-.9.3-1.3s.2-.9.4-1.3c.1-.4.2-.8.4-1.2.1-.4.2-.8.4-1.2.1-.4.3-.8.4-1.2.1-.4.3-.8.5-1.2.2-.4.3-.8.5-1.2.2-.4.3-.8.5-1.2s.4-.8.5-1.2.4-.8.6-1.2c.2-.4.4-.8.6-1.2.2-.4.4-.8.6-1.2.2-.4.4-.8.7-1.2s.4-.8.7-1.2c.2-.4.5-.8.7-1.2.2-.4.5-.8.7-1.2.2-.4.5-.8.7-1.2s.5-.8.7-1.1c.2-.4.5-.8.7-1.1.2-.4.5-.7.7-1.1.2-.3.4-.6.7-1,.2-.3.5-.7.7-1s.5-.7.8-1,.5-.7.8-1.1c.3-.4.6-.8.9-1.1.3-.4.6-.8.9-1.2.3-.4.6-.8,1-1.2s.7-.8,1-1.3c.4-.4.7-.9,1.1-1.3.4-.5.8-.9,1.1-1.4.3-.4.6-.8,1-1.2.3-.4.7-.8,1-1.2.3-.4.7-.8,1-1.2.4-.4.7-.8,1.1-1.2s.7-.8,1.1-1.2c.4-.4.7-.8,1.1-1.2s.8-.8,1.1-1.2c.4-.4.8-.8,1.2-1.2.4-.4.8-.8,1.2-1.3.4-.4.8-.8,1.2-1.3.4-.4.8-.8,1.3-1.3.4-.4.9-.9,1.3-1.3l1.1-1.1c.4-.4.8-.8,1.1-1.1s.8-.8,1.1-1.1c.4-.4.8-.8,1.2-1.1s.8-.8,1.2-1.1c.4-.4.8-.8,1.2-1.1.4-.4.8-.8,1.2-1.1l1.2-1.1c.4-.4.8-.8,1.2-1.1s.8-.8,1.3-1.1.9-.8,1.3-1.2c.4-.4.9-.8,1.3-1.2.4-.4.9-.8,1.3-1.2s.9-.8,1.3-1.2c.4-.4.9-.8,1.3-1.1.5-.4.9-.8,1.3-1.1.5-.4.9-.8,1.4-1.1s.9-.7,1.4-1.1.9-.7,1.4-1.1c.5-.4.9-.7,1.4-1.1.5-.4.9-.7,1.4-1.1.5-.4.9-.7,1.4-1.1.5-.3.9-.7,1.4-1.1s.9-.7,1.4-1c.5-.3.9-.7,1.4-1,.5-.3.9-.7,1.4-1s.9-.7,1.4-1c.5-.3.9-.7,1.4-1,.5-.4,1-.7,1.5-1.1.5-.3,1-.7,1.5-1,.5-.3,1-.7,1.5-1,.5-.3,1-.7,1.5-1,.5-.3,1-.7,1.5-1s1-.6,1.5-1,1-.6,1.5-.9,1-.6,1.5-.9c.5-.3,1-.6,1.5-.9.5-.3,1-.6,1.5-.9s1-.6,1.5-.9c.5-.3,1-.6,1.5-.8s1-.5,1.5-.8c.3-.2.7-.3,1-.5s.7-.3,1-.5c.6-.3,1.3-.7,2-1,.6-.3,1.3-.6,1.9-.9.6-.3,1.3-.6,1.9-.8.6-.3,1.3-.5,1.9-.8.6-.2,1.2-.5,1.9-.7.6-.2,1.2-.5,1.9-.7.6-.2,1.2-.4,1.8-.6s1.2-.4,1.8-.6c.6-.2,1.2-.4,1.8-.5.4-.1.8-.2,1.2-.3.4,0,.8-.2,1.2-.3.7-.2,1.4-.3,2.1-.4.6,0,1.2-.2,1.8-.2.5,0,1,0,1.5,0s.8,0,1.1,0c.3,0,.6,0,.9.2.5.1,1.1.3,1.5.5.5.2.9.4,1.3.6.4.2.7.5,1,.8.3.3.6.6.8.9.2.3.4.6.5.9.2.3.3.6.4,1,.1.3.2.7.3,1,0,.4.1.7.2,1.1,0,.4,0,.8,0,1.2,0,.4,0,.8,0,1.3,0,.4,0,.9-.2,1.3,0,.4-.1.7-.2,1.1,0,.4-.1.7-.2,1.1,0,.4-.2.8-.3,1.1s-.2.8-.3,1.1-.2.8-.4,1.2c-.1.4-.3.8-.4,1.2-.1.4-.3.8-.5,1.2-.2.4-.3.8-.5,1.2-.2.4-.4.8-.5,1.2-.2.4-.4.8-.6,1.2-.2.4-.4.8-.6,1.2s-.4.8-.6,1.2-.4.8-.7,1.2c-.2.4-.5.8-.7,1.2-.2.4-.5.8-.7,1.2s-.5.8-.7,1.2-.5.8-.8,1.2c-.3.4-.5.8-.8,1.2-.3.5-.6.9-.9,1.3-.3.4-.6.9-.9,1.3-.3.4-.6.8-.9,1.3-.3.4-.6.8-.9,1.2-.3.4-.6.8-.9,1.2s-.6.8-.9,1.1c-.3.4-.6.7-.9,1.1s-.6.7-.8,1c-.3.3-.5.7-.8,1-.3.3-.6.7-.9,1-.3.4-.6.7-1,1.1-.3.4-.7.8-1.1,1.1s-.7.8-1.1,1.2c-.4.4-.8.8-1.2,1.2s-.8.8-1.3,1.3c-.4.4-.9.9-1.3,1.3-.4.4-.7.7-1.1,1.1-.4.4-.8.7-1.1,1.1-.4.4-.8.7-1.2,1.1-.4.4-.8.7-1.2,1.1-.4.4-.8.7-1.2,1.1-.4.4-.8.7-1.3,1.1-.4.4-.9.7-1.3,1.1s-.9.7-1.3,1.1c-.5.4-.9.7-1.4,1.1s-.9.7-1.4,1.1-.9.7-1.4,1.1c-.5.4-1,.7-1.5,1.1-.5.4-1,.7-1.5,1.1-.5.4-1,.7-1.5,1.1-.5.4-1,.7-1.5,1.1-.5.3-1,.7-1.5,1-.5.3-1,.7-1.6,1-.5.3-1.1.7-1.6,1s-1.1.7-1.6,1c-.5.3-1.1.7-1.6,1-.6.4-1.2.7-1.8,1.1-.6.3-1.2.7-1.8,1-.6.3-1.2.7-1.8,1s-1.2.6-1.8.9-1.2.6-1.8.9c-.6.3-1.2.6-1.8.8-.6.3-1.2.5-1.8.8-.6.2-1.2.5-1.8.7-.6.2-1.2.5-1.8.7-.4.1-.8.3-1.1.4-.4.1-.8.3-1.1.4s-.7.2-1.1.3-.7.2-1.1.3c-.7.2-1.4.4-2,.5s-1.3.3-2,.4c-.6.1-1.2.2-1.8.3-.5,0-1,0-1.4,0-.3,0-.6,0-.9-.1-.3,0-.5-.2-.8-.3-.3-.2-.6-.5-.8-.8-.2-.2-.3-.5-.4-.7-.1-.3-.2-.6-.2-.9,0-.3,0-.7,0-1,0-.4,0-.8.1-1.2,0-.4.2-.8.4-1.3.1-.5.4-.9.6-1.4.2-.4.4-.8.6-1.1s.4-.8.6-1.2c.2-.4.5-.8.7-1.2.2-.4.5-.8.8-1.2.3-.4.6-.8.9-1.2s.6-.8,1-1.2c.3-.4.7-.8,1-1.2.4-.4.7-.8,1.1-1.2.3-.4.7-.7,1-1.1.4-.4.7-.7,1.1-1.1.4-.3.8-.7,1.1-1.1s.8-.7,1.2-1,.8-.7,1.2-1c.4-.3.9-.7,1.3-1,.4-.3.9-.7,1.3-1,.5-.3.9-.7,1.4-1,.5-.3,1-.7,1.4-1,.5-.4,1.1-.7,1.6-1.1.5-.3,1.1-.7,1.6-1,.5-.3,1.1-.6,1.7-.9.5-.3,1.1-.6,1.7-.9.5-.3,1.1-.5,1.7-.8.6-.3,1.1-.5,1.7-.7.6-.2,1.1-.5,1.7-.7.6-.2,1.1-.4,1.7-.6.6-.2,1.3-.4,1.9-.6.6-.2,1.3-.4,2-.5.7-.2,1.3-.3,2-.4s1.4-.2,2.1-.3c.8-.1,1.5-.2,2.1-.3.6,0,1.2-.2,1.9-.3.6,0,1.3-.2,2.1-.3-.6-.3-1.1-.5-1.6-.7s-.9-.4-1.4-.6-1-.4-1.6-.7c-.4-.2-.7-.3-1.1-.4s-.8-.2-1.2-.3c-.4,0-.9-.2-1.3-.3-.5,0-.9-.2-1.4-.2-.5,0-.9-.1-1.4-.1-.5,0-1,0-1.5,0-.4,0-.8,0-1.2,0s-.8,0-1.3,0c-.4,0-.8,0-1.2.1s-.8,0-1.2.2-.8.1-1.2.2c-.4,0-.8.2-1.2.3-.4,0-.8.2-1.2.3-.4.1-.8.2-1.2.4-.6.2-1.3.5-2,.7s-1.3.5-1.9.8c-.6.3-1.3.5-1.9.8-.6.3-1.2.6-1.8.9s-1.2.6-1.8.9c-.6.3-1.2.7-1.8,1-.6.3-1.2.7-1.7,1-.6.4-1.1.7-1.7,1.1-.5.4-1.1.8-1.6,1.1-.5.4-1,.8-1.6,1.2-.5.4-1,.8-1.5,1.2-.5.4-1,.8-1.4,1.2-.5.4-.9.8-1.4,1.2-.4.4-.9.8-1.3,1.2-.4.4-.8.8-1.2,1.2-.4.4-.8.8-1.2,1.2-.4.4-.8.8-1.1,1.2s-.7.8-1,1.3-.7.8-1,1.3c-.3.4-.6.8-.9,1.2s-.6.8-.8,1.2-.5.8-.8,1.2c-.2.4-.5.8-.7,1.2-.2.4-.4.8-.6,1.2-.2.4-.4.8-.6,1.2-.2.4-.3.8-.5,1.2-.1.4-.3.8-.4,1.2-.2.5-.3,1-.4,1.5-.1.5-.2,1-.2,1.4,0,.5,0,.9,0,1.3s0,.9,0,1.3c0,.4.1.8.2,1.2.1.4.3.8.4,1.1.2.4.4.7.6,1.1.4.5.8,1,1.3,1.4.3.2.6.4.9.6s.6.4,1,.5c.4.2.8.3,1.1.5s.8.2,1.3.3.9.2,1.4.2c.5,0,1,.1,1.5.1.5,0,1,0,1.5,0,.5,0,1,0,1.6,0,.7,0,1.4-.1,2.2-.2.4,0,.7,0,1.1-.2s.8-.1,1.1-.2.8-.1,1.1-.2c.4,0,.8-.2,1.1-.2s.8-.2,1.2-.3c.4,0,.8-.2,1.2-.3.4,0,.8-.2,1.2-.3s.8-.2,1.2-.4c.4-.1.8-.2,1.2-.4.4-.1.8-.3,1.3-.4.4-.1.9-.3,1.3-.4s.9-.3,1.3-.5c.6-.2,1.3-.5,2-.7.6-.2,1.3-.5,1.9-.8.6-.3,1.3-.5,1.9-.8.6-.3,1.3-.5,1.9-.8.6-.3,1.3-.6,1.9-.9s1.2-.6,1.9-.9c.6-.3,1.2-.6,1.9-.9.6-.3,1.2-.6,1.8-1,.6-.3,1.2-.7,1.8-1,.6-.3,1.2-.7,1.8-1,.6-.3,1.2-.7,1.8-1.1s1.2-.7,1.8-1.1c.5-.3,1.1-.7,1.6-1,.5-.3,1.1-.7,1.6-1s1-.7,1.6-1c.5-.3,1-.7,1.5-1.1.5-.4,1-.7,1.5-1.1.5-.4,1-.7,1.5-1.1l1.5-1.1c.5-.4,1-.7,1.5-1.1.5-.4,1-.8,1.5-1.1s1-.8,1.5-1.2c.5-.4,1-.8,1.4-1.2.5-.4,1-.8,1.4-1.2.5-.4.9-.8,1.4-1.2.4-.4.9-.7,1.3-1.1s.8-.7,1.3-1.1c.4-.4.8-.8,1.2-1.1s.8-.8,1.2-1.1.8-.8,1.2-1.1c.4-.4.8-.8,1.2-1.1.4-.4.8-.8,1.2-1.1s.8-.8,1.1-1.2.8-.8,1.1-1.2c.4-.4.7-.8,1.1-1.2.4-.4.7-.8,1.1-1.2.4-.4.7-.8,1.1-1.2.4-.4.7-.8,1-1.2.4-.4.7-.8,1-1.2.4-.4.7-.8,1.1-1.3.4-.4.7-.8,1-1.3.4-.4.7-.8,1-1.3.3-.4.7-.8,1-1.2.3-.4.6-.8,1-1.2.3-.4.6-.8.9-1.2.3-.4.6-.8.9-1.2s.6-.8.9-1.2.6-.8.8-1.2.5-.8.8-1.2c.3-.4.5-.8.8-1.2s.5-.8.7-1.2c.2-.4.5-.8.7-1.2.3-.5.5-.9.8-1.4s.5-.9.7-1.4.5-.9.7-1.4c.2-.5.4-.9.6-1.3.2-.4.4-.9.6-1.3s.4-.9.5-1.3.3-.9.5-1.3c.1-.4.3-.8.4-1.3.1-.4.2-.8.4-1.2.1-.4.2-.8.3-1.2s.2-.8.2-1.2c0-.5.2-1,.2-1.5,0-.5.1-.9.1-1.4,0-.5,0-.9,0-1.3s0-.9,0-1.3c0-.4-.1-.8-.2-1.2,0-.4-.2-.8-.3-1.2s-.3-.8-.4-1.2c-.2-.4-.3-.7-.5-1.1-.2-.4-.4-.7-.6-1-.3-.5-.7-.9-1.1-1.3-.4-.4-.9-.8-1.4-1.2-.5-.4-1.1-.7-1.7-1-.6-.3-1.3-.6-2-.8-.4-.1-.7-.2-1.1-.3-.4-.1-.8-.2-1.2-.3-.4,0-.8-.2-1.2-.2s-.8-.1-1.2-.2c-.4,0-.8,0-1.2,0-.4,0-.9,0-1.3,0s-.9,0-1.3,0-.9,0-1.3,0c-.4,0-.9,0-1.3.2-.5,0-.9.1-1.4.2-.5,0-.9.2-1.4.2s-1,.2-1.4.3c-.5.1-1,.2-1.5.3s-1,.3-1.5.4c-.7.2-1,.3-1.7.5,0,0,0,0-.2,0-.6.2-1.3.4-1.9.6s-1.3.4-1.9.7c-.6.2-1.3.4-1.9.7s-1.3.5-1.9.7c-.6.2-1.3.5-1.9.7s-1.3.5-1.9.8c-.6.2-1.3.5-1.9.8-.6.3-1.3.5-1.9.8-.6.3-1.3.5-1.9.8s-1.3.6-1.9.8-1.3.6-1.9.9-1.3.6-1.9.9c-.6.3-1.3.6-1.9.9-.6.3-1.3.6-1.9,1-.6.3-1.3.6-1.9,1-.6.3-1.2.6-1.8.9-.6.3-1.2.6-1.8.9-.6.3-1.2.6-1.8,1l-1.8,1c-.6.3-1.2.7-1.8,1-.6.3-1.2.7-1.8,1-.6.3-1.2.7-1.7,1s-1.2.7-1.7,1c-.6.3-1.1.7-1.7,1s-1.1.7-1.7,1c-.6.3-1.1.7-1.7,1-.6.3-1.1.7-1.7,1s-1.1.7-1.7,1.1c-.6.3-1.1.7-1.7,1.1-.6.4-1.1.7-1.7,1.1-.5.4-1.1.7-1.7,1.1-.5.4-1.1.7-1.6,1.1-.5.4-1.1.7-1.6,1.1-.5.4-1.1.7-1.6,1.1-.5.4-1.1.7-1.6,1.1-.5.4-1,.7-1.6,1.1-.5.4-1,.7-1.6,1.1s-1,.7-1.5,1.1-1,.7-1.5,1.1c-.5.4-1,.8-1.5,1.1s-1,.8-1.5,1.1-1,.8-1.5,1.1c-.5.4-1,.8-1.5,1.1-.5.4-1,.8-1.4,1.1s-1,.8-1.4,1.1-.9.8-1.4,1.1-.9.8-1.4,1.1c-.5.4-1,.9-1.6,1.3s-1,.8-1.5,1.3c-.5.4-1,.8-1.5,1.3-.5.4-1,.8-1.4,1.2-.5.4-.9.8-1.4,1.2-.5.4-.9.8-1.4,1.2-.5.4-.9.8-1.3,1.2-.4.4-.9.8-1.3,1.2-.4.4-.8.8-1.2,1.2-.4.4-.8.8-1.2,1.2s-.8.8-1.2,1.1c-.4.4-.8.8-1.1,1.1-.4.4-.7.7-1.1,1.1-.4.4-.7.7-1.1,1.1-.4.4-.8.8-1.2,1.3-.4.4-.8.8-1.2,1.2-.4.4-.8.8-1.1,1.2-.4.4-.8.8-1.1,1.2-.4.4-.7.8-1.1,1.2s-.7.8-1.1,1.2-.7.8-1,1.2c-.3.4-.7.8-1,1.2-.3.4-.7.8-1,1.2s-.6.8-1,1.2c-.3.4-.6.8-.9,1.2-.3.4-.6.8-.9,1.2s-.6.8-.9,1.2c-.3.4-.5.8-.8,1.2-.3.4-.5.8-.8,1.2-.3.4-.5.8-.8,1.2-.2.4-.5.8-.7,1.2-.2.4-.5.8-.7,1.2-.2.5-.5.9-.8,1.4s-.5.9-.7,1.4c-.2.5-.5.9-.7,1.4s-.4.9-.6,1.4-.4.9-.6,1.4-.4.9-.5,1.4-.4.9-.5,1.3c-.2.5-.3.9-.5,1.3-.1.5-.3.9-.4,1.3-.1.5-.3.9-.4,1.3-.1.5-.2.9-.4,1.3-.1.5-.2.9-.3,1.3s-.2.9-.3,1.3c0,.4-.2.9-.2,1.3,0,.5-.1,1-.2,1.4,0,.5-.1.9-.1,1.4s0,.9,0,1.4c0,.5,0,.9,0,1.3s0,.9,0,1.3.1.9.2,1.3c0,.4.1.8.2,1.2,0,.4.2.8.3,1.2.1.4.2.8.4,1.2.1.4.3.8.5,1.2s.4.8.5,1.1.4.7.6,1.1c.2.3.5.7.7,1,.3.4.6.9,1,1.3.4.4.8.8,1.1,1.2.4.4.8.8,1.3,1.1s.9.7,1.4,1,1,.6,1.6.9,1.1.6,1.7.8c.6.3,1.2.5,1.9.8.6.2,1.3.5,2,.6s1.4.4,2.2.5c.4,0,.7.2,1.1.2.4,0,.8.1,1.2.2s.8,0,1.2.2c.4,0,.8,0,1.2.1.4,0,.8,0,1.2,0,.4,0,.8,0,1.3,0,.7,0,1.5,0,2.2,0s.8,0,1.1,0c.4,0,.8,0,1.2,0,.4,0,.8,0,1.2,0s.8,0,1.2,0,.8,0,1.2-.1.8,0,1.2-.1c.4,0,.8,0,1.2-.2.4,0,.8-.1,1.2-.2.4,0,.8-.1,1.3-.2.4,0,.9-.1,1.3-.2.4,0,.9-.2,1.3-.2s.9-.2,1.3-.3c.7-.1,1.4-.3,2.1-.5.6-.1,1.1-.3,1.7-.4.1,0,.3,0,.4,0,.4,0,.7-.2,1.1-.3.4,0,.7-.2,1.1-.3s.7-.2,1.1-.3c.4-.1.7-.2,1.1-.3.4-.1.8-.2,1.1-.3.4-.1.8-.2,1.1-.4.4-.1.8-.2,1.1-.4.4-.1.8-.3,1.1-.4.4-.1.8-.3,1.1-.4.4-.1.8-.3,1.2-.4.4-.1.8-.3,1.2-.4.4-.2.8-.3,1.2-.5s.8-.3,1.2-.5c.4-.2.8-.3,1.2-.5.3-.1.7-.3,1-.4.3-.1.7-.3,1-.4.7-.3,1.4-.5,2-.8.7-.3,1.3-.6,2-.8s1.3-.6,2-.8c.7-.3,1.3-.6,2-.9s1.3-.6,2-.9c.6-.3,1.3-.6,1.9-.9.6-.3,1.3-.6,1.9-.9s1.3-.6,1.9-.9c.6-.3,1.2-.6,1.9-.9l1.9-.9c.6-.3,1.2-.6,1.8-.9.6-.3,1.2-.6,1.8-1s1.2-.6,1.8-1c.6-.3,1.2-.6,1.8-1s1.2-.6,1.8-1c.6-.3,1.2-.7,1.8-1,.6-.3,1.2-.7,1.7-1,.6-.3,1.1-.7,1.7-1,.6-.3,1.1-.7,1.7-1,.6-.3,1.1-.7,1.7-1,.6-.3,1.1-.7,1.7-1,.5-.3,1.1-.7,1.6-1s1.1-.7,1.6-1,1.1-.7,1.6-1c.5-.3,1.1-.7,1.6-1,.5-.3,1-.7,1.6-1,.5-.3,1-.7,1.6-1s1-.7,1.5-1,1-.7,1.5-1,1-.7,1.5-1,1-.7,1.5-1.1,1-.7,1.5-1.1c.5-.4,1-.7,1.5-1.1s1-.7,1.4-1.1,1-.7,1.4-1.1c.5-.4.9-.7,1.4-1.1.5-.4.9-.7,1.4-1.1.5-.4.9-.7,1.4-1.1.5-.4.9-.7,1.4-1.1.5-.4.9-.7,1.3-1.1.4-.4.9-.7,1.3-1.1s.9-.7,1.3-1.1c.4-.4.9-.7,1.3-1.1.4-.4.9-.7,1.3-1.1.4-.4.9-.7,1.3-1.1.4-.4.8-.7,1.2-1.1.4-.4.8-.7,1.2-1.1s.8-.7,1.2-1.1c.4-.4.8-.8,1.2-1.1s.8-.8,1.2-1.1c.2-.2.5-.4.7-.7.3-.3.6-.6.8-.8s.5-.5.8-.8c.4-.4.8-.8,1.2-1.1.4-.4.8-.8,1.2-1.1s.8-.8,1.2-1.1c.4-.4.8-.8,1.1-1.1s.8-.8,1.1-1.1c.4-.4.7-.8,1.1-1.1s.7-.7,1.1-1.1c.4-.4.7-.7,1.1-1.1.4-.4.7-.7,1.1-1.1s.7-.7,1-1.1.7-.7,1-1.1.7-.7,1-1.1c.4-.4.7-.8,1.1-1.2.4-.4.7-.8,1.1-1.2.4-.4.7-.8,1.1-1.2s.7-.8,1-1.2c.3-.4.7-.8,1-1.2s.7-.8,1-1.2.7-.8,1-1.2c.3-.4.7-.8,1-1.2.3-.4.7-.8,1-1.2.3-.4.6-.8,1-1.2.3-.4.6-.8,1-1.2.1-.2.3-.3.4-.5.2-.2.3-.4.5-.7.2-.2.4-.5.6-.7.1-.2.2-.3.4-.4.3-.4.6-.8,1-1.1.3-.4.6-.8.9-1.1.3-.4.6-.8.9-1.1s.6-.7.9-1.1c.3-.4.6-.7.9-1.1s.6-.7.9-1.1c.3-.4.6-.7.9-1.1.3-.4.6-.7.9-1.1.3-.4.6-.7.9-1.1.3-.4.6-.7.8-1.1.3-.3.6-.7.8-1.1.5-.6,1-1.2,1.4-1.8s.9-1.1,1.3-1.6.8-1,1.2-1.5.8-1,1.1-1.4.8-1,1.2-1.5c.4-.5.8-1,1.3-1.6s.9-1.2,1.4-1.8c.2-.2.4-.5.6-.7.2-.3.4-.5.6-.8.5-.6,1-1.2,1.4-1.8s.9-1.1,1.3-1.7.8-1,1.2-1.5c.4-.5.8-1,1.2-1.5.4-.5.8-1,1.1-1.4s.7-.9,1.1-1.4c.4-.5.7-.9,1.1-1.4.4-.5.7-.9,1.1-1.4.4-.5.7-.9,1.1-1.4.4-.5.8-1,1.2-1.5s.8-1,1.2-1.5c.4-.5.8-1.1,1.3-1.6.5-.6.9-1.2,1.4-1.8.2-.3.5-.5.7-.8-.1.3-.2.5-.3.8-.2.4-.3.8-.5,1.2-.2.4-.3.8-.5,1.2-.2.4-.3.8-.5,1.2-.2.4-.3.8-.4,1.2-.1.4-.3.8-.4,1.2-.1.4-.2.8-.4,1.2-.1.4-.2.8-.3,1.2-.1.4-.2.8-.3,1.2,0,.4-.2.8-.3,1.2s-.2.8-.2,1.2c0,.4-.2.8-.2,1.2,0,.4-.1.8-.2,1.2,0,.4-.1.9-.2,1.3s0,.9-.1,1.3,0,.9,0,1.3c0,.4,0,.9,0,1.3s0,.9,0,1.3,0,.9,0,1.3c0,.4,0,.9,0,1.3,0,.4,0,.9,0,1.3s0,.9.1,1.3,0,.9.2,1.3c0,.4.1.9.2,1.3s.1.9.2,1.3c0,.4.2.9.3,1.3s.2.9.3,1.3c.1.5.2.9.3,1.4s.2.9.4,1.4c.1.5.3.9.4,1.3.2.4.3.9.5,1.3.2.4.3.9.5,1.3.2.4.3.9.5,1.3.2.4.4.8.6,1.3.2.4.4.8.6,1.3.2.4.4.8.6,1.2.2.4.4.8.7,1.2s.5.8.7,1.2.5.8.7,1.2.5.8.8,1.2c.3.4.5.8.8,1.2.3.4.6.8.9,1.2s.6.8.9,1.2c.3.4.7.8,1,1.2.3.4.7.8,1,1.2.3.4.7.8,1.1,1.2.4.4.8.8,1.1,1.1s.8.8,1.2,1.1c.4.4.8.8,1.2,1.1.4.4.9.8,1.4,1.2.5.4,1,.8,1.5,1.1s1.1.7,1.6,1.1c.6.3,1.2.7,1.8,1,.6.3,1.2.7,1.9,1s1.3.6,2,.9c.3.2.7.3,1,.5.3.2.7.3,1.1.5s.7.3,1.1.4c.4.1.8.3,1.1.4.4.1.7.3,1.1.4s.8.3,1.1.4c.1,0,.3.1.4.2.4.2.7.3,1.1.5.4.2.9.3,1.4.4s1.1.2,1.7.3c.4,0,.8.1,1.2.2.4,0,.8.1,1.2.2.4,0,.8.1,1.2.2s.8.1,1.2.2.8,0,1.2.1c.4,0,.8,0,1.2.1.4,0,.8,0,1.2,0,.4,0,.8,0,1.2,0s.8,0,1.2,0c.4,0,.8,0,1.2,0,.4,0,.8,0,1.2,0h1.1c.4,0,.8,0,1.1,0,.4,0,.8,0,1.2,0s.8,0,1.2,0c.4,0,.8,0,1.2,0,.4,0,.8,0,1.2,0,.4,0,.8,0,1.3,0,.4,0,.8,0,1.3-.1.4,0,.9,0,1.3-.1.4,0,.9,0,1.3-.2.5,0,.9-.1,1.4-.2.5,0,.9-.1,1.4-.2.5,0,.9-.1,1.4-.2.5,0,.8-.1,1.2-.2s.7,0,1.2-.2c.5,0,.9-.1,1.4-.2.4,0,.9-.2,1.4-.3.8-.2,1.6-.3,2.3-.5.7-.2,1.3-.3,2-.4s1.2-.3,1.9-.4c.6-.1,1.3-.3,2-.4.7-.2,1.4-.3,2.3-.5-.8,0-1.5-.1-2.2-.2-.7,0-1.3,0-2-.2h0ZM565.2,720.5c-.2.4-.4.9-.5,1.3-.2.4-.3.8-.5,1.2l-2-.7c.3-.2.5-.5.8-.7.2-.2.5-.4.7-.6l.9-.7c.3-.2.6-.5.9-.8,0,0,.2-.1.2-.2-.2.4-.3.7-.5,1.1ZM598.3,783.8c-.3-.1-.5-.2-.8-.3-.4-.2-.9-.4-1.3-.6l.5-4.3c0,.5.2.9.3,1.3.1.6.3,1.2.5,1.7.2.6.4,1.1.6,1.7,0,.2.1.4.2.5,0,0,0,0,0,0h0Z"/>
        <path class="st0" d="M1207.6,816.2c0-.1,0-.2,0-.3-.2-.3-.2-.4-.4-.7-.2-.3-.4-.7-.7-1-.3-.3-.6-.7-.9-1h0c-.3-.3-.7-.7-1.1-1-.4-.3-.8-.7-1.3-1-.4-.3-.9-.7-1.4-1s-1-.7-1.5-1c-.5-.3-1-.6-1.6-.9-.6-.3-1.1-.6-1.8-.9-.6-.3-1.1-.5-1.7-.8s-1.1-.5-1.7-.8c-.6-.2-1.1-.5-1.7-.8-.6-.2-1.1-.5-1.7-.7-.6-.2-1.1-.5-1.7-.7s-1.2-.4-1.7-.7-1.2-.4-1.8-.6c-.6-.2-1.2-.4-1.7-.6-1-.3-1.9-.6-2.8-.9s-1.7-.5-2.5-.8c-.8-.2-1.6-.5-2.3-.7-.8-.2-1.5-.5-2.2-.7-.8-.2-1.5-.5-2.3-.7s-1.6-.5-2.5-.8-1.8-.6-2.8-.9c.5-.3.9-.5,1.3-.8.4-.2.8-.5,1.3-.8.5-.3.9-.6,1.3-.9.4-.3.8-.7,1.1-1,.3-.4.6-.8.8-1.2.2-.4.4-.8.5-1.3.1-.5.2-1,.2-1.5,0-.5,0-1-.1-1.6s-.3-1.1-.5-1.7-.5-1.2-.8-1.8c-.4-.6-.8-1.3-1.3-1.9-.3-.3-.5-.6-.8-1-.3-.3-.6-.6-.9-1-.3-.3-.7-.6-1-1-.4-.3-.8-.6-1.2-1-.4-.3-.8-.6-1.2-.9-.4-.3-.9-.6-1.3-.9-.5-.3-1-.6-1.5-.9s-1.1-.6-1.7-.9c-.6-.3-1.1-.6-1.7-.8-.6-.3-1.2-.5-1.8-.8-.6-.3-1.2-.5-1.9-.8-.6-.2-1.3-.5-2-.7-.7-.2-1.3-.5-2-.7-.7-.2-1.4-.5-2.1-.7-.5-.2-1-.3-1.5-.4s-1-.3-1.5-.4c-.5-.1-1-.2-1.5-.4-.5-.1-1-.2-1.5-.3s-1-.2-1.5-.3c-.5,0-1-.2-1.5-.3-.5,0-1-.2-1.5-.3s-1-.2-1.4-.2-1-.1-1.4-.2-1-.1-1.4-.2c-.5,0-.9,0-1.4-.1-.5,0-.9,0-1.4-.1-.5,0-.9,0-1.4,0-.5,0-.9,0-1.4,0-.9,0-1.8,0-2.7,0s-1.8,0-2.6,0c-.9,0-1.7,0-2.6,0-.8,0-1.7,0-2.5.1-.8,0-1.7.1-2.5.2-.8,0-1.6.2-2.4.2-.8,0-1.6.2-2.4.3-.8.1-1.5.2-2.3.3s-1.5.2-2.2.4c-.7.1-1.4.3-2.2.4-.7.1-1.4.3-2.1.5-.7.2-1.4.3-2,.5-.7.2-1.3.3-2,.5-.7.2-1.3.3-1.9.5-.7.2-1.4.4-2.1.6-.5.1-.9.3-1.4.4.1-.3.2-.6.3-.9.1-.4.3-.8.4-1.3.1-.5.2-.9.2-1.4,0-.5,0-1,0-1.5,0-.5-.1-1-.2-1.5-.1-.5-.3-1.1-.5-1.6-.2-.5-.4-1.1-.7-1.7-.3-.6-.6-1.2-.9-1.7-.3-.6-.7-1.2-1.2-1.8-.4-.6-.9-1.2-1.5-1.8-.5-.6-1.1-1.2-1.8-1.9-.3-.3-.7-.6-1-1s-.7-.6-1.1-1c-.3-.3-.7-.6-1-.9s-.7-.6-1.1-.9c-.4-.3-.8-.6-1.2-.8-.4-.3-.8-.5-1.2-.8-.4-.3-.9-.5-1.3-.8-.4-.3-.9-.5-1.4-.8-.5-.3-.9-.5-1.4-.8s-1-.5-1.5-.8c-.5-.2-1-.5-1.6-.7s-1.1-.5-1.6-.7c-.8-.3-1.5-.7-2.2-.9-.7-.3-1.3-.5-1.9-.8s-1.2-.5-1.8-.8-1.2-.5-1.9-.8c-.7-.3-1.4-.6-2.2-.9.6.6,1.1,1.1,1.6,1.6s.9.9,1.4,1.4.9.9,1.4,1.4,1,1,1.6,1.6c.4.4.5.6.6.7.3.5.4.7.7,1.2.3.4.5.9.7,1.3.2.4.3.8.4,1.2s.2.8.2,1.2c0,.4,0,.8,0,1.2s-.2.8-.3,1.1-.4.8-.6,1.1c-.3.4-.6.8-.8,1.2-.3.4-.6.7-.9,1.1-.3.4-.6.7-.9,1-.3.3-.7.7-1,1s-.7.6-1,.9c-.3.3-.7.6-1.1.9-.3.2-.6.4-.8.7,0,0-.1,0-.2.2-.3.3-.7.6-1.1.9s-.7.6-1.1.9-.8.6-1.2,1c-.4.3-.8.7-1.2,1,0,0-.3.3-.6.6-.3.3-.8.8-1.4,1.3-.6.5-1.2,1.2-1.9,1.8-.7.7-1.5,1.4-2.2,2.1s-1.6,1.4-2.4,2.1c-.8.7-1.6,1.3-2.3,1.9-1,.8-2,1.5-2.9,2.1s-1.9,1.2-2.7,1.7c-.8.5-1.5.8-2,1.1-.5.3-.8.4-.8.5-.4.2-.8.5-1.2.7-.4.2-.9.4-1.4.6-.5.2-1.1.4-1.6.5s-1.2.3-1.8.5c-.7.2-1.3.3-2.1.4-.6,0-1.2.2-1.8.3-.6,0-1.3.1-2,.2-.7,0-1.4,0-2.1.1-.7,0-1.5,0-2.3,0-.8,0-1.6,0-2.4,0-.8,0-1.7,0-2.5,0-.7,0-1.4,0-2.1-.1-.7,0-1.4,0-2.2-.1-.7,0-1.5,0-2.2-.2s-1.5-.1-2.2-.2c-.7,0-1.4-.1-2.2-.2-.7,0-1.5-.2-2.2-.3-.7,0-1.5-.2-2.3-.3s-1.6-.2-2.3-.4c-.9-.2-1.8-.3-2.6-.5-.8-.2-1.7-.3-2.5-.5,0,0,0,0,0,0,.2,0,.5-.1.8-.2.7-.2,1.4-.4,2.1-.6.7-.2,1.4-.4,2-.7s1.4-.5,2-.7c.7-.2,1.3-.5,2-.8.7-.3,1.3-.5,2-.8.6-.2,1.2-.5,1.8-.8.6-.2,1.2-.5,1.7-.8.6-.3,1.1-.5,1.7-.8.5-.3,1.1-.5,1.6-.8s1-.5,1.5-.8c.5-.3,1-.6,1.5-.9s1-.6,1.4-.9c.5-.3.9-.6,1.3-.9s.9-.6,1.3-.9c.5-.3.9-.7,1.4-1.1.4-.4.9-.7,1.3-1.1.4-.4.8-.8,1.2-1.1.4-.4.7-.8,1-1.2.3-.4.7-.8.9-1.2.3-.4.6-.8.8-1.2.1-.2.2-.4.3-.6,0-.1.1-.2.2-.3.3-.7.5-1.2.7-1.7.2-.5.4-1,.7-1.7,0,0,0-.2,0-.2,0-.3.2-.7.2-1,0-.5,0-1,0-1.6s0-1.1-.2-1.6c0-.5-.2-1.1-.4-1.6s-.4-1.1-.6-1.7c-.2-.6-.6-1.1-.9-1.7-.2-.3-.4-.7-.7-1s-.5-.7-.8-1c-.3-.3-.6-.7-.9-1-.3-.3-.7-.7-1-1-.4-.3-.7-.7-1.1-1-.4-.3-.8-.7-1.2-1-.4-.3-.9-.7-1.3-1-.5-.3-1-.6-1.5-.9s-1-.6-1.5-.9c-.5-.3-1.1-.6-1.6-.9-.4-.2-.8-.4-1.3-.6s-.9-.4-1.3-.6c-.4-.2-.9-.4-1.3-.6-.5-.2-.9-.4-1.4-.6-.5-.2-.9-.3-1.4-.5-.5-.2-1-.3-1.5-.5-.5-.2-1-.3-1.5-.5s-1-.3-1.5-.5c-.5-.2-1-.3-1.6-.4-.5-.1-1.1-.3-1.6-.4-.5-.1-1.1-.3-1.7-.4s-1.1-.2-1.7-.4c-.6-.1-1.1-.2-1.7-.3s-1.2-.2-1.8-.3c-.5,0-1-.2-1.6-.3s-1-.2-1.6-.2c-.5,0-1-.2-1.5-.2-.5,0-1-.1-1.5-.2-.5,0-1-.1-1.5-.2s-1-.1-1.5-.2-1,0-1.5-.2c-.5,0-1,0-1.5-.1s-1,0-1.5-.1c-.5,0-1,0-1.5,0-.5,0-1,0-1.4,0-.5,0-1,0-1.4,0s-1,0-1.4,0c-.5,0-.9,0-1.4,0h-2.8c-.9,0-1.8,0-2.7,0-.9,0-1.8,0-2.6.1-.8,0-1.7.1-2.6.2-.8,0-1.7.2-2.5.2-.8,0-1.7.2-2.4.3-.8.1-1.6.2-2.4.3-.8.1-1.5.3-2.3.4-.8.1-1.5.3-2.2.5-.7.2-1.5.3-2.2.5-.7.2-1.4.4-2.1.5-.8.2-1.5.4-2.3.7-.7.2-1.5.5-2.2.7-.7.2-1.4.5-2.1.8-.7.3-1.4.5-2,.8-.7.3-1.3.6-2,.9-.6.3-1.2.6-1.9.9-.6.3-1.2.7-1.8,1-.6.3-1.2.7-1.7,1-.5.3-1.1.7-1.6,1.1-.5.4-1,.7-1.5,1.1-.5.4-1,.7-1.4,1.1-.5.4-.9.8-1.3,1.1,0,0-.3.3-.7.8s-1,1-1.7,1.7-1.4,1.5-2.2,2.3c-.8.8-1.6,1.7-2.4,2.5s-1.6,1.6-2.2,2.3-1.2,1.3-1.7,1.8-.7.7-.7.8c-.4.3-.7.7-1.2,1-.4.3-.8.6-1.3.9s-1,.6-1.5.9c-.5.3-1.1.6-1.6.9-.6.3-1.2.6-1.8.9-.5.2-1.1.5-1.7.7-.6.2-1.1.5-1.7.7-.6.2-1.2.5-1.8.7-.6.2-1.2.4-1.8.6s-1.3.4-1.9.6c-.6.2-1.3.4-2,.6-.7.2-1.3.4-2,.6-.8.2-1.6.4-2.4.6-.8.2-1.6.4-2.3.6-.8.2-1.5.3-2.3.5-.8.2-1.5.3-2.2.5s-1.5.3-2.2.4c-.7.1-1.5.2-2.1.3,0,0,0,0,0,0-.5,0-1.1.2-1.7.2-.6,0-1.3.2-2,.2-.7,0-1.4.1-2.2.2-.7,0-1.4,0-2.1.1-.7,0-1.4,0-2.1,0s-1.4,0-2.1,0c-.8,0-1.5-.1-2.1-.2-.5,0-.8-.2-.9-.2,0,0-.1,0-.1,0,0,0-.1,0-.2-.3,0-.2-.2-.3-.2-.5,0-.2,0-.5.1-.8.2-.4.3-.8.5-1.2s.4-.8.7-1.2c.2-.4.5-.8.8-1.1.3-.4.6-.7,1-1,.4-.3.8-.7,1.1-1,.3-.3.7-.5,1-.8.7-.6,1.4-1.2,2.1-1.8s1.3-1.1,1.9-1.6,1.2-1,1.8-1.5c.6-.5,1.2-1,1.7-1.5.6-.5,1.1-.9,1.7-1.4s1.1-.9,1.7-1.4c.6-.5,1.1-1,1.7-1.4s1.2-1,1.8-1.5,1.3-1.1,1.9-1.6c.7-.6,1.4-1.2,2.1-1.8.4-.3.8-.7,1.2-1,.4-.3.8-.7,1.2-1,.4-.3.8-.7,1.1-1.1.4-.4.7-.7,1.1-1.1,0,0,1-1,1-1.1.3-.4.7-.8,1-1.2.3-.4.7-.8,1-1.2.4-.5.7-1,1-1.5.3-.5.5-1,.7-1.6s.3-1.1.3-1.6c0-.5,0-1.1,0-1.7s-.3-1.1-.5-1.7c-.2-.6-.5-1.2-.9-1.8-.4-.6-.9-1.3-1.4-1.9-.3-.3-.6-.6-.9-.9s-.7-.6-1-.9c-.4-.3-.8-.6-1.2-.9-.4-.3-.8-.6-1.3-.8-.4-.3-.9-.5-1.4-.8s-1-.5-1.5-.8c-.5-.2-1-.5-1.6-.7-.5-.2-1.1-.5-1.7-.7-.2,0-.8-.3-1.7-.5-.8-.2-1.8-.6-2.8-.9-1-.3-2-.6-2.8-.8-.8-.2-1.3-.4-1.5-.4-.5-.1-1-.2-1.6-.4-.5-.1-1.1-.2-1.6-.3-.5-.1-1.1-.2-1.7-.3,0,0-.2,0-.3,0l-1.5.5-5.7,1.9c.3.2.5.4.7.7.3.3.5.6.7.8.2.4.5.8.6,1.2s.3.8.4,1.3c0,.4.1.9.1,1.3,0,.5,0,.9-.2,1.4,0,.4-.2.8-.3,1.2s-.3.8-.4,1.2c-.2.4-.3.8-.5,1.2-.2.4-.4.8-.6,1.2-.2.4-.4.8-.7,1.2-.2.4-.5.8-.8,1.2s-.5.8-.8,1.2c-.3.4-.6.8-.9,1.2s-.6.8-1,1.1c-.3.4-.7.8-1,1.1-.3.4-.7.8-1,1.1s-.7.7-1,1.1c-.3.3-.7.7-1,1,0,0-.3.3-.7.7-.4.4-1,1-1.7,1.6s-1.5,1.4-2.4,2.2c-.9.8-1.8,1.6-2.8,2.4-.8.6-1.5,1.3-2.3,1.8-.7.6-1.5,1.1-2.1,1.6s-1.2.8-1.5,1.1c-.4.3-.6.5-.7.5-.4.3-.7.7-1.2,1-.4.3-.8.7-1.3,1-.5.3-1,.7-1.5,1-.5.3-1,.7-1.6,1s-1.2.7-1.8,1c-.5.3-1.1.6-1.6.8-.5.3-1.1.5-1.7.8-.6.3-1.2.5-1.8.8-.6.3-1.2.5-1.8.8-.6.2-1.2.5-1.9.7-.6.2-1.3.5-1.9.7-.7.2-1.3.5-2,.7-.8.3-1.6.5-2.4.8-.8.2-1.5.5-2.3.7-.8.2-1.5.5-2.3.7-.8.2-1.5.4-2.2.6s-1.5.4-2.2.6c-.7.2-1.4.3-2,.5-.6.1-1.2.2-1.8.3-.6.1-1.3.2-1.9.4-.7.1-1.3.2-2,.3-.6,0-1.2.2-1.8.2-.6,0-1.2.1-1.9.2-.6,0-1.3,0-2,0s-1.4,0-2,0c-.6,0-.9-.1-1.2-.2-.2,0-.3,0-.3,0-.3-.1-.5-.2-.7-.3-.2-.1-.3-.3-.4-.5-.2-.3-.3-.6-.3-.9,0-.3,0-.7,0-1.1,0-.3.1-.7.2-1,0-.3.2-.7.3-1,.1-.3.3-.7.4-1,.2-.3.3-.7.5-1,.2-.3.4-.7.6-1,.2-.3.4-.6.6-.9.3-.5.7-.9,1-1.3.3-.4.6-.8.9-1.1.7-.7,1.3-1.4,1.9-2s1.2-1.3,1.8-1.9,1.1-1.2,1.7-1.7,1.1-1.1,1.6-1.6c.5-.5,1-1.1,1.5-1.6.5-.5,1-1,1.5-1.6s1-1,1.5-1.6c.5-.5,1-1.1,1.6-1.6.5-.6,1.1-1.1,1.7-1.7.6-.6,1.2-1.2,1.8-1.8.6-.6,1.3-1.3,1.9-2,.7-.7,1.4-1.4,2.1-2.1.7-.7,1.3-1.3,2-2s1.3-1.3,1.9-1.9,1.2-1.2,1.8-1.8c.6-.6,1.2-1.2,1.7-1.7s1.1-1.1,1.7-1.7,1.1-1.1,1.6-1.6,1.1-1.1,1.6-1.6c.5-.5,1.1-1.1,1.6-1.6s1.1-1.1,1.6-1.6c.5-.5,1.1-1.1,1.6-1.6.5-.5,1.1-1.1,1.7-1.7.6-.6,1.1-1.1,1.7-1.7.6-.6,1.2-1.2,1.8-1.8.6-.6,1.2-1.2,1.9-1.8s1.3-1.3,2-1.9c.7-.7,1.4-1.3,2.1-2,.3-.3.6-.6.9-1,.3-.3.6-.7.8-1,0-.1.2-.2.3-.4.4,0,.8,0,1.3.1.5,0,.9,0,1.4.1.5,0,.9,0,1.4.1.5,0,.9,0,1.4.1s.9,0,1.4.1.9,0,1.4.1.9,0,1.4.1.9,0,1.4.1c.5,0,.9,0,1.4.1.5,0,.9,0,1.4.1.5,0,.9,0,1.4.1.5,0,.9,0,1.4.1s.9,0,1.4.1c.9,0-.3,0,.7,0,.3,0,4.4-3.8,4.4-3.8l2.5-2.9s-3.8-2.8-4.3-2.8c-.5,0-.9,0-1.4-.1s-.9,0-1.4,0c-.5,0-.9,0-1.4,0-.5,0-.9,0-1.4,0-.5,0-.9,0-1.4,0-.5,0-.9,0-1.4,0-.5,0-.9,0-1.4,0-.5,0-.9,0-1.4,0-.5,0-.9,0-1.4,0-.5,0-.9,0-1.4,0-.5,0-.9,0-1.4,0-.5,0-.9,0-1.4,0-.8,0-1.6,0-2.4-.1,0-.1,0-.3,0-.4,0-.4-.2-.8-.3-1.2-.1-.4-.2-.9-.4-1.3-.2-.4-.4-.9-.6-1.3s-.5-.9-.8-1.4c-.3-.6-.8-1.2-1.2-1.7-.5-.6-1-1.2-1.6-1.8-.3-.3-.6-.6-.9-.9-.3-.3-.7-.6-1-.9-.3-.3-.7-.6-1.1-.9-.4-.3-.8-.6-1.2-.9-.4-.3-.8-.5-1.2-.8-.4-.3-.8-.5-1.2-.8-.4-.2-.9-.5-1.3-.7s-.9-.5-1.4-.7c-.5-.2-1-.4-1.5-.6-.5-.2-1-.4-1.5-.6-.5-.2-1-.4-1.6-.5s-1.1-.3-1.7-.5c-.5-.2-1.1-.3-1.7-.5-.6-.2-1.2-.3-1.8-.4-.9-.2-1.7-.4-2.4-.5-.7-.2-1.4-.3-2-.5-.7-.2-1.3-.3-2-.5-.7-.2-1.5-.3-2.4-.5.7.6,1.2,1.1,1.8,1.5.5.5,1,.9,1.5,1.3.5.5,1.1,1,1.8,1.5,0,0,.2.2.4.4.2.2.4.5.6.9.2.3.4.7.5,1,.2.4.2.8.3,1.1,0,.4,0,.8,0,1.2,0,.4,0,.9-.1,1.3s-.2.9-.3,1.3-.3.9-.5,1.3c-.2.5-.4.9-.6,1.4-.2.5-.4.9-.7,1.3-.2.5-.5.9-.7,1.3-.2.4-.5.9-.7,1.3-.2.4-.5.8-.8,1.2-.1.2-.2.3-.3.5-.8,0-1.6,0-2.3,0s-1.3,0-2,0c-.6,0-1.3,0-2,0-.7,0-1.4,0-2.3,0-.9,0-1.8,0-2.6,0s-1.7,0-2.6.1c-.9,0-1.7.1-2.6.2-.8,0-1.7.1-2.5.2-.9,0-1.7.2-2.5.2-.8,0-1.6.2-2.4.3-.8.1-1.5.2-2.3.3-.8.1-1.5.3-2.2.4-.5,0-1,.2-1.4.3-.5.1-.9.2-1.3.3-.8.2-1.6.5-2.3.8-.7.3-1.4.6-1.9,1-.8.5-1.5.9-2.1,1.3s-1.2.8-1.8,1.1c-.6.4-1.2.7-1.8,1.1s-1.3.8-2.1,1.3c1,0,2-.2,2.9-.3s1.7-.2,2.5-.2c.8,0,1.6-.2,2.4-.2.8,0,1.6-.2,2.5-.2s1.8-.2,2.9-.3c.7,0,1.5-.1,2.3-.2s1.6,0,2.4-.1c.8,0,1.7,0,2.5,0,.8,0,1.7,0,2.6,0s1.8,0,2.8,0h1.4c.5,0,.9,0,1.4,0,.9,0,1.8,0,2.7,0,.9,0,1.7,0,2.5,0,.8,0,1.6,0,2.4,0h.3c-.6.7-1.1,1.2-1.5,1.8s-.9,1-1.3,1.5-.9,1-1.3,1.5c-.5.5-1,1.1-1.5,1.8-.6.7-1.2,1.5-1.8,2.2s-1.2,1.4-1.7,2-1.1,1.3-1.6,1.9-1,1.2-1.6,1.9-1,1.2-1.5,1.8c-.5.6-1,1.2-1.5,1.7-.5.6-1,1.1-1.4,1.7s-1,1.1-1.4,1.7-.9,1.1-1.4,1.7c-.5.6-1,1.1-1.4,1.7s-1,1.2-1.5,1.7-1,1.2-1.5,1.8c-.5.6-1,1.2-1.6,1.9-.5.6-1.1,1.3-1.6,2-.6.7-1.1,1.4-1.7,2.1s-1.2,1.4-1.8,2.2c-.3.6-.7,1.1-1.1,1.7s-1,1.1-1.5,1.7-1.2,1.1-1.9,1.6c-.7.5-1.4,1.1-2.1,1.6-.7.5-1.4,1-2.2,1.6-.7.5-1.4,1-2.1,1.5s-1.3,1-1.9,1.5-1.2,1-1.7,1.4c0,0-.1,0-.2,0-.1.1-.3.3-.4.4-.4.4-.8.8-1.3,1.2s-.9.8-1.5,1.1-1,.8-1.6,1.1c-.5.4-1.1.8-1.7,1.1-.5.3-1,.6-1.6,1-.5.3-1.1.6-1.7.9-.6.3-1.1.6-1.7.9-.6.3-1.2.6-1.8.9-.6.3-1.2.6-1.8.9-.6.3-1.3.6-1.9.8-.6.3-1.3.6-2,.8-.8.3-1.6.6-2.3.9-.8.3-1.5.6-2.2.9-.7.3-1.5.5-2.2.8-.7.3-1.4.5-2.1.7s-1.4.5-2.1.7c-.7.2-1.3.4-2,.6-.5.2-1.1.3-1.7.5-.6.2-1.2.3-1.9.5-.7.2-1.4.3-2.1.5-.7.2-1.4.3-2.1.4s-1.4.2-2,.3-1.3.1-2,.2c-1.2,0-2,0-2.4,0-.2,0-.3,0-.3,0,0,0,0,0-.2-.2,0-.2-.2-.3-.2-.6,0-.3,0-.6.1-.9.1-.4.3-.9.5-1.3.2-.4.4-.9.6-1.4.2-.4.5-.9.8-1.3.3-.4.6-.8.9-1.2.4-.4.7-.8,1.1-1.1.3-.3.7-.7,1-.9.7-.7,1.4-1.4,2-2.1s1.2-1.3,1.8-1.9c.6-.6,1.2-1.2,1.7-1.8.5-.6,1.1-1.1,1.6-1.7.5-.6,1.1-1.1,1.6-1.7.5-.5,1-1.1,1.6-1.7.5-.6,1.1-1.1,1.6-1.7s1.1-1.2,1.7-1.8,1.2-1.2,1.8-1.9,1.3-1.4,2-2.1c.4-.4.8-.8,1.2-1.2s.8-.8,1.1-1.2.7-.8,1.1-1.2c.3-.4.7-.8,1-1.3.1-.2.3-.4.4-.5.4,0,.7.2,1.1.2.2-.2.2-.3.4-.5-.5,0-.8,0-1.3,0,.1-.2.3-.4.4-.5.3-.4.7-.9,1-1.3s.6-.9.9-1.3c.4-.6.7-1.1,1-1.7s.5-1.1.6-1.7.2-1.1.2-1.7c0-.6,0-1.1-.1-1.7,0-.6-.3-1.1-.5-1.7s-.5-1.1-.9-1.7c-.4-.6-.9-1.2-1.4-1.8-.6-.6-1.2-1.1-1.9-1.6-.4-.3-.8-.5-1.2-.8s-.8-.5-1.3-.7c-.4-.2-.9-.5-1.4-.7-.5-.2-1-.4-1.5-.6-.5-.2-1-.4-1.6-.5-.5-.2-1.1-.3-1.7-.5-.4-.1-.9-.2-1.3-.3s-.9-.2-1.4-.3c-.5,0-.9-.2-1.4-.3-.5,0-1-.2-1.5-.3-.5,0-1-.2-1.5-.2-.5,0-1-.2-1.5-.2-.5,0-1-.1-1.6-.2-.5,0-1.1-.1-1.6-.2-.5,0-1.1,0-1.6-.1s-1.1,0-1.7-.1c-.5,0-1.1,0-1.7,0s-1.2,0-1.7,0c-.9,0-1.6,0-2.3,0s-1.3,0-2,0c-.7,0-1.4,0-2.3,0,.8.6,1.5,1.1,2.1,1.5.6.5,1.3.9,2.1,1.5.5.4.9.7,1.3,1,.3.3.6.6.8.9.3.4.5.9.7,1.3,0,.2.1.5.2.7-.4-.2-.8-.5-1.2-.7-.4-.2-.8-.4-1.2-.6s-.9-.4-1.3-.6-.9-.4-1.4-.5-1-.3-1.4-.5c-.4-.1-.9-.2-1.3-.4s-.9-.2-1.4-.3c-.5,0-.9-.2-1.4-.3s-1-.2-1.5-.2c-.5,0-1-.1-1.5-.2s-1,0-1.6-.1c-.5,0-1,0-1.6,0-.5,0-1.1,0-1.7,0h-1.7c-.6,0-1.2,0-1.8,0-.6,0-1.2,0-1.8,0s-1.2,0-1.8.1c-.5,0-1,0-1.5.1-.5,0-1,0-1.5.1-.5,0-1,0-1.5.2-.5,0-1,.1-1.5.2-.5,0-1,.1-1.4.2s-1,.1-1.4.2-.9.1-1.4.2-.9.2-1.4.2c-.5,0-.9.2-1.4.2s-.9.2-1.4.3c-.9.2-1.8.4-2.7.6s-1.8.4-2.6.6c-.9.2-1.7.5-2.6.7-.8.2-1.7.5-2.5.8-.8.3-1.6.5-2.4.8-.8.3-1.6.6-2.3.8-.8.3-1.5.6-2.3.9-.8.3-1.5.6-2.2.9-.7.3-1.5.6-2.2,1-.7.3-1.4.7-2.1,1-.7.3-1.4.7-2,1s-1.3.7-2,1.1c-.7.4-1.3.7-1.9,1.1s-1.2.8-1.9,1.2-1.2.8-1.8,1.2c-.6.4-1.2.8-1.7,1.2s-1.1.8-1.7,1.2c-.5.4-1.1.8-1.6,1.2-.5.4-1,.8-1.6,1.3-.5.4-1,.9-1.5,1.3-.5.4-1,.9-1.4,1.3-.5.5-.9.9-1.4,1.3-.5.5-.9.9-1.3,1.4-.4.5-.8.9-1.2,1.4-.4.5-.8.9-1.2,1.4s-.8.9-1.1,1.4c-.4.5-.7.9-1,1.4-.3.5-.7.9-1,1.4-.3.5-.6.9-.9,1.4-.3.5-.6.9-.8,1.4s-.5.9-.8,1.4c-.3.5-.5,1-.8,1.5-.2.5-.5,1-.7,1.5s-.4,1-.6,1.5c-.2.5-.3,1-.5,1.5-.2.5-.3,1-.4,1.5-.1.5-.2,1-.3,1.5s-.2,1-.2,1.5,0,1-.1,1.5c0,.6,0,1.1,0,1.6,0,.5,0,1.1.1,1.6s.2,1,.2,1.5c.1.5.2,1,.4,1.5.2.5.3,1,.5,1.4.2.5.4.9.7,1.4s.5.9.8,1.3c.4.6.9,1.2,1.4,1.7.5.6,1.2,1.1,1.8,1.6.3.3.7.5,1.1.8.4.2.8.5,1.2.7.4.2.8.5,1.3.7.5.2.9.4,1.4.6.5.2,1,.4,1.5.6.5.2,1,.3,1.6.5.5.1,1.1.2,1.6.3s1.1.2,1.7.3c.6,0,1.1.1,1.7.2.6,0,1.2,0,1.8,0,.6,0,1.2,0,1.8,0,.6,0,1.2,0,1.9,0,.6,0,1.2,0,1.9-.1.6,0,1.3-.1,1.9-.2.5,0,1-.1,1.5-.2.5,0,1-.1,1.5-.2.5,0,1-.2,1.4-.2.5,0,1-.2,1.4-.2.5,0,1-.2,1.4-.3s.9-.2,1.4-.3c.5,0,.9-.2,1.4-.3.5-.1.9-.2,1.4-.3.5-.1.9-.2,1.4-.3s.9-.2,1.4-.4c.9-.2,1.8-.5,2.6-.8.9-.2,1.7-.5,2.6-.8.8-.3,1.7-.5,2.5-.8.8-.3,1.6-.5,2.4-.8.8-.3,1.6-.6,2.4-.9.8-.3,1.5-.6,2.3-.9.8-.3,1.5-.6,2.2-.9.7-.3,1.5-.6,2.2-.9.7-.3,1.4-.6,2.1-1,.7-.3,1.4-.7,2-1,.7-.3,1.3-.7,1.9-1,.5-.3,1-.5,1.5-.8,0,0,0,.2,0,.2,0,.5.2.9.4,1.4.2.5.4.9.7,1.4.3.4.6.8,1,1.2.4.4.9.8,1.4,1.1.5.3,1.2.7,1.8,1s1.4.6,2.2.8c.5.2,1.1.3,1.7.4s1.2.2,1.8.3c.5,0,1.1.1,1.7.2s1.2,0,1.8,0c.6,0,1.2,0,1.8,0s1.2,0,1.8,0c.9,0,1.8-.2,2.8-.2.9,0,1.8-.2,2.8-.3.5,0,.9,0,1.4-.2s.9-.1,1.4-.2c.5,0,.9-.1,1.4-.2.5,0,.9-.1,1.4-.2s.9-.1,1.4-.2.9-.2,1.4-.2c.5,0,.9-.2,1.4-.2s.9-.2,1.4-.2c.5,0,.9-.2,1.4-.3s.9-.2,1.4-.3c.5,0,.9-.2,1.4-.3s.9-.2,1.4-.3.9-.2,1.4-.3.9-.2,1.4-.3c.5-.1.9-.2,1.4-.3.5-.1.9-.2,1.4-.3.8-.2,1.7-.4,2.5-.7s1.6-.5,2.4-.7,1.6-.5,2.4-.7c.8-.2,1.6-.5,2.3-.7.8-.2,1.5-.5,2.3-.7s1.5-.5,2.3-.8,1.5-.5,2.2-.8,1.5-.5,2.2-.8c.7-.3,1.4-.5,2.1-.8s1.4-.5,2.1-.8,1.4-.6,2-.8c.7-.3,1.4-.6,2.1-.9,0,0,0,.2,0,.3-.1.6-.2,1.2-.1,1.7,0,.6.1,1.1.3,1.7.2.6.4,1.1.8,1.6.2.4.5.7.8,1,.3.3.7.7,1.1,1,.4.3.9.6,1.5.9.5.3,1.1.5,1.7.8.6.2,1.2.4,1.8.6s1.3.3,2,.5c.6.1,1.3.2,2,.3s1.4.2,2.1.2c.7,0,1.4,0,2.1,0,.7,0,1.5,0,2.2,0,.5,0,1,0,1.4,0s1,0,1.4,0c.5,0,1,0,1.4,0,.5,0,1,0,1.4,0s1,0,1.4,0c.5,0,1,0,1.4,0,.5,0,.9,0,1.4-.1.5,0,1,0,1.4-.1.5,0,1,0,1.4-.2.5,0,.9,0,1.4-.2.5,0,.9-.1,1.4-.2.5,0,.9-.1,1.4-.2.5,0,.9-.1,1.4-.2s.9-.1,1.4-.2c.9-.1,1.8-.3,2.7-.4.9-.2,1.8-.3,2.7-.5s1.8-.3,2.7-.5,1.8-.3,2.6-.5c.9-.2,1.7-.4,2.6-.6.8-.2,1.7-.4,2.5-.6.8-.2,1.7-.4,2.5-.6s1.6-.4,2.4-.6c.8-.2,1.6-.4,2.4-.6.8-.2,1.5-.4,2.3-.6s1.5-.4,2.2-.6c.7-.2,1.5-.4,2.2-.7.7-.2,1.4-.4,2.1-.7.5-.2,1.1-.3,1.6-.5,0,.4,0,.8,0,1.1,0,.5.2,1.1.3,1.6.2.5.5,1.1.8,1.7.2.4.5.7.8,1.1.3.3.7.7,1,1,.4.3.9.7,1.4,1s1,.6,1.6.9c.6.3,1.2.5,1.8.7.6.2,1.3.4,2,.6.6.2,1.3.3,1.9.5s1.4.2,2.1.3c.7,0,1.3.2,2.1.2s1.4.1,2.2.2c.5,0,1,0,1.4,0s1,0,1.4,0c.5,0,.9,0,1.4,0s1,0,1.4,0h2.8c.5,0,.9,0,1.4,0,.5,0,1,0,1.4,0,.5,0,.9,0,1.4,0,.5,0,1,0,1.4,0,.5,0,1,0,1.4,0,.5,0,1,0,1.4,0,.5,0,1,0,1.4,0,.5,0,1,0,1.4,0,.5,0,1,0,1.4-.1s1,0,1.4-.1c.5,0,1,0,1.4-.1s1,0,1.4-.2c.5,0,1-.1,1.4-.2.5,0,1-.1,1.4-.2.9-.1,1.7-.2,2.6-.3.8-.1,1.7-.2,2.5-.4.8-.1,1.7-.2,2.5-.4s1.6-.3,2.4-.4c.8-.1,1.6-.3,2.4-.4.8-.2,1.6-.3,2.3-.5.8-.2,1.5-.3,2.3-.5.8-.2,1.5-.3,2.3-.5s1.5-.3,2.2-.5c.7-.2,1.5-.4,2.2-.5.7-.2,1.4-.4,2.1-.6.8-.2,1.5-.4,2.3-.7.7-.2,1.5-.5,2.2-.7s1.4-.5,2.1-.7c.7-.2,1.3-.5,2-.7.4-.2.9-.3,1.3-.5,0,.1,0,.3.1.4.2.6.4,1.1.7,1.7s.6,1.1.9,1.7c.4.6.9,1.3,1.4,2,.3.3.6.7.9,1,.3.3.7.7,1,1,.5.5,1.1,1,1.7,1.4.6.5,1.2.9,1.9,1.4.7.4,1.4.9,2.2,1.3.4.2.8.4,1.2.6.4.2.8.4,1.2.6.4.2.9.4,1.3.6.4.2.9.4,1.3.5.5.2.9.3,1.4.5.5.2,1,.3,1.4.5.5.2,1,.3,1.6.5.5.2,1.1.3,1.6.4.5.1,1.1.2,1.6.4.6.1,1.1.2,1.7.3.6,0,1.1.2,1.7.3.6,0,1.2.2,1.8.2.5,0,1.1.1,1.6.2s1.1.1,1.6.2c.5,0,1.1,0,1.6.2.5,0,1,0,1.6.1s1,0,1.6.1,1,0,1.5,0c.5,0,1,0,1.5,0,.5,0,1,0,1.5,0,.5,0,1,0,1.5,0s1,0,1.5,0h1.5c.5,0,1,0,1.5,0,.5,0,1,0,1.5,0,.5,0,1,0,1.5,0,.9,0,1.8,0,2.7-.2.9,0,1.8-.1,2.6-.2.9,0,1.7-.1,2.5-.2.8,0,1.6-.2,2.4-.2.8,0,1.6-.2,2.3-.3s1.5-.2,2.2-.3c.4,0,.9-.1,1.3-.2.8.3,1.6.5,2.4.8.5.2,1.1.3,1.7.5s1.2.3,1.7.5c.6.2,1.2.3,1.8.5.6.2,1.2.3,1.8.4.6.1,1.2.3,1.8.4s1.2.2,1.7.4,1.1.2,1.7.3c.6.1,1.1.2,1.7.3.5,0,1.1.2,1.6.3.5,0,1.1.2,1.6.3.5,0,1,.2,1.6.3s1.1.2,1.6.2,1,.2,1.6.2c.5,0,1,.1,1.5.2s1,.1,1.5.2,1,.1,1.5.2c.5,0,1,.1,1.5.2s1,0,1.5.1c.5,0,1,0,1.5.1s1,0,1.5.1,1,0,1.5,0c.5,0,1,0,1.5,0,.5,0,1,0,1.5,0,.5,0,1,0,1.4,0,.5,0,1,0,1.4,0s.9,0,1.4,0c.9,0,1.9,0,2.8,0,.9,0,1.8,0,2.7,0s1.7,0,2.6-.1c.8,0,1.7-.1,2.5-.2.8,0,1.6-.2,2.4-.2.8,0,1.6-.2,2.3-.3.8-.1,1.5-.2,2.2-.3.7-.1,1.4-.3,2.1-.4.6-.1,1.3-.3,1.8-.4,0,.1,0,.3.2.4.3.6.6,1.2.9,1.8.3.6.7,1.1,1.2,1.7.4.6.9,1.1,1.5,1.7.5.6,1.1,1.1,1.8,1.7s1.3,1.1,2.1,1.7c.4.3.8.6,1.2.9.4.3.8.6,1.3.8.4.3.9.5,1.4.8s1,.5,1.5.8c.5.3,1,.5,1.5.8s1.1.5,1.6.8c.6.3,1.1.5,1.7.8s1.2.5,1.8.8c.9.4,1.8.7,2.5,1.1s1.5.6,2.2.9,1.4.6,2.1.9,1.4.6,2.2.9c.8.3,1.6.7,2.5,1.1-.7-.7-1.4-1.3-2-1.8-.6-.5-1.1-1.1-1.7-1.6-.6-.5-1.1-1-1.7-1.6s-1.2-1.2-2-1.8c-.5-.5-1-.9-1.3-1.4-.4-.5-.7-.9-1-1.3-.2-.2-.3-.5-.3-.8,0-.3-.1-.7-.1-1,0-.4,0-.8.2-1.2.1-.4.3-.8.5-1.3.2-.5.5-.9.9-1.4.2-.3.5-.6.7-.9.3-.3.5-.6.8-.9.3-.3.6-.6.9-.9.3-.3.7-.6,1-.9s.7-.6,1.1-.9c.4-.3.8-.6,1.2-.9.4-.3.9-.6,1.3-.9.5-.3.9-.6,1.4-.9.4-.3.9-.5,1.4-.8.5-.3.9-.5,1.4-.8.5-.3,1-.5,1.5-.8s1-.5,1.5-.8c.5-.3,1-.5,1.6-.8.5-.2,1.1-.5,1.6-.8s1.1-.5,1.7-.7c.6-.2,1.2-.5,1.7-.7.6-.2,1.2-.5,1.8-.7s1.2-.5,1.8-.7c.6-.2,1.2-.5,1.8-.7s1.2-.4,1.8-.6,1.2-.4,1.8-.6,1.2-.4,1.8-.6,1.2-.4,1.8-.5,1.2-.3,1.9-.5c.6-.2,1.2-.3,1.9-.5s1.2-.3,1.9-.5c.7-.2,1.4-.3,2.1-.5.7-.2,1.4-.3,2.1-.4s1.4-.2,2.1-.4c.7-.1,1.4-.2,2.1-.3.7,0,1.4-.2,2-.3s1.3-.2,2-.2,1.3-.1,2-.2c.7,0,1.3,0,2-.1.8,0,1.7,0,2.5,0s1.6,0,2.4,0c.8,0,1.5,0,2.2.2.7,0,1.4.2,2.1.3.6,0,1.3.2,1.9.4.6.1,1.2.3,1.7.4.9.3,1.7.5,2.4.8.5.2,1,.4,1.3.6.2.1.4.3.6.4.2.2.3.3.4.5.2.3.3.6.3.9,0,.3,0,.6-.1.8-.2.3-.4.6-.6.9-.2.2-.4.3-.7.5-.2.1-.3.2-.5.4-.2.1-.3.3-.5.4-.2.2-.4.4-.6.5-.4.3-.8.5-1.3.7-.6.3-1.2.5-1.7.8-.5.3-.9.6-1.2.9-.9.6-1.7,1.1-2.4,1.7-.8.5-1.5,1-2.2,1.5-.7.5-1.4,1-2.1,1.4s-1.3.9-2,1.3c-.7.5-1.3.9-1.9,1.3s-1.3.9-2,1.4-1.3.9-2.1,1.4-1.4,1-2.2,1.5-1.6,1.1-2.4,1.7c0,0,0,0,0,0-.3.2-.6.5-1,.8-.3.3-.7.6-1,.9s-.7.6-1.1,1c-.4.3-.7.7-1.1,1-.3.3-.7.7-1,1.1-.3.4-.6.8-.9,1.1-.3.4-.6.8-.8,1.2s-.4.8-.6,1.3c-.2.4-.3.9-.4,1.3,0,.5-.1,1,0,1.5,0,.5.2,1,.3,1.6.2.5.4,1.1.8,1.7.2.4.5.8.8,1.2.3.4.6.8,1,1.1s.8.8,1.3,1.1c.5.4,1,.7,1.5,1.1.5.3,1.1.7,1.7,1,.6.3,1.2.7,1.9,1,.6.3,1.2.6,1.9.8.7.3,1.3.5,2.1.8.7.2,1.4.5,2.1.7s1.5.4,2.2.6c.5.1,1,.3,1.4.4.5.1,1,.2,1.5.4s1,.2,1.5.4,1,.2,1.5.3,1,.2,1.5.3c.5.1,1,.2,1.5.3.5.1,1,.2,1.5.3.5,0,1,.2,1.5.3.5,0,1,.2,1.5.3s1,.2,1.4.3c.5,0,1,.2,1.5.3.5,0,1,.2,1.5.3.8.1,1.7.3,2.5.4.1,0,.3,0,.4,0,.5,0,1,.2,1.5.2.5,0,1,.2,1.5.2.5,0,1,.1,1.5.2.5,0,1,.1,1.5.2.5,0,1,.1,1.5.2s1,.1,1.5.2c.5,0,1,.1,1.5.2s1,0,1.4.2c.5,0,1,0,1.4.1.5,0,.9,0,1.4.1.5,0,.9,0,1.4.1.5,0,.9,0,1.4.1.9,0,1.8.1,2.8.2s1.8.1,2.7.2c.9,0,1.8,0,2.6.1.9,0,1.7,0,2.6,0s1.7,0,2.5,0h2.5c.8,0,1.6,0,2.4,0,.9,0,1.8,0,2.6,0,.8,0,1.7,0,2.5-.1.8,0,1.6-.1,2.4-.2.8,0,1.5-.2,2.3-.2s1.4-.2,2.2-.3c.7-.1,1.4-.2,2-.4.7-.1,1.3-.3,1.9-.4.6-.2,1.2-.3,1.8-.5.6-.2,1.1-.3,1.7-.5.7-.2,1.4-.5,2-.8.6-.3,1.2-.6,1.7-.9.5-.3.9-.7,1.3-1,.4-.4.7-.8,1-1.2.3-.4.5-.8.7-1.3.2-.5.3-.9.3-1.4s0-1,0-1.5h.2ZM815.8,716.1l5.7-6.6,2.7-3.1h.6l2.9-4.1,4.2-4.9c0,.1,0,.2,0,.3,0,0,0,.2,0,.2l.3,1.8-.8,1.1s0,0-.1.2c-.1.2-.2.3-.4.4-.1.2-.3.3-.4.4l-4.1,4-5.4,5.3-4.9,4.9-2.7,2.7,2.2-2.7h0ZM733,728.6c.1,0,.2.1.3.2.2.1.2.2.3.2,0,0,0,0,0,0,0,.1.1.2.1.2,0,0,0,0,0,0,0,0,0,0,0,0,0,0,0,.1,0,.2,0,0-.1.2-.3.5-.1.2-.2.4-.4.6l-.4-2.3c.1,0,.2.1.3.2h0ZM638.3,755.9c-.3.5-.6,1.1-.9,1.6-.3.5-.5,1.1-.8,1.6-.2.5-.5,1-.7,1.5s-.5,1.1-.7,1.6c-.1.4-.3.8-.4,1.2,0-.2,0-.4.2-.6.1-.4.2-.7.3-1.1.1-.4.3-.8.4-1.1.2-.4.3-.8.5-1.2.2-.4.4-.8.6-1.2.2-.4.4-.7.6-1.1s.4-.7.7-1.1c.1-.2.3-.4.4-.6,0,0-.1.2-.2.3h0ZM703.1,765.9v-.2s0,0,.1-.1c0,.1,0,.2-.1.3ZM713.6,731.1c0,.5-.2,1-.3,1.4-.1.4-.2.9-.4,1.3-.1.4-.3.8-.5,1.2-.2.3-.3.7-.5,1-.2.3-.5.7-.8,1.1-.3.4-.6.8-.9,1.2-.3.4-.7.8-1,1.2-.4.4-.8.8-1.1,1.3-.3.4-1,1.3-1,1.3,0,0-.3.2-.6.6-.4.4-.8.9-1.4,1.6-.6.7-1.2,1.4-1.9,2.3-.7.8-1.4,1.7-2.1,2.5-.6.8-1.3,1.5-1.9,2.2s-1.2,1.3-1.7,1.9c-.5.5-.9,1-1.2,1.3s-.5.5-.5.6c-.3.3-.6.7-1,1.1s-.7.8-1.1,1.1-.8.8-1.3,1.2c-.4.4-.9.8-1.4,1.3-.4.4-.8.7-1.3,1.1-.4.4-.9.7-1.3,1.1-.5.4-.9.7-1.4,1.1-.5.4-1,.7-1.5,1.1-.5.4-1,.7-1.6,1.1-.5.4-1.1.7-1.7,1.1s-1.2.7-1.8,1.1c-.6.3-1.2.7-1.8,1-.6.3-1.2.7-1.9,1-.6.3-1.3.7-1.9,1s-1.3.6-2,1-1.4.6-2.1.9-1.4.6-2.1.9c-.7.3-1.5.6-2.2.9-.7.3-1.5.5-2.2.8-.7.2-1.5.5-2.2.7-.7.2-1.5.4-2.2.6-.8.2-1.5.4-2.3.6-.8.2-1.5.3-2.3.5-.8.1-1.5.3-2.3.4-.8.1-1.6.2-2.4.3-.5,0-.8,0-1.1,0-.1,0-.3,0-.5-.2-.2,0-.3-.2-.4-.2-.2-.1-.3-.3-.4-.4-.2-.3-.4-.7-.5-1-.1-.4-.2-.8-.2-1.3,0-.3,0-.7,0-1.1,0-.4,0-.7,0-1.1,0-.4,0-.7.1-1.1,0-.4,0-.7.2-1.1,0-.4.2-.7.2-1.1s.2-.7.3-1.1c.2-.6.4-1.1.5-1.6s.3-1,.5-1.4.3-.8.5-1.3c.2-.4.4-.9.6-1.3.2-.4.4-.9.7-1.3.2-.5.5-.9.8-1.4.3-.5.5-1,.8-1.4.3-.5.6-1,.9-1.5.3-.5.6-1,1-1.5.3-.4.6-.9.9-1.3s.6-.9,1-1.3.7-.9,1-1.3.7-.9,1.1-1.3.7-.9,1.1-1.3.8-.9,1.2-1.3c.4-.4.8-.9,1.2-1.3.4-.4.8-.9,1.3-1.3s.8-.8,1.2-1.2c.4-.4.8-.8,1.2-1.1.4-.4.8-.8,1.3-1.1.4-.4.9-.7,1.3-1.1s.9-.7,1.4-1.1c.5-.4.9-.7,1.4-1.1.5-.3,1-.7,1.5-1.1s1-.7,1.5-1c.5-.3,1-.7,1.5-1,.6-.4,1.2-.7,1.8-1.1.6-.4,1.2-.7,1.8-1,.6-.3,1.2-.7,1.9-1,.6-.3,1.3-.6,1.9-1,.7-.3,1.3-.6,2-.9.7-.3,1.3-.6,2-.8.7-.3,1.4-.5,2.1-.8.7-.2,1.4-.5,2.1-.8,0,0,0,0,0,0,.6-.2,1.2-.4,1.9-.6s1.4-.4,2.2-.6,1.6-.4,2.4-.6c.6-.1,1.2-.3,1.9-.4.6-.1,1.3-.2,1.9-.3.6,0,1.3-.2,2-.2.7,0,1.3-.1,2-.2.9,0,1.8,0,2.6,0,.6,0,1.2,0,1.6.2.3,0,.6.1.8.2.4.2.8.4,1.1.6.3.2.6.4.8.6.2.2.4.4.5.6.2.3.3.5.4.8.1.3.2.7.3,1,0,.4,0,.8,0,1.2,0,.4,0,.8-.1,1.3h0ZM857.6,753.7l-1.7,1.4c-.4.3-.8.6-1.2.9-.6.5-1.1,1-1.7,1.5-.8.7-1.5,1.5-2.1,2.2-.6.8-1.2,1.6-1.7,2.4-.4.6-.7,1.3-1,1.9-.2.4-.4.8-.6,1.3l.7-4.3c.4-.3.7-.6,1.1-1h0c.4-.3.9-.7,1.5-1.1.8-.6,1.6-1.2,2.3-1.7,1-.7,1.8-1.5,2.7-2.1,1-.8,2-1.7,3-2.6.8-.8,1.7-1.5,2.6-2.3.8-.7,1.4-1.3,1.8-1.7.5-.5.8-.8.8-.8.4-.4.8-.8,1.2-1.2.4-.4.8-.8,1.1-1.2.4-.4.8-.8,1.2-1.2.4-.5.9-1,1.3-1.4.4-.5.8-1,1.2-1.4.4-.5.8-1,1.2-1.5.4-.5.7-1,1.1-1.5.4-.5.7-1,1-1.5.3-.5.7-1.1,1-1.7.3-.6.6-1.2.8-1.7.3-.6.5-1.2.7-1.7,0-.2.1-.3.2-.5.1,0,.3.1.4.2.3.1.5.3.8.4.2.1.5.3.7.4.2.1.4.2.6.4.2.1.3.2.4.3.1,0,.2.2.3.3,0,0,.2.2.2.2.1.2.2.3.2.3,0,.1.1.2.1.3-.2.3-.5.6-.7.9-.2.3-.5.6-.8.9-.2.2-.7.8-.9,1-.3.3-.5.5-.8.8-.3.3-.6.6-.9.8-.3.3-.6.5-.9.8-.3.3-.6.5-.9.8l-2.2,1.9-3.7,3.2-6.8,5.7-3.7,3.2h0ZM936.5,755.7c-.3.3-.6.6-.9.9-.4.5-.8.9-1.2,1.4-.4.5-.8,1-1.1,1.5-.4.5-.7,1-1,1.5s-.6,1-.9,1.5c-.3.6-.7,1.2-1,1.9-.3.6-.6,1.2-.8,1.8,0-.2-.2-.4-.3-.7,0,0,0-.1,0-.2l-1.9-5.6,2.7-2.8,2.2-2.3c.7-.7,1.2-1.3,1.6-1.7.2-.2.3-.3.4-.4.2-.2.4-.4.7-.6.3-.2.6-.5,1-.8.3-.3.7-.5,1.1-.8s.8-.5,1.2-.8c.4-.2.8-.5,1.2-.7.4-.2.8-.5,1.2-.7.4-.2.9-.5,1.3-.7.5-.2.9-.4,1.4-.6.5-.2,1-.4,1.5-.6.5-.2,1-.4,1.6-.6,0,0,0,0,.2,0l-9.9,10h0ZM965.9,779.2c-.7,0-1.3.1-2,.2-.7,0-1.4.1-2.2.2-.7,0-1.4,0-2.2,0-.8,0-1.5,0-2.3,0-.8,0-1.6,0-2.5-.1-.8,0-1.7-.1-2.6-.2-.5,0-.9,0-1.4-.1s-.9-.1-1.4-.2c-.8-.1-1.6-.2-2.2-.4-.6-.1-1-.3-1.2-.3-.3,0-.4-.2-.4-.2-.5-.4-1-.7-1.4-1-.3-.3-.5-.6-.7-.8-.2-.3-.4-.7-.5-1-.1-.3-.2-.7-.3-1.1,0-.4,0-.8,0-1.1,0-.4,0-.8.2-1.2,0-.4.2-.9.3-1.3.1-.4.3-.9.5-1.3.2-.5.4-.9.6-1.3s.4-.9.7-1.3c.2-.3.4-.7.6-1,.2-.3.5-.7.7-1s.5-.7.8-1c.3-.3.5-.6.8-1,.2-.2.4-.4.6-.6,0,.1,0,.2.1.3.3.6.6,1.2,1,1.9.3.5.7,1.1,1.1,1.7.4.5.9,1.1,1.3,1.7.5.6,1,1.1,1.6,1.7s1.2,1.1,1.8,1.7c.3.3.6.6,1,.9.3.3.7.6,1,.9.6.5,1.3,1,2,1.5.3.2.7.5,1.1.8.4.2.8.5,1.1.8s.8.5,1.2.7c.4.2.8.5,1.2.7s.8.5,1.3.7c.4.2.9.5,1.3.7.3.2.7.3,1,.5-.5,0-1.1.2-1.7.2h0ZM991,771.3c-.5.3-1.1.6-1.6.8-.5.3-1.1.6-1.7.8-.5.2-1,.5-1.4.7-.5.2-1,.4-1.5.7-.5.2-1,.4-1.6.6-.5.2-1.1.4-1.7.6-.6.2-1.2.4-1.8.6-.6.2-1.2.4-1.8.5h0c-.3,0-.7.2-1,.3-.6-.2-1.1-.4-1.6-.7-.8-.3-1.6-.7-2.3-1-.7-.3-1.4-.7-2.1-1.1-.7-.3-1.3-.7-1.9-1.1-.6-.4-1.1-.7-1.7-1.1-.5-.4-1-.8-1.5-1.2-.6-.5-1.2-1-1.8-1.5s-1-1-1.5-1.5c-.5-.5-.9-.9-1.3-1.3-.4-.4-.7-.8-1-1.3-.3-.4-.6-.8-.8-1.2-.3-.5-.6-1-.8-1.4-.2-.5-.4-1-.6-1.4-.2-.5-.3-.9-.4-1.4,0-.5-.2-.9-.2-1.4,0-.5,0-.9,0-1.3,0-.4,0-.9.2-1.3,0-.4.2-.8.4-1.2s.4-.7.6-1.1c.2-.3.5-.7.9-1,.3-.3.7-.6,1.1-.9,0,0,0,0,0,0,.2-.2.5-.4.8-.7.3-.2.7-.5,1-.7.4-.2.8-.5,1.2-.8.5-.3,1-.5,1.5-.8.5-.3,1.1-.5,1.7-.8.5-.2,1-.5,1.5-.7s1.1-.4,1.6-.7,1.1-.4,1.7-.6,1.2-.4,1.8-.6,1.2-.4,1.9-.6,1.3-.4,2-.5c.7-.2,1.4-.3,2-.5.7-.2,1.4-.3,2.1-.4.7-.1,1.4-.2,2.2-.4s1.5-.2,2.2-.3c.8,0,1.5-.2,2.3-.2.8,0,1.6-.1,2.4-.2.8,0,1.5,0,2.3,0,.8,0,1.6,0,2.3,0,.8,0,1.6,0,2.3,0,.5,0,.9,0,1.4,0,.3,0,.7,0,1,0,.8,0,1.6.2,2.4.3.8.1,1.6.2,2.4.4.9.2,1.7.3,2.4.5.7.2,1.1.3,1.3.5.2,0,.3.2.4.2.6.4,1,.8,1.4,1.2s.5.6.7.8c.2.4.4.8.6,1.2.2.4.3.8.3,1.3,0,.5,0,.9,0,1.4,0,.5-.1,1-.2,1.5-.1.4-.2.8-.4,1.2s-.3.8-.5,1.2c-.2.4-.4.8-.6,1.2-.2.4-.5.8-.7,1.2-.3.4-.5.8-.8,1.2-.3.4-.6.8-.9,1.2-.3.4-.7.8-1,1.2-.3.4-.7.8-1.1,1.1s-.8.7-1.1,1.1c-.4.4-.8.7-1.2,1.1-.4.3-.8.7-1.2,1-.4.3-.8.7-1.2,1s-.8.6-1.1.9c-.4.3-.7.5-1.1.8-.2.2-.5.3-.7.5h-.3c-.2.1-.3.2-.5.3-.5.3-1,.6-1.5.9s-1,.6-1.5.9c-.5.3-1,.6-1.5.9-.5.3-1,.6-1.6.9h0ZM1078.9,767.6h0c0,.3-.1.5-.2.8,0,.2-.1.3-.2.5l-2,5.3c-.5.2-.9.5-1.4.7-.6.3-1.2.6-1.8.9-.6.3-1.2.6-1.7.9s-1.1.6-1.7.9c-.6.3-1.1.6-1.6,1-.7.4-1.3.8-1.9,1.2-.6.4-1.2.8-1.8,1.2-.6.4-1.2.8-1.7,1.2-.5.4-1.1.8-1.6,1.3-.5.4-1,.9-1.5,1.3h0s-1.2-2.9-1.2-2.9c.4-.3.8-.6,1.2-1,.8-.7,1.7-1.5,2.6-2.3.8-.7,1.6-1.4,2.4-2.2.7-.7,1.4-1.3,2-1.9.4-.4.8-.8,1.2-1.1,0,0,.4-.4.5-.5.3-.2.6-.5.9-.7.4-.3.7-.6,1.1-.9.3-.3.7-.6,1-.8.3-.3.7-.5,1-.8h0l.2-.2c.2-.2.4-.4.7-.5.5-.4,1-.8,1.5-1.2.5-.4,1-.9,1.5-1.4.5-.5,1-.9,1.4-1.4,0,0,.1-.1.2-.2.1.2.2.4.3.6.1.3.3.6.4.9,0,.2.2.5.2.7,0,.2,0,.3,0,.5,0,.1,0,.2,0,.2h0ZM1134.8,800.8l-2,1.2-.3.2c-.2.1-.4.3-.7.4-.3.2-.6.4-.9.6-1.1.6-2.1,1.3-2.9,2.1-.9.8-1.7,1.6-2.3,2.5-.2.3-.4.6-.6.8,0,0,0,0,0,0-.3-.2-.7-.3-.9-.5-.3-.1-.5-.3-.7-.4-.2-.1-.4-.3-.5-.4,0,0,0,0-.1-.1,0-.1.2-.3.3-.4.2-.2.3-.4.5-.6.2-.2.4-.4.6-.6.3-.3.6-.5.8-.8.3-.2.5-.4.7-.6.1-.1.3-.2.4-.3l4.3-3,4-2.8,3.9-2.7,4.3-2.9,3.1-2.1h0c1.3-.6,2.4-1.2,3.5-1.9,1-.7,1.7-1.3,2.1-1.7.5-.4,1.3-1,2.2-1.9.1-.1.2-.2.3-.4.2.2.5.3.8.5.3.2.5.4.8.6.2.2.4.4.7.5.2.2.4.3.6.5.2.2.3.3.4.5.1.2.2.3.4.4,0,0,.1.2.2.2l-.5.3-19.7,11h.4c0,.1-3,1.9-3,1.9h0ZM1190.6,814.5c-.1.3-.3.6-.5.9-.2.3-.6.5-.9.8-.3.2-.7.5-1.1.7-.4.2-.8.4-1.2.6-.4.2-.9.4-1.4.5-.5.2-1,.3-1.5.5-.5.2-1.1.3-1.7.4-.6.1-1.2.3-1.8.4-.6.1-1.3.2-2,.3-.7,0-1.3.2-2.1.3-.7,0-1.4.2-2.1.2-.7,0-1.5.1-2.2.2s-1.5,0-2.3.1c-.8,0-1.6,0-2.4,0-.8,0-1.6,0-2.4,0-.8,0-1.6,0-2.4,0s-1.6,0-2.3,0c-.8,0-1.5,0-2.3-.1-.8,0-1.5,0-2.2-.2-.7,0-1.5-.1-2.2-.2,0,0-.2,0-.2,0-.4,0-.9,0-1.4-.1-.6,0-1.2-.1-1.8-.2-.7,0-1.4-.2-2.2-.3-.7-.1-1.5-.2-2.2-.4-.7-.1-1.4-.3-2.2-.5-.7-.2-1.4-.3-2.1-.5-.9-.2-1.6-.5-2.2-.7-.5-.2-.9-.4-1.2-.5-.2,0-.3-.2-.4-.3,0,0-.2-.2-.3-.3,0-.2-.2-.3-.2-.5,0-.2,0-.4.1-.7.2-.3.3-.7.6-1,.2-.3.4-.7.7-1,.2-.3.5-.6.8-.8.3-.2.6-.5,1-.7.4-.3.8-.5,1.2-.7.3-.2.7-.4.9-.6.7-.4,1-.6,1.7-1,.9-.5,1.7-1,2.5-1.5s1.6-.9,2.3-1.3c.7-.4,1.4-.8,2.2-1.2.7-.4,1.4-.8,2-1.2.7-.4,1.3-.8,2-1.1s1.3-.8,2-1.1,1.3-.8,2-1.2c.7-.4,1.4-.8,2.2-1.2.7-.4,1.5-.9,2.3-1.3.8-.5,1.6-.9,2.5-1.4.9.5,1.7,1,2.5,1.4.8.4,1.5.8,2.3,1.2.7.4,1.4.8,2.1,1.2.7.4,1.3.7,2,1.1s1.4.8,2.1,1.2c.7.4,1.5.8,2.3,1.2.8.4,1.6.9,2.5,1.4.5.3,1,.5,1.4.8.4.3.9.5,1.3.8.8.5,1.5,1,2.2,1.5.6.4,1.2.9,1.6,1.3.4.4.8.8,1.1,1.1.3.3.6.7.7,1,.2.4.4.7.5,1.1,0,.3.2.7.2,1s0,.6-.2.9h0Z"/>
        <path class="st0" d="M907.8,703l-2.5.7s-3.6,1-4,1.1l.4,6.3c.4,0,.7,0,1.1.1,1,0,1.9.2,2.7.3.8,0,1.5.2,2.1.2.6,0,1.1,0,1.4.1s.6,0,.6,0c.9,0,1.8.2,2.7.3.9,0,1.8.2,2.7.2s1.8.2,2.7.2c.9,0,1.8.2,2.7.2.5,0,1.1,0,1.6.1.5,0,1.1,0,1.6.1.5,0,1.1,0,1.6,0,.5,0,1,0,1.5,0,.5,0,1,0,1.5,0s1,0,1.5,0c.5,0,1,0,1.5,0,.5,0,1,0,1.4,0h1.4c.5,0,.9,0,1.4,0,.9,0,1.8,0,2.7,0,.9,0,1.7-.1,2.5-.2.8,0,1.6-.2,2.3-.3.8-.1,1.5-.2,2.2-.4.7-.1,1.4-.3,2-.5.8-.2,1.6-.5,2.2-.9.7-.3,1.2-.7,1.7-1.2s.8-.9,1-1.5c.2-.5.3-1.1.3-1.7,0-.9,0-1.6,0-2.3s0-1.4,0-2.3c-.9.2-1.6.4-2.3.5s-1.3.3-2,.4-1.4.3-2.3.5c-.5.1-1.1.2-1.7.3-.6,0-1.3.1-2.1.2-.8,0-1.6,0-2.5,0-.5,0-.9,0-1.4,0-.5,0-1,0-1.5,0-.9,0-1.8,0-2.6-.1-.9,0-1.8,0-2.7-.2-.9,0-1.8-.1-2.8-.2-.5,0-.9,0-1.4,0s-.9,0-1.4,0c-.2,0-.3,0-.5,0-.8,0-1.5-.1-2.3-.2-.8,0-1.6-.2-2.4-.2-.2,0-.3,0-.5,0-.5,0-1,0-1.5-.2-.5,0-1,0-1.5-.2-.5,0-1,0-1.5-.2-.5,0-1-.1-1.5-.2-.5,0-1-.1-1.5-.2-.3,0-.6,0-1-.1l-1.3.4-2.4.7h0Z"/>
      </g>
      <g>
        <path class="st0" d="M824.1,87.7c11.3-6.5,22.6-13.1,33.9-19.7,7.8-4.6,15.7-9.2,23.5-13.8,0-.2-.2-.4-.3-.6h-3.3c-22.9,0-45.7,0-68.6,0-2.1,0-3.2-.5-4-2.3-5.5-13-11.2-25.9-16.9-38.9-1.7-4-3.5-7.9-5.5-12.4-7.7,17.5-15.2,34.3-22.5,51.2-.9,2-2,2.5-4.2,2.5-22.9,0-45.7,0-68.6,0-1.1,0-2.2-.3-3.3.2.2,1,1.2,1.2,2,1.6,18.2,10.7,36.3,21.3,54.6,31.9,2.1,1.2,2.7,2.2,1.7,4.4-6.1,13.5-12,27-18,40.6-2.5,5.8-5.1,11.6-7.9,18,1.4-.8,2.2-1.2,3-1.6,20.2-11.8,40.3-23.5,60.5-35.4,1.9-1.1,3.2-1.1,5.1,0,19.8,11.7,39.6,23.3,59.4,34.8,1,.6,1.8,1.4,3.5,1.5-.4-1.1-.7-1.9-1-2.7-8.1-18.6-16.2-37.1-24.3-55.7-.8-1.8-.5-2.6,1.3-3.7h0ZM821.4,72.9c-5.8,3.4-11.6,6.8-17.4,10.1-.9.5-1.1,1-.7,1.9,4.2,9.5,8.3,19,12.5,28.6.2.4.3.8.5,1.4-.9,0-1.3-.5-1.8-.8-10.2-5.9-20.3-11.9-30.5-17.9-1-.6-1.6-.6-2.6,0-10.3,6.1-20.7,12.1-31,18.2-.4.2-.8.4-1.5.8,1.4-3.3,2.7-6.3,4-9.2,3.1-6.9,6.1-13.9,9.2-20.8.5-1.1.2-1.6-.9-2.3-9.4-5.4-18.7-10.9-28-16.4-.4-.2-.9-.3-1-.8.5-.2,1.1-.1,1.7-.1,11.7,0,23.5,0,35.2,0,1.1,0,1.7-.2,2.2-1.3,3.7-8.7,7.6-17.3,11.5-26.3,1,2.3,1.9,4.3,2.8,6.4,2.9,6.7,5.8,13.3,8.7,20,.4,1,1,1.2,2.1,1.2,11.7,0,23.5,0,35.2,0h1.7c0,.1,0,.2.1.3-4,2.3-8,4.7-12.1,7.1h0Z"/>
        <path class="st0" d="M470.6,159.8c14.7-7.9,29.3-15.9,43.9-23.9.9-.5,1.8-1,2.6-1.5,0-.2-.2-.4-.3-.6h-3.3c-16.3,0-32.5,0-48.8,0-2.2,0-3.1-.6-3.4-2.5-1-5.2-2.1-10.4-3.2-15.6-1.6-7.9-3.3-15.8-5-23.8-1.2.6-1.4,1.5-1.9,2.3-7.5,12.3-15.1,24.6-22.5,37-1.2,2-2.5,2.6-5,2.6-16.2,0-32.3,0-48.5,0-1.1,0-2.2-.2-3.7.4,1.1.8,2,1.4,2.9,2,11.1,7.8,22.3,15.6,33.5,23.3,1.9,1.3,2.2,2.2,1,4.1-6.4,10.3-12.7,20.7-19,31-2.6,4.2-5.1,8.4-7.6,12.6,1.5-.3,2.5-.8,3.6-1.4,15.7-8.6,31.4-17.1,47-25.7,1.8-1,3-1.1,4.8.2,12.1,8.6,24.4,17.1,36.6,25.6.8.6,1.5,1.5,2.8,1.5,0-.4,0-.8,0-1.1-2.9-14-5.8-28-8.8-41.9-.5-2.2-.1-3.5,2.2-4.7h0ZM455.4,156.6c1.4,6.4,2.7,12.8,4,19.2,0,.2,0,.3,0,.5-.6,0-.9-.4-1.3-.7-5.6-3.9-11.2-7.8-16.7-11.7-.8-.6-1.3-.6-2.2,0-7.1,3.9-14.3,7.8-21.5,11.8-.5.3-1,.5-1.6.6,1.2-1.9,2.3-3.9,3.5-5.8,2.9-4.7,5.7-9.5,8.7-14.2.5-.9.4-1.3-.5-1.9-5.1-3.5-10.2-7.1-15.3-10.7-.4-.3-.8-.6-1.3-.9.7-.3,1.2-.2,1.7-.2,7.4,0,14.8,0,22.1,0,1.1,0,1.8-.3,2.3-1.2,3.4-5.6,6.8-11.3,10.3-16.9.2-.3.3-.8.9-1,.8,3.7,1.5,7.2,2.3,10.9.5,2.4,1,4.7,1.5,7.1.2.8.5,1.1,1.5,1.1,7.4,0,14.9,0,22.3,0h1.5c0,0,0,.2.1.3-.4.2-.8.4-1.2.7-6.7,3.6-13.4,7.3-20.1,10.9-1.1.6-1.2,1.1-1,2.2h0Z"/>
        <path class="st0" d="M201.4,254.2c-10.7,2.8-21.4,5.6-32.1,8.5-2.4.6-3.4.4-4.2-1.8-3-7.8-6.2-15.4-9.4-23.1-.7-1.8-1.6-3.5-2.4-5.3-1.1.7-1,1.5-1.2,2.3-3.2,10.9-6.4,21.9-9.4,32.8-.5,1.7-1.3,2.5-3.2,3-6.5,1.6-13,3.4-19.5,5.1-5.4,1.4-10.8,2.8-17,4.5,1.7.8,2.6,1.3,3.5,1.7,8.7,3.9,17.4,7.8,26.1,11.6,1.8.8,2.3,1.6,1.8,3.3-2.1,6.8-4,13.6-6,20.4-1.7,5.8-3.3,11.6-5,17.5,1.2-.4,2-1.1,2.7-1.8,9.2-9.2,18.3-18.3,27.4-27.6,1.3-1.3,2.3-1.5,4.1-.7,6.3,2.9,12.7,5.7,19.1,8.5,3.8,1.7,7.5,3.3,11.3,5,.5-.9,0-1.5-.2-2-4-9.8-7.9-19.7-12.1-29.5-.8-1.8-.6-3,.9-4.5,8.8-8.6,17.4-17.4,26.1-26.1.7-.7,1.6-1.2,2-2.6-1.3.3-2.2.6-3.2.8h0ZM175.4,270.1c-3.4,3.4-6.8,6.9-10.3,10.3-.6.6-.6,1.1-.3,1.8,1.6,3.9,3.2,7.8,4.8,11.6,0,.2.3.4,0,.8-1.5-.7-3-1.3-4.4-2-2.5-1.1-5.1-2.2-7.6-3.4-.7-.3-1.1-.2-1.6.3-3.6,3.6-7.2,7.3-10.8,10.9-.3.3-.6.5-1.1.7.7-2.3,1.3-4.6,2-6.9.8-2.7,1.5-5.4,2.4-8.1.2-.7,0-1-.7-1.3-3.4-1.5-6.9-3-10.3-4.6-.4-.2-.7-.3-1.4-.7,2.5-.6,4.6-1.2,6.7-1.8,2.6-.7,5.1-1.4,7.7-2,.8-.2,1.1-.5,1.3-1.2,1.2-4.3,2.5-8.6,3.7-13,0-.3,0-.6.5-.9.3.7.6,1.4.9,2.1,1.2,3,2.5,6.1,3.7,9.1.3.9.7,1,1.7.7,4.2-1.2,8.4-2.2,12.7-3.4.4-.1.8-.2,1.2-.3-.1.5-.5.8-.8,1h0Z"/>
        <path class="st0" d="M1095.2,159.8c-14.7-7.9-29.3-15.9-43.9-23.9-.9-.5-1.8-1-2.6-1.5,0-.2.2-.4.3-.6h3.3c16.3,0,32.5,0,48.8,0,2.2,0,3.1-.6,3.4-2.5,1-5.2,2.1-10.4,3.2-15.6,1.7-7.9,3.3-15.8,5-23.8,1.2.6,1.4,1.5,1.9,2.3,7.5,12.3,15.1,24.6,22.5,37,1.2,2,2.5,2.6,5,2.6,16.2,0,32.3,0,48.5,0,1.1,0,2.2-.2,3.7.4-1.1.8-2,1.4-2.9,2-11.2,7.8-22.3,15.6-33.5,23.3-1.9,1.3-2.2,2.2-1.1,4.1,6.4,10.3,12.7,20.7,19,31,2.6,4.2,5.1,8.4,7.6,12.6-1.5-.3-2.6-.8-3.6-1.4-15.7-8.6-31.4-17.1-47-25.7-1.8-1-3-1.1-4.8.2-12.1,8.6-24.3,17.1-36.6,25.6-.8.6-1.5,1.5-2.8,1.5,0-.4,0-.8,0-1.1,2.9-14,5.8-28,8.8-41.9.5-2.2.1-3.5-2.2-4.7h0ZM1110.4,156.6c-1.4,6.4-2.7,12.8-4,19.2,0,.2,0,.3,0,.5.6,0,.9-.4,1.3-.7,5.6-3.9,11.2-7.8,16.7-11.7.8-.6,1.3-.6,2.2,0,7.1,3.9,14.3,7.8,21.5,11.8.5.3,1,.5,1.6.6-1.2-1.9-2.3-3.9-3.5-5.8-2.9-4.7-5.7-9.5-8.7-14.2-.5-.9-.4-1.3.5-1.9,5.1-3.5,10.2-7.1,15.3-10.7.4-.3.8-.6,1.3-.9-.7-.3-1.2-.2-1.7-.2-7.4,0-14.8,0-22.1,0-1.1,0-1.8-.3-2.3-1.2-3.4-5.6-6.8-11.3-10.3-16.9-.2-.3-.3-.8-.9-1-.8,3.7-1.5,7.2-2.3,10.9-.5,2.4-1,4.7-1.4,7.1-.2.8-.5,1.1-1.6,1.1-7.4,0-14.8,0-22.3,0h-1.5c0,0,0,.2-.1.3.4.2.8.4,1.2.7,6.7,3.6,13.3,7.3,20.1,10.9,1.1.6,1.2,1.1,1,2.2h0Z"/>
        <path class="st0" d="M1364.4,254.2c10.7,2.8,21.4,5.6,32.1,8.5,2.4.6,3.4.4,4.2-1.8,3-7.8,6.2-15.4,9.4-23.1.7-1.8,1.6-3.5,2.3-5.3,1.1.7,1,1.5,1.2,2.3,3.2,10.9,6.4,21.9,9.4,32.8.5,1.7,1.3,2.5,3.2,3,6.5,1.6,13,3.4,19.5,5.1,5.4,1.4,10.8,2.8,17,4.5-1.7.8-2.6,1.3-3.5,1.7-8.7,3.9-17.4,7.8-26.1,11.6-1.8.8-2.3,1.6-1.8,3.3,2.1,6.8,4,13.6,6,20.4,1.7,5.8,3.3,11.6,5,17.5-1.2-.4-2-1.1-2.7-1.8-9.2-9.2-18.3-18.3-27.4-27.6-1.3-1.3-2.3-1.5-4.1-.7-6.3,2.9-12.7,5.7-19.1,8.5-3.8,1.7-7.5,3.3-11.3,5-.5-.9,0-1.5.2-2,4-9.8,7.9-19.7,12.1-29.5.8-1.8.6-3-.9-4.5-8.8-8.6-17.4-17.4-26.1-26.1-.7-.7-1.7-1.2-2-2.6,1.3.3,2.2.6,3.2.8h0ZM1390.4,270.1c3.4,3.4,6.8,6.9,10.3,10.3.6.6.7,1.1.3,1.8-1.6,3.9-3.2,7.8-4.8,11.6,0,.2-.3.4,0,.8,1.5-.7,3-1.3,4.4-2,2.5-1.1,5.1-2.2,7.6-3.4.7-.3,1.1-.2,1.6.3,3.6,3.6,7.2,7.3,10.8,10.9.3.3.6.5,1.1.7-.7-2.3-1.3-4.6-2-6.9-.8-2.7-1.5-5.4-2.4-8.1-.2-.7,0-1,.7-1.3,3.4-1.5,6.9-3,10.3-4.6.4-.2.7-.3,1.4-.7-2.5-.6-4.6-1.2-6.7-1.8-2.6-.7-5.1-1.4-7.7-2-.8-.2-1.1-.5-1.3-1.2-1.2-4.3-2.5-8.6-3.7-13,0-.3,0-.6-.5-.9-.3.7-.6,1.4-.9,2.1-1.2,3-2.5,6.1-3.7,9.1-.3.9-.7,1-1.7.7-4.2-1.2-8.4-2.2-12.7-3.4-.4-.1-.8-.2-1.2-.3.1.5.5.8.8,1h0Z"/>
      </g>
    </g>
  </g>
</svg>