<?xml version="1.0" encoding="UTF-8"?>
<svg id="Livello_2" data-name="Livello 2" xmlns="http://www.w3.org/2000/svg" viewBox="0 0 2144 2144">
  <defs>
    <style>
      .cls-1 {
        fill: #c1272d;
      }
    </style>
  </defs>
  <g id="Livello_1-2" data-name="Livello 1">
    <path class="cls-1" d="M1540.57,652.89c-7.73,0-11.85,4.12-11.85,11.33v337.87c0,7.21,4.12,11.33,11.85,11.33h79.83c7.73,0,12.36-4.12,12.36-11.33v-337.87c0-7.21-4.63-11.33-12.36-11.33h-79.83Z"/>
    <path class="cls-1" d="M1931.92,735.28c-.19-.05,28.49-83.38,28.68-83.38h-300.53c-6.84,0-10.49,4.14-10.49,11.39v339.74c0,7.25,3.65,11.39,10.49,11.39h307.93c-.19-.47-26.15-83.8-25.96-83.38h-200.32v-59.56h126.78c6.39,0,10.49-4.14,10.49-11.39v-56.97c0-7.25-4.11-11.39-10.49-11.39h-126.78v-56.45h190.2Z"/>
    <path class="cls-1" d="M1509.05,1328.54v-59.56h126.78c6.39,0,10.49-4.14,10.49-11.39v-56.97c0-7.25-4.11-11.39-10.49-11.39h-126.78v-56.45h190.2c-.19-.05,28.49-83.38,28.68-83.38h-373.61c-9.32,0-13.98,3.62-16.57,10.87l-98.4,269.82-97.88-269.82c-2.59-7.25-7.77-10.87-17.09-10.87h-89.6c-1.17,0-2.22.17-3.16.46-1.26-.3-2.64-.46-4.13-.46h-80.27c-7.77,0-11.91,4.14-11.91,11.39v133.66c-2.66-5.74-5.83-10.96-9.56-15.64-12.96-16.25-30.76-27.57-53.36-33.94-22.62-6.36-48.41-9.56-77.38-9.56-19.82,0-83.74-2.3-149.4,18.3-65.66,20.6-166.19,70.33-166.19,70.33,0-3.51,64.74-117.95,64.62-117.97,3.88-5.59,278.75-69.32,362.01-88.52.47.06.95.09,1.44.09l79.83-18.46c6.44-1.96,12.36-4.12,12.36-11.33v-89.57h72.11l88.59,105.07c5.66,6.7,9.79,8.76,19.57,8.76h101.46c5.67,0,8.24-6.7,4.12-11.33l-98.89-107.65h1.55c60.77,0,86.01-29.87,86.01-87.56v-69.64h52.96v266.28c0,7.21,4.12,11.33,11.84,11.33h80.35c7.21,0,11.84-4.12,11.84-11.33v-266.28h70.32c7.73,0,11.85-4.12,11.85-11.33v-60.26c0-7.21-4.12-11.33-11.85-11.33h-290.31c-7.03-.95-14.68-1.44-23.02-1.44h-280.7c-7.73,0-11.85,4.12-11.85,11.33v238.45l-78.14-242.63h-140.1l-225.77,373.3c-59.43,96.52-199.04,324.25-199.04,330.81,0,7.03,8.39,20.43,25.16,40.2l28.97,35.59c11.69,16.7,18.8,25.04,21.34,25.04s5.34-2.64,8.39-7.91c8.39-14.32,65.85-53.3,164.24-104.67,93.86-49,272.6-143.55,302.28-71.08,14.29,34.89-15.22,84.29-48.31,129.05-38.99,52.74-121.05,105.88-131.95,113.26-36.34,24.61-74.62,45.48-116.25,58.33-235.58,72.71-264.13-87.25-282.93-122.4-1.02-2.64-3.05-3.95-6.1-3.95-4.07,0-12.2,1.76-24.39,5.27-15.22,3.7-19.44,39.68-15.81,78.6,4.97,53.25,31.34,102.43,73.74,135.02,26.49,20.36,58.07,33.87,117.22,40.21,44.24,4.74,173.13.05,278.12-60.04,134.43-76.94,246.32-219.25,269.15-276.73,8.4-22.53,15.01-43.28,19.85-62.26v86.26c0,7.25,4.14,11.39,11.91,11.39h80.27c7.77,0,12.43-4.14,12.43-11.39v-307.72l121.23,308.23c3.11,7.25,7.77,10.88,17.09,10.88h118.08c9.32,0,13.98-3.63,16.57-10.88l104.01-263.44v262.92c0,7.25,3.65,11.39,10.49,11.39h307.93c-.19-.46-26.15-83.8-25.96-83.38h-200.32ZM999.69,734.38h135.97c29.87,0,34.51,4.63,34.51,29.36v22.15c0,24.72-4.64,29.36-34.51,29.36h-135.97v-80.86ZM745.69,756.9l43.77,168.19c-51.77,10.61-114.33,23.58-169.77,35.08l126-203.27Z"/>
    <polygon class="cls-1" points="1531.84 590.78 1584.3 563.2 1636.77 590.78 1626.75 532.36 1669.19 490.99 1610.54 482.47 1584.3 429.32 1558.07 482.47 1499.42 490.99 1541.86 532.36 1531.84 590.78"/>
    <polygon class="cls-1" points="1751.86 590.78 1804.33 563.2 1856.79 590.78 1846.77 532.36 1889.21 490.99 1830.56 482.47 1804.33 429.32 1778.09 482.47 1719.44 490.99 1761.88 532.36 1751.86 590.78"/>
    <polygon class="cls-1" points="1311.82 590.78 1364.28 563.2 1416.75 590.78 1406.73 532.36 1449.17 490.99 1390.51 482.47 1364.28 429.32 1338.05 482.47 1279.4 490.99 1321.84 532.36 1311.82 590.78"/>
    <polygon class="cls-1" points="1091.8 590.78 1144.26 563.2 1196.72 590.78 1186.7 532.36 1229.15 490.99 1170.49 482.47 1144.26 429.32 1118.03 482.47 1059.37 490.99 1101.82 532.36 1091.8 590.78"/>
    <polygon class="cls-1" points="871.78 590.78 924.24 563.2 976.7 590.78 966.68 532.36 1009.13 490.99 950.47 482.47 924.24 429.32 898.01 482.47 839.35 490.99 881.8 532.36 871.78 590.78"/>
    <path class="cls-1" d="M1072,2144c-144.7,0-285.1-28.35-417.28-84.26-127.66-53.99-242.3-131.28-340.74-229.72-98.44-98.44-175.73-213.08-229.72-340.74C28.35,1357.1,0,1216.7,0,1072s28.35-285.1,84.26-417.28c53.99-127.66,131.28-242.3,229.72-340.74,98.44-98.44,213.08-175.73,340.74-229.72C786.9,28.35,927.3,0,1072,0s285.1,28.35,417.28,84.26c127.66,53.99,242.3,131.28,340.74,229.72,98.44,98.44,175.73,213.08,229.72,340.74,55.91,132.19,84.26,272.58,84.26,417.28s-28.35,285.1-84.26,417.28c-53.99,127.66-131.28,242.3-229.72,340.74s-213.08,175.73-340.74,229.72c-132.19,55.91-272.58,84.26-417.28,84.26ZM1072,75c-134.61,0-265.17,26.36-388.07,78.33-118.72,50.21-225.34,122.11-316.92,213.68s-163.47,198.2-213.68,316.92c-51.98,122.89-78.33,253.46-78.33,388.07s26.36,265.17,78.33,388.07c50.21,118.72,122.11,225.34,213.68,316.92,91.57,91.58,198.2,163.47,316.92,213.68,122.89,51.98,253.46,78.33,388.07,78.33s265.17-26.36,388.07-78.33c118.72-50.21,225.34-122.11,316.92-213.68,91.58-91.57,163.47-198.2,213.68-316.92,51.98-122.89,78.33-253.46,78.33-388.07s-26.36-265.17-78.33-388.07c-50.21-118.72-122.11-225.34-213.68-316.92-91.57-91.58-198.2-163.47-316.92-213.68-122.89-51.98-253.46-78.33-388.07-78.33Z"/>
  </g>
</svg>