<?xml version="1.0" encoding="UTF-8"?>
<svg id="Livello_2" data-name="Livello 2" xmlns="http://www.w3.org/2000/svg" viewBox="0 0 4609.43 708.91">
  <defs>
    <style>
      .cls-1 {
        fill: #c1272d;
      }
    </style>
  </defs>
  <g id="Livello_1-2" data-name="Livello 1">
    <polygon class="cls-1" points="3040.39 708.91 3270.73 587.82 3501.07 708.91 3457.08 452.43 3643.42 270.78 3385.9 233.36 3270.73 0 3155.56 233.36 2898.03 270.78 3084.38 452.43 3040.39 708.91"/>
    <polygon class="cls-1" points="4006.4 708.91 4236.74 587.82 4467.08 708.91 4423.09 452.43 4609.43 270.78 4351.91 233.36 4236.74 0 4121.57 233.36 3864.04 270.78 4050.39 452.43 4006.4 708.91"/>
    <polygon class="cls-1" points="2074.38 708.91 2304.72 587.82 2535.06 708.91 2491.07 452.43 2677.41 270.78 2419.89 233.36 2304.72 0 2189.55 233.36 1932.02 270.78 2118.37 452.43 2074.38 708.91"/>
    <polygon class="cls-1" points="1108.37 708.91 1338.71 587.82 1569.05 708.91 1525.06 452.43 1711.4 270.78 1453.88 233.36 1338.71 0 1223.54 233.36 966.01 270.78 1152.36 452.43 1108.37 708.91"/>
    <polygon class="cls-1" points="142.36 708.91 372.7 587.82 603.04 708.91 559.05 452.43 745.39 270.78 487.87 233.36 372.7 0 257.53 233.36 0 270.78 186.35 452.43 142.36 708.91"/>
  </g>
</svg>